<svg width="151" height="115" viewBox="0 0 151 115" fill="none" xmlns="http://www.w3.org/2000/svg">
<g filter="url(#filter0_d_1188_3995)">
<rect x="40" y="36" width="78" height="35" rx="8" fill="white"/>
</g>
<path d="M56.5 53.1651C56.4175 48.9501 59.7475 45.5376 63.9625 45.5376C68.1775 45.5376 71.5 48.9501 71.5 53.0826V57.7026C71.5 59.1651 70.285 60.3801 68.8225 60.3801C67.36 60.3801 66.145 59.1651 66.145 57.7026V55.5951C66.145 54.8676 66.715 54.2151 67.525 54.2151C68.2525 54.2151 68.905 54.7851 68.905 55.5951V57.8676" stroke="#4F0099" stroke-width="1.5" stroke-linecap="round" stroke-linejoin="round"/>
<path d="M59.095 57.8676V55.6776C59.095 54.9501 59.665 54.2976 60.475 54.2976C61.2025 54.2976 61.855 54.8676 61.855 55.6776V57.7851C61.855 59.2476 60.64 60.4626 59.1775 60.4626C57.715 60.4626 56.5 59.2401 56.5 57.7851V56.0001" stroke="#4F0099" stroke-width="1.5" stroke-linecap="round" stroke-linejoin="round"/>
<path d="M78.9511 57V48.6H80.1031V52.212H84.5311V48.6H85.6831V57H84.5311V53.232H80.1031V57H78.9511ZM90.5778 57C89.9058 57 89.3098 56.876 88.7898 56.628C88.2698 56.372 87.8618 56.016 87.5658 55.56C87.2778 55.096 87.1338 54.556 87.1338 53.94C87.1338 53.332 87.2578 52.788 87.5058 52.308C87.7538 51.82 88.0978 51.436 88.5378 51.156C88.9778 50.876 89.4898 50.736 90.0738 50.736C90.7058 50.736 91.2298 50.872 91.6458 51.144C92.0698 51.416 92.3858 51.784 92.5938 52.248C92.8018 52.704 92.9058 53.216 92.9058 53.784C92.9058 53.872 92.9018 53.964 92.8938 54.06C92.8938 54.156 92.8858 54.24 92.8698 54.312H88.3098C88.3498 54.688 88.4738 55.008 88.6818 55.272C88.8898 55.528 89.1538 55.724 89.4738 55.86C89.8018 55.988 90.1618 56.052 90.5538 56.052H92.1498V57H90.5778ZM88.2978 53.532H91.7898C91.7898 53.38 91.7738 53.22 91.7418 53.052C91.7098 52.876 91.6538 52.708 91.5738 52.548C91.4938 52.38 91.3858 52.232 91.2498 52.104C91.1218 51.968 90.9578 51.86 90.7578 51.78C90.5658 51.7 90.3378 51.66 90.0738 51.66C89.7938 51.66 89.5458 51.716 89.3298 51.828C89.1218 51.932 88.9418 52.076 88.7898 52.26C88.6378 52.436 88.5218 52.636 88.4418 52.86C88.3618 53.084 88.3138 53.308 88.2978 53.532ZM94.3135 57V48.24H95.4175V57H94.3135ZM100.269 50.736C100.733 50.736 101.157 50.812 101.541 50.964C101.925 51.108 102.257 51.324 102.537 51.612C102.817 51.9 103.033 52.248 103.185 52.656C103.345 53.056 103.425 53.508 103.425 54.012C103.425 54.644 103.293 55.196 103.029 55.668C102.773 56.14 102.421 56.504 101.973 56.76C101.525 57.016 101.017 57.144 100.449 57.144C100.137 57.144 99.8369 57.092 99.5489 56.988C99.2689 56.884 99.0169 56.74 98.7929 56.556C98.5769 56.364 98.4009 56.148 98.2649 55.908H98.2409V59.64H97.1369V53.976C97.1369 53.288 97.2729 52.704 97.5449 52.224C97.8249 51.744 98.2009 51.376 98.6729 51.12C99.1449 50.864 99.6769 50.736 100.269 50.736ZM100.269 51.684C99.9009 51.684 99.5609 51.776 99.2489 51.96C98.9449 52.144 98.7009 52.404 98.5169 52.74C98.3409 53.076 98.2529 53.472 98.2529 53.928C98.2529 54.392 98.3409 54.796 98.5169 55.14C98.7009 55.476 98.9449 55.736 99.2489 55.92C99.5609 56.104 99.9049 56.196 100.281 56.196C100.665 56.196 101.009 56.1 101.313 55.908C101.617 55.716 101.857 55.452 102.033 55.116C102.217 54.78 102.309 54.388 102.309 53.94C102.309 53.476 102.217 53.076 102.033 52.74C101.849 52.404 101.601 52.144 101.289 51.96C100.985 51.776 100.645 51.684 100.269 51.684Z" fill="#4F0099"/>
<defs>
<filter id="filter0_d_1188_3995" x="0" y="0" width="158" height="115" filterUnits="userSpaceOnUse" color-interpolation-filters="sRGB">
<feFlood flood-opacity="0" result="BackgroundImageFix"/>
<feColorMatrix in="SourceAlpha" type="matrix" values="0 0 0 0 0 0 0 0 0 0 0 0 0 0 0 0 0 0 127 0" result="hardAlpha"/>
<feOffset dy="4"/>
<feGaussianBlur stdDeviation="20"/>
<feComposite in2="hardAlpha" operator="out"/>
<feColorMatrix type="matrix" values="0 0 0 0 0 0 0 0 0 0 0 0 0 0 0 0 0 0 0.2 0"/>
<feBlend mode="normal" in2="BackgroundImageFix" result="effect1_dropShadow_1188_3995"/>
<feBlend mode="normal" in="SourceGraphic" in2="effect1_dropShadow_1188_3995" result="shape"/>
</filter>
</defs>
</svg>
