<svg width="83" height="83" viewBox="0 0 83 83" fill="none" xmlns="http://www.w3.org/2000/svg">
<g filter="url(#filter0_di_926_3169)">
<circle cx="41.5" cy="37.5" r="21.5" fill="white"/>
</g>
<path d="M50.25 32.4818C47.1975 32.1793 44.1267 32.0234 41.065 32.0234C39.25 32.0234 37.435 32.1151 35.62 32.2984L33.75 32.4818" stroke="#4F0099" stroke-width="1.5" stroke-linecap="round" stroke-linejoin="round"/>
<path d="M38.7916 31.5555L38.9933 30.3547C39.14 29.4838 39.25 28.833 40.7991 28.833H43.2008C44.75 28.833 44.8691 29.5205 45.0066 30.3638L45.2083 31.5555" stroke="#4F0099" stroke-width="1.5" stroke-linecap="round" stroke-linejoin="round"/>
<path d="M44.9425 47.1663H39.0575C36.5 47.1663 36.4175 46.0479 36.3167 44.6088L35.7208 35.3779" stroke="#4F0099" stroke-width="1.5" stroke-linecap="round" stroke-linejoin="round"/>
<path d="M48.2792 35.3779L47.6833 44.6088" stroke="#4F0099" stroke-width="1.5" stroke-linecap="round" stroke-linejoin="round"/>
<path d="M40.4691 42.125H43.5216" stroke="#4F0099" stroke-width="1.5" stroke-linecap="round" stroke-linejoin="round"/>
<path d="M42.7517 38.458H44.2917" stroke="#4F0099" stroke-width="1.5" stroke-linecap="round" stroke-linejoin="round"/>
<path d="M39.7084 38.458H40.4692" stroke="#4F0099" stroke-width="1.5" stroke-linecap="round" stroke-linejoin="round"/>
<defs>
<filter id="filter0_di_926_3169" x="0" y="0" width="83" height="83" filterUnits="userSpaceOnUse" color-interpolation-filters="sRGB">
<feFlood flood-opacity="0" result="BackgroundImageFix"/>
<feColorMatrix in="SourceAlpha" type="matrix" values="0 0 0 0 0 0 0 0 0 0 0 0 0 0 0 0 0 0 127 0" result="hardAlpha"/>
<feOffset dy="4"/>
<feGaussianBlur stdDeviation="10"/>
<feComposite in2="hardAlpha" operator="out"/>
<feColorMatrix type="matrix" values="0 0 0 0 0 0 0 0 0 0 0 0 0 0 0 0 0 0 0.1 0"/>
<feBlend mode="normal" in2="BackgroundImageFix" result="effect1_dropShadow_926_3169"/>
<feBlend mode="normal" in="SourceGraphic" in2="effect1_dropShadow_926_3169" result="shape"/>
<feColorMatrix in="SourceAlpha" type="matrix" values="0 0 0 0 0 0 0 0 0 0 0 0 0 0 0 0 0 0 127 0" result="hardAlpha"/>
<feMorphology radius="1" operator="erode" in="SourceAlpha" result="effect2_innerShadow_926_3169"/>
<feOffset/>
<feGaussianBlur stdDeviation="1"/>
<feComposite in2="hardAlpha" operator="arithmetic" k2="-1" k3="1"/>
<feColorMatrix type="matrix" values="0 0 0 0 0 0 0 0 0 0 0 0 0 0 0 0 0 0 0.2 0"/>
<feBlend mode="normal" in2="shape" result="effect2_innerShadow_926_3169"/>
</filter>
</defs>
</svg>
