<svg width="24" height="25" viewBox="0 0 24 25" fill="none" xmlns="http://www.w3.org/2000/svg">
<path d="M16.19 2.14551H7.81C4.17 2.14551 2 4.31551 2 7.95551V16.3255C2 19.9755 4.17 22.1455 7.81 22.1455H16.18C19.82 22.1455 21.99 19.9755 21.99 16.3355V7.95551C22 4.31551 19.83 2.14551 16.19 2.14551ZM16 12.8955H12.75V16.1455C12.75 16.5555 12.41 16.8955 12 16.8955C11.59 16.8955 11.25 16.5555 11.25 16.1455V12.8955H8C7.59 12.8955 7.25 12.5555 7.25 12.1455C7.25 11.7355 7.59 11.3955 8 11.3955H11.25V8.14551C11.25 7.73551 11.59 7.39551 12 7.39551C12.41 7.39551 12.75 7.73551 12.75 8.14551V11.3955H16C16.41 11.3955 16.75 11.7355 16.75 12.1455C16.75 12.5555 16.41 12.8955 16 12.8955Z" fill="#4F0099"/>
</svg>
