<svg width="390" height="199" viewBox="0 0 390 199" fill="none" xmlns="http://www.w3.org/2000/svg">
<path d="M306.217 73.0021C308.777 73.9536 311.572 74.017 314.233 73.4049C325.381 70.8472 363.712 64.0714 357.052 93.775C355.601 99.6675 333.152 132.673 365.122 144.719C367.465 145.614 369.942 146.102 372.449 146.162C382.293 146.365 401.799 144.041 409.963 135.731C419.826 125.692 409.051 130.453 409.051 130.453C409.051 130.453 371.558 146.814 358.314 129.455C356.841 127.524 355.902 124.719 355.634 122.304C355.168 118.117 357.027 112.585 359.469 107.767C362.775 101.248 378.643 71.9239 344.189 63.3816C336.252 61.4914 324.724 59.7947 309.861 66.052C301.19 69.7023 303.111 71.8477 306.217 73.0021Z" fill="#4F0099"/>
<path d="M313.889 62.0532L303.91 65.7891C300.466 67.0783 298.719 70.9158 300.008 74.3599L300.503 75.6824C301.792 79.1266 305.629 80.874 309.073 79.5849L319.054 75.8505C322.498 74.5613 324.245 70.7239 322.956 67.2781L322.462 65.9572C321.172 62.5115 317.335 60.764 313.889 62.0532Z" fill="#AB51FF"/>
<path d="M252.633 72.861L219.723 85.1788C217.999 85.8226 217.126 87.7414 217.771 89.4635L217.901 89.8107C218.545 91.5328 220.464 92.4065 222.187 91.7627L255.097 79.4449C256.821 78.7995 257.695 76.8808 257.049 75.1587L256.919 74.8114C256.275 73.0893 254.357 72.2156 252.633 72.861Z" fill="#D4A6FF"/>
<path d="M261.819 97.404L228.908 109.72C227.186 110.366 226.312 112.284 226.957 114.006L227.086 114.354C227.731 116.076 229.65 116.95 231.372 116.304L264.283 103.988C266.005 103.342 266.879 101.424 266.235 99.7017L266.105 99.3544C265.462 97.6323 263.541 96.7586 261.819 97.404Z" fill="#D4A6FF"/>
<path d="M292.204 56.1138L265.531 66.0958C262.085 67.385 260.338 71.224 261.627 74.6682L270.735 99.001C272.024 102.445 275.862 104.193 279.306 102.903L305.981 92.9213C309.425 91.6322 311.173 87.7947 309.883 84.349L300.777 60.0162C299.487 56.572 295.65 54.8246 292.204 56.1138Z" fill="#4F0099"/>
<path d="M268.287 62.4965L241.612 72.4802C238.168 73.7694 236.42 77.6068 237.709 81.0526L248.575 110.082C249.864 113.526 253.701 115.274 257.146 113.985L283.82 104.003C287.265 102.713 289.012 98.876 287.723 95.4303L276.858 66.4006C275.568 62.9548 271.731 61.2074 268.287 62.4965Z" fill="#4F0099"/>
<path d="M272.462 56.6051L272.253 56.6828C269.957 57.5422 268.792 60.1016 269.651 62.3977L284.872 103.067C285.732 105.363 288.289 106.528 290.586 105.669L290.795 105.589C293.093 104.73 294.257 102.172 293.397 99.876L278.177 59.2072C277.318 56.9111 274.759 55.7456 272.462 56.6051Z" fill="#C07FFC"/>
<path d="M0.475201 82.6064C0.475201 82.6064 54.0455 67.5516 46.2681 102.238C44.9174 107.726 25.4748 135.983 48.6338 149.55C53.6066 152.463 59.3453 153.754 65.1083 153.724C75.4408 153.67 91.8211 151.682 99.1797 144.192C109.042 134.153 98.2678 138.914 98.2678 138.914C98.2678 138.914 67.5014 151.569 51.6733 141.481C46.2687 138.037 43.819 131.367 45.2865 125.127C46.0367 122.029 47.1789 119.038 48.6858 116.228C52.1281 109.781 67.8605 80.3848 33.4061 71.8426C25.4691 69.9524 13.9412 68.2557 -0.922765 74.5129C-15.7868 80.7717 0.475201 82.6064 0.475201 82.6064Z" fill="#4F0099"/>
<path d="M106.383 131.151L96.4036 134.887C92.9587 136.176 91.2112 140.013 92.5005 143.459L92.9953 144.78C94.2845 148.226 98.1222 149.973 101.567 148.683L111.546 144.948C114.991 143.659 116.739 139.822 115.449 136.376L114.955 135.055C113.666 131.609 109.828 129.862 106.383 131.151Z" fill="#AB51FF"/>
<path d="M123.244 114.733L108.454 120.269C105.009 121.558 103.261 125.395 104.551 128.841L111.682 147.895C112.972 151.341 116.81 153.088 120.254 151.799L135.044 146.263C138.489 144.974 140.236 141.137 138.947 137.691L131.816 118.637C130.526 115.191 126.689 113.444 123.244 114.733Z" fill="#4F0099"/>
<path d="M147.865 100.061L125.809 108.316C122.364 109.605 120.617 113.443 121.906 116.889L132.771 145.918C134.06 149.364 137.898 151.111 141.343 149.822L163.398 141.567C166.844 140.278 168.591 136.44 167.302 132.995L156.437 103.965C155.148 100.519 151.31 98.7718 147.865 100.061Z" fill="#4F0099"/>
<path d="M152.538 94.0504L152.328 94.1281C150.031 94.9875 148.867 97.5469 149.726 99.843L164.946 140.512C165.805 142.808 168.365 143.973 170.661 143.114L170.87 143.035C173.166 142.175 174.332 139.618 173.472 137.32L158.251 96.6525C157.392 94.3564 154.834 93.1909 152.538 94.0504Z" fill="#BF7FFC"/>
<path d="M208.858 68.1405C208.063 68.0517 207.334 67.66 206.823 67.0448C206.314 66.4295 206.062 65.6414 206.121 64.8438L207.767 34.785C207.865 32.9895 209.381 31.6253 211.101 31.7841L213.499 32.0061C215.219 32.1648 216.452 33.782 216.211 35.5652L212.167 65.402C212.075 66.1964 211.679 66.9243 211.062 67.4349C210.445 67.9455 209.655 68.1976 208.858 68.1405Z" fill="#BA75FA"/>
<path d="M194.648 70.7311C194.401 70.804 194.142 70.8278 193.885 70.8008C193.63 70.7723 193.381 70.6946 193.156 70.5709C192.929 70.4488 192.731 70.2823 192.569 70.0809C192.407 69.8811 192.287 69.6496 192.214 69.4038L186.337 50.7051C186.166 50.1739 186.213 49.5951 186.467 49.0988C186.722 48.6008 187.163 48.225 187.696 48.0538L189.217 47.5939C189.478 47.5178 189.753 47.4972 190.022 47.5321C190.292 47.567 190.55 47.6573 190.783 47.7985C191.017 47.938 191.218 48.1251 191.375 48.3471C191.532 48.5691 191.641 48.8213 191.695 49.0877L196.051 68.2462C196.173 68.76 196.096 69.3023 195.836 69.7638C195.576 70.2236 195.152 70.5693 194.648 70.7311Z" fill="#BA75FA"/>
<path d="M186.718 81.5156C185.665 82.8207 183.547 82.8048 181.916 81.4807L152.976 57.9662C151.246 56.5612 150.736 54.2366 151.853 52.8538L153.41 50.9256C154.528 49.5413 156.821 49.6554 158.457 51.1746L185.843 76.6189C187.386 78.0508 187.771 80.2122 186.718 81.5156Z" fill="#BA75FA"/>
<path d="M200.097 142.25C200.842 142.539 201.446 143.105 201.782 143.83C202.12 144.554 202.161 145.382 201.901 146.137L192.633 174.778C192.079 176.489 190.265 177.42 188.641 176.827L186.379 176.001C184.756 175.408 183.978 173.528 184.666 171.868L196.196 144.053C196.489 143.308 197.057 142.705 197.785 142.369C198.511 142.033 199.339 141.99 200.097 142.25Z" fill="#BA75FA"/>
<path d="M214.497 143.376C214.753 143.368 215.01 143.412 215.251 143.504C215.491 143.596 215.711 143.734 215.898 143.912C216.085 144.088 216.236 144.3 216.341 144.535C216.445 144.77 216.504 145.023 216.51 145.282L217.417 164.861C217.446 165.419 217.254 165.964 216.88 166.38C216.507 166.797 215.984 167.047 215.427 167.078L213.839 167.133C213.566 167.139 213.296 167.09 213.044 166.987C212.792 166.884 212.565 166.73 212.375 166.535C212.186 166.34 212.039 166.109 211.944 165.853C211.85 165.598 211.809 165.327 211.823 165.056L212.505 145.421C212.519 144.892 212.733 144.388 213.101 144.009C213.471 143.63 213.969 143.404 214.497 143.376Z" fill="#BA75FA"/>
<path d="M224.918 134.974C226.269 133.981 228.313 134.538 229.55 136.234L251.528 166.36C252.839 168.16 252.739 170.537 251.306 171.59L249.308 173.056C247.874 174.109 245.684 173.413 244.49 171.526L224.51 139.932C223.388 138.155 223.567 135.966 224.918 134.974Z" fill="#BA75FA"/>
</svg>
