<svg width="315" height="48" viewBox="0 0 315 48" fill="none" xmlns="http://www.w3.org/2000/svg">
<rect width="315" height="48" rx="24" fill="#D4B0FF"/>
<g clip-path="url(#clip0_13489_18568)">
<path d="M127.167 32.3332C127.627 32.3332 128 31.9601 128 31.4998C128 31.0396 127.627 30.6665 127.167 30.6665C126.706 30.6665 126.333 31.0396 126.333 31.4998C126.333 31.9601 126.706 32.3332 127.167 32.3332Z" stroke="#21034F" stroke-width="1.5" stroke-linecap="round" stroke-linejoin="round"/>
<path d="M118 32.3332C118.46 32.3332 118.833 31.9601 118.833 31.4998C118.833 31.0396 118.46 30.6665 118 30.6665C117.54 30.6665 117.167 31.0396 117.167 31.4998C117.167 31.9601 117.54 32.3332 118 32.3332Z" stroke="#21034F" stroke-width="1.5" stroke-linecap="round" stroke-linejoin="round"/>
<path d="M111.333 14.8335H114.667L116.9 25.9918C116.976 26.3755 117.185 26.7201 117.49 26.9654C117.794 27.2107 118.176 27.341 118.567 27.3335H126.667C127.058 27.341 127.439 27.2107 127.744 26.9654C128.048 26.7201 128.257 26.3755 128.333 25.9918L129.667 19.0002H115.5" stroke="#21034F" stroke-width="1.5" stroke-linecap="round" stroke-linejoin="round"/>
</g>
<path d="M155.998 27.772C156.115 27.772 156.219 27.8173 156.31 27.908L157.158 28.828C156.688 29.4093 156.11 29.8547 155.422 30.164C154.739 30.4733 153.918 30.628 152.958 30.628C152.099 30.628 151.326 30.4813 150.638 30.188C149.955 29.8947 149.371 29.4867 148.886 28.964C148.4 28.4413 148.027 27.8173 147.766 27.092C147.51 26.3667 147.382 25.5747 147.382 24.716C147.382 23.8467 147.52 23.052 147.798 22.332C148.075 21.6067 148.464 20.9827 148.966 20.46C149.472 19.9373 150.075 19.532 150.774 19.244C151.472 18.9507 152.246 18.804 153.094 18.804C153.936 18.804 154.683 18.9427 155.334 19.22C155.99 19.4973 156.547 19.86 157.006 20.308L156.286 21.308C156.243 21.372 156.187 21.428 156.118 21.476C156.054 21.524 155.963 21.548 155.846 21.548C155.766 21.548 155.683 21.5267 155.598 21.484C155.512 21.436 155.419 21.38 155.318 21.316C155.216 21.2467 155.099 21.172 154.966 21.092C154.832 21.012 154.678 20.94 154.502 20.876C154.326 20.8067 154.12 20.7507 153.886 20.708C153.656 20.66 153.39 20.636 153.086 20.636C152.568 20.636 152.094 20.7293 151.662 20.916C151.235 21.0973 150.867 21.364 150.558 21.716C150.248 22.0627 150.008 22.4893 149.838 22.996C149.667 23.4973 149.582 24.0707 149.582 24.716C149.582 25.3667 149.672 25.9453 149.854 26.452C150.04 26.9587 150.291 27.3853 150.606 27.732C150.92 28.0787 151.291 28.3453 151.718 28.532C152.144 28.7133 152.603 28.804 153.094 28.804C153.387 28.804 153.651 28.788 153.886 28.756C154.126 28.724 154.344 28.6733 154.542 28.604C154.744 28.5347 154.934 28.4467 155.11 28.34C155.291 28.228 155.47 28.092 155.646 27.932C155.699 27.884 155.755 27.8467 155.814 27.82C155.872 27.788 155.934 27.772 155.998 27.772ZM161.78 22.164C162.388 22.164 162.94 22.2627 163.436 22.46C163.937 22.6573 164.364 22.9373 164.716 23.3C165.073 23.6627 165.348 24.1053 165.54 24.628C165.732 25.1507 165.828 25.7347 165.828 26.38C165.828 27.0307 165.732 27.6173 165.54 28.14C165.348 28.6627 165.073 29.108 164.716 29.476C164.364 29.844 163.937 30.1267 163.436 30.324C162.94 30.5213 162.388 30.62 161.78 30.62C161.167 30.62 160.609 30.5213 160.108 30.324C159.607 30.1267 159.177 29.844 158.82 29.476C158.468 29.108 158.193 28.6627 157.996 28.14C157.804 27.6173 157.708 27.0307 157.708 26.38C157.708 25.7347 157.804 25.1507 157.996 24.628C158.193 24.1053 158.468 23.6627 158.82 23.3C159.177 22.9373 159.607 22.6573 160.108 22.46C160.609 22.2627 161.167 22.164 161.78 22.164ZM161.78 29.1C162.463 29.1 162.967 28.8707 163.292 28.412C163.623 27.9533 163.788 27.2813 163.788 26.396C163.788 25.5107 163.623 24.836 163.292 24.372C162.967 23.908 162.463 23.676 161.78 23.676C161.087 23.676 160.572 23.9107 160.236 24.38C159.905 24.844 159.74 25.516 159.74 26.396C159.74 27.276 159.905 27.948 160.236 28.412C160.572 28.8707 161.087 29.1 161.78 29.1ZM169.183 23.3C169.349 23.1347 169.522 22.9827 169.703 22.844C169.89 22.7 170.085 22.58 170.287 22.484C170.495 22.3827 170.717 22.3053 170.951 22.252C171.186 22.1933 171.442 22.164 171.719 22.164C172.167 22.164 172.565 22.2413 172.911 22.396C173.258 22.5453 173.546 22.7587 173.775 23.036C174.01 23.308 174.186 23.636 174.303 24.02C174.426 24.3987 174.487 24.8173 174.487 25.276V30.5H172.511V25.276C172.511 24.7747 172.397 24.388 172.167 24.116C171.938 23.8387 171.589 23.7 171.119 23.7C170.778 23.7 170.458 23.7773 170.159 23.932C169.861 24.0867 169.578 24.2973 169.311 24.564V30.5H167.335V22.292H168.543C168.799 22.292 168.967 22.412 169.047 22.652L169.183 23.3ZM176.81 30.5V23.78L176.098 23.668C175.943 23.636 175.818 23.5827 175.722 23.508C175.631 23.428 175.586 23.316 175.586 23.172V22.364H176.81V22.1C176.81 21.5987 176.893 21.1347 177.058 20.708C177.223 20.276 177.474 19.9027 177.81 19.588C178.146 19.2733 178.57 19.028 179.082 18.852C179.599 18.6707 180.207 18.58 180.906 18.58C181.13 18.58 181.357 18.5933 181.586 18.62C181.821 18.6413 182.023 18.6787 182.194 18.732L182.13 19.756C182.119 19.8787 182.053 19.9533 181.93 19.98C181.807 20.0013 181.655 20.012 181.474 20.012C180.957 20.012 180.522 20.0573 180.17 20.148C179.823 20.2387 179.541 20.3747 179.322 20.556C179.109 20.732 178.954 20.956 178.858 21.228C178.767 21.4947 178.722 21.8067 178.722 22.164V22.364H183.81V30.5H181.834V23.772H178.786V30.5H176.81ZM187.699 23.716C187.955 23.2253 188.259 22.8413 188.611 22.564C188.963 22.2813 189.379 22.14 189.859 22.14C190.238 22.14 190.542 22.2227 190.771 22.388L190.643 23.868C190.617 23.964 190.577 24.0333 190.523 24.076C190.475 24.1133 190.409 24.132 190.323 24.132C190.243 24.132 190.123 24.1187 189.963 24.092C189.809 24.0653 189.657 24.052 189.507 24.052C189.289 24.052 189.094 24.084 188.923 24.148C188.753 24.212 188.598 24.3053 188.459 24.428C188.326 24.5453 188.206 24.6893 188.099 24.86C187.998 25.0307 187.902 25.2253 187.811 25.444V30.5H185.835V22.292H186.995C187.198 22.292 187.339 22.3293 187.419 22.404C187.499 22.4733 187.553 22.6013 187.579 22.788L187.699 23.716ZM191.804 30.5V22.292H193.012C193.268 22.292 193.436 22.412 193.516 22.652L193.644 23.26C193.788 23.1 193.937 22.9533 194.092 22.82C194.252 22.6867 194.42 22.572 194.596 22.476C194.777 22.38 194.969 22.3053 195.172 22.252C195.38 22.1933 195.607 22.164 195.852 22.164C196.369 22.164 196.793 22.3053 197.124 22.588C197.46 22.8653 197.711 23.236 197.876 23.7C198.004 23.428 198.164 23.196 198.356 23.004C198.548 22.8067 198.759 22.6467 198.988 22.524C199.217 22.4013 199.46 22.3107 199.716 22.252C199.977 22.1933 200.239 22.164 200.5 22.164C200.953 22.164 201.356 22.2333 201.708 22.372C202.06 22.5107 202.356 22.7133 202.596 22.98C202.836 23.2467 203.017 23.572 203.14 23.956C203.268 24.34 203.332 24.78 203.332 25.276V30.5H201.356V25.276C201.356 24.7533 201.241 24.3613 201.012 24.1C200.783 23.8333 200.447 23.7 200.004 23.7C199.801 23.7 199.612 23.7347 199.436 23.804C199.265 23.8733 199.113 23.9747 198.98 24.108C198.852 24.236 198.751 24.3987 198.676 24.596C198.601 24.7933 198.564 25.02 198.564 25.276V30.5H196.58V25.276C196.58 24.7267 196.468 24.3267 196.244 24.076C196.025 23.8253 195.703 23.7 195.276 23.7C194.988 23.7 194.719 23.772 194.468 23.916C194.223 24.0547 193.993 24.2467 193.78 24.492V30.5H191.804Z" fill="#21034F"/>
<defs>
<clipPath id="clip0_13489_18568">
<rect width="20" height="20" fill="white" transform="translate(110.5 14)"/>
</clipPath>
</defs>
</svg>
