<svg width="315" height="48" viewBox="0 0 315 48" fill="none" xmlns="http://www.w3.org/2000/svg">
<rect width="315" height="48" rx="24" fill="#D4B0FF"/>
<g clip-path="url(#clip0_13891_746)">
<path d="M105.667 32.3332C106.127 32.3332 106.5 31.9601 106.5 31.4998C106.5 31.0396 106.127 30.6665 105.667 30.6665C105.206 30.6665 104.833 31.0396 104.833 31.4998C104.833 31.9601 105.206 32.3332 105.667 32.3332Z" stroke="#21034F" stroke-width="1.5" stroke-linecap="round" stroke-linejoin="round"/>
<path d="M96.5 32.3332C96.9602 32.3332 97.3333 31.9601 97.3333 31.4998C97.3333 31.0396 96.9602 30.6665 96.5 30.6665C96.0398 30.6665 95.6667 31.0396 95.6667 31.4998C95.6667 31.9601 96.0398 32.3332 96.5 32.3332Z" stroke="#21034F" stroke-width="1.5" stroke-linecap="round" stroke-linejoin="round"/>
<path d="M89.8333 14.8335H93.1667L95.4 25.9918C95.4762 26.3755 95.6849 26.7201 95.9896 26.9654C96.2943 27.2107 96.6756 27.341 97.0667 27.3335H105.167C105.558 27.341 105.939 27.2107 106.244 26.9654C106.548 26.7201 106.757 26.3755 106.833 25.9918L108.167 19.0002H94" stroke="#21034F" stroke-width="1.5" stroke-linecap="round" stroke-linejoin="round"/>
</g>
<path d="M130.819 28.82C131.219 28.82 131.555 28.772 131.827 28.676C132.099 28.58 132.315 28.452 132.475 28.292C132.64 28.132 132.758 27.9453 132.827 27.732C132.902 27.5187 132.939 27.292 132.939 27.052C132.939 26.8013 132.899 26.5773 132.819 26.38C132.739 26.1773 132.614 26.0067 132.443 25.868C132.272 25.724 132.051 25.6147 131.779 25.54C131.512 25.4653 131.19 25.428 130.811 25.428H128.643V28.82H130.819ZM128.643 20.596V23.94H130.355C131.091 23.94 131.646 23.8067 132.019 23.54C132.398 23.2733 132.587 22.8493 132.587 22.268C132.587 21.6653 132.416 21.236 132.075 20.98C131.734 20.724 131.2 20.596 130.475 20.596H128.643ZM130.475 18.932C131.232 18.932 131.88 19.004 132.419 19.148C132.958 19.292 133.398 19.4973 133.739 19.764C134.086 20.0307 134.339 20.3533 134.499 20.732C134.659 21.1107 134.739 21.5373 134.739 22.012C134.739 22.284 134.699 22.5453 134.619 22.796C134.539 23.0413 134.414 23.2733 134.243 23.492C134.078 23.7053 133.864 23.9 133.603 24.076C133.347 24.252 133.04 24.4013 132.683 24.524C134.272 24.8813 135.067 25.74 135.067 27.1C135.067 27.5907 134.974 28.044 134.787 28.46C134.6 28.876 134.328 29.236 133.971 29.54C133.614 29.8387 133.174 30.0733 132.651 30.244C132.128 30.4147 131.531 30.5 130.859 30.5H126.491V18.932H130.475ZM138.418 23.716C138.674 23.2253 138.978 22.8413 139.33 22.564C139.682 22.2813 140.098 22.14 140.578 22.14C140.957 22.14 141.261 22.2227 141.49 22.388L141.362 23.868C141.335 23.964 141.295 24.0333 141.242 24.076C141.194 24.1133 141.127 24.132 141.042 24.132C140.962 24.132 140.842 24.1187 140.682 24.092C140.527 24.0653 140.375 24.052 140.226 24.052C140.007 24.052 139.813 24.084 139.642 24.148C139.471 24.212 139.317 24.3053 139.178 24.428C139.045 24.5453 138.925 24.6893 138.818 24.86C138.717 25.0307 138.621 25.2253 138.53 25.444V30.5H136.554V22.292H137.714C137.917 22.292 138.058 22.3293 138.138 22.404C138.218 22.4733 138.271 22.6013 138.298 22.788L138.418 23.716ZM145.921 22.164C146.529 22.164 147.081 22.2627 147.577 22.46C148.078 22.6573 148.505 22.9373 148.857 23.3C149.214 23.6627 149.488 24.1053 149.681 24.628C149.873 25.1507 149.969 25.7347 149.969 26.38C149.969 27.0307 149.873 27.6173 149.681 28.14C149.488 28.6627 149.214 29.108 148.857 29.476C148.505 29.844 148.078 30.1267 147.577 30.324C147.081 30.5213 146.529 30.62 145.921 30.62C145.307 30.62 144.75 30.5213 144.249 30.324C143.747 30.1267 143.318 29.844 142.961 29.476C142.609 29.108 142.334 28.6627 142.137 28.14C141.945 27.6173 141.849 27.0307 141.849 26.38C141.849 25.7347 141.945 25.1507 142.137 24.628C142.334 24.1053 142.609 23.6627 142.961 23.3C143.318 22.9373 143.747 22.6573 144.249 22.46C144.75 22.2627 145.307 22.164 145.921 22.164ZM145.921 29.1C146.603 29.1 147.107 28.8707 147.433 28.412C147.763 27.9533 147.929 27.2813 147.929 26.396C147.929 25.5107 147.763 24.836 147.433 24.372C147.107 23.908 146.603 23.676 145.921 23.676C145.227 23.676 144.713 23.9107 144.377 24.38C144.046 24.844 143.881 25.516 143.881 26.396C143.881 27.276 144.046 27.948 144.377 28.412C144.713 28.8707 145.227 29.1 145.921 29.1ZM163.055 22.292L160.447 30.5H158.863C158.682 30.5 158.557 30.3827 158.487 30.148L157.015 25.404C156.967 25.244 156.922 25.0867 156.879 24.932C156.842 24.772 156.81 24.612 156.783 24.452C156.751 24.612 156.714 24.7747 156.671 24.94C156.634 25.1 156.591 25.26 156.543 25.42L155.047 30.148C154.983 30.3827 154.842 30.5 154.623 30.5H153.103L150.503 22.292H152.079C152.223 22.292 152.346 22.3267 152.447 22.396C152.549 22.4653 152.615 22.5533 152.647 22.66L153.823 27.044C153.882 27.284 153.933 27.5187 153.975 27.748C154.023 27.9773 154.063 28.2067 154.095 28.436C154.154 28.2067 154.215 27.9773 154.279 27.748C154.349 27.5187 154.421 27.284 154.495 27.044L155.855 22.644C155.887 22.5373 155.949 22.4493 156.039 22.38C156.135 22.3107 156.25 22.276 156.383 22.276H157.255C157.394 22.276 157.511 22.3107 157.607 22.38C157.709 22.4493 157.775 22.5373 157.807 22.644L159.127 27.044C159.197 27.284 159.261 27.5213 159.319 27.756C159.383 27.9853 159.445 28.2147 159.503 28.444C159.573 27.9907 159.671 27.524 159.799 27.044L161.007 22.66C161.045 22.5533 161.111 22.4653 161.207 22.396C161.303 22.3267 161.418 22.292 161.551 22.292H163.055ZM169.093 23.892C169.04 23.9773 168.984 24.0387 168.925 24.076C168.867 24.108 168.792 24.124 168.701 24.124C168.605 24.124 168.501 24.0973 168.389 24.044C168.283 23.9907 168.157 23.932 168.013 23.868C167.869 23.7987 167.704 23.7373 167.517 23.684C167.336 23.6307 167.12 23.604 166.869 23.604C166.48 23.604 166.173 23.6867 165.949 23.852C165.731 24.0173 165.621 24.2333 165.621 24.5C165.621 24.676 165.677 24.8253 165.789 24.948C165.907 25.0653 166.059 25.1693 166.245 25.26C166.437 25.3507 166.653 25.4333 166.893 25.508C167.133 25.5773 167.376 25.6547 167.621 25.74C167.872 25.8253 168.117 25.924 168.357 26.036C168.597 26.1427 168.811 26.2813 168.997 26.452C169.189 26.6173 169.341 26.8173 169.453 27.052C169.571 27.2867 169.629 27.5693 169.629 27.9C169.629 28.2947 169.557 28.66 169.413 28.996C169.275 29.3267 169.067 29.6147 168.789 29.86C168.512 30.1 168.168 30.2893 167.757 30.428C167.352 30.5613 166.883 30.628 166.349 30.628C166.067 30.628 165.789 30.6013 165.517 30.548C165.251 30.5 164.992 30.4307 164.741 30.34C164.496 30.2493 164.267 30.1427 164.053 30.02C163.845 29.8973 163.661 29.764 163.501 29.62L163.957 28.868C164.016 28.7773 164.085 28.708 164.165 28.66C164.245 28.612 164.347 28.588 164.469 28.588C164.592 28.588 164.707 28.6227 164.813 28.692C164.925 28.7613 165.053 28.836 165.197 28.916C165.341 28.996 165.509 29.0707 165.701 29.14C165.899 29.2093 166.147 29.244 166.445 29.244C166.68 29.244 166.88 29.2173 167.045 29.164C167.216 29.1053 167.355 29.0307 167.461 28.94C167.573 28.8493 167.653 28.7453 167.701 28.628C167.755 28.5053 167.781 28.38 167.781 28.252C167.781 28.06 167.723 27.9027 167.605 27.78C167.493 27.6573 167.341 27.5507 167.149 27.46C166.963 27.3693 166.747 27.2893 166.501 27.22C166.261 27.1453 166.013 27.0653 165.757 26.98C165.507 26.8947 165.259 26.796 165.013 26.684C164.773 26.5667 164.557 26.42 164.365 26.244C164.179 26.068 164.027 25.852 163.909 25.596C163.797 25.34 163.741 25.0307 163.741 24.668C163.741 24.332 163.808 24.012 163.941 23.708C164.075 23.404 164.269 23.14 164.525 22.916C164.787 22.6867 165.109 22.5053 165.493 22.372C165.883 22.2333 166.331 22.164 166.837 22.164C167.403 22.164 167.917 22.2573 168.381 22.444C168.845 22.6307 169.232 22.876 169.541 23.18L169.093 23.892ZM176.405 25.452C176.405 25.196 176.367 24.956 176.293 24.732C176.223 24.5027 176.117 24.3027 175.973 24.132C175.829 23.9613 175.645 23.828 175.421 23.732C175.202 23.6307 174.946 23.58 174.653 23.58C174.082 23.58 173.631 23.7427 173.301 24.068C172.975 24.3933 172.767 24.8547 172.677 25.452H176.405ZM172.637 26.644C172.669 27.0653 172.743 27.4307 172.861 27.74C172.978 28.044 173.133 28.2973 173.325 28.5C173.517 28.6973 173.743 28.8467 174.005 28.948C174.271 29.044 174.565 29.092 174.885 29.092C175.205 29.092 175.479 29.0547 175.709 28.98C175.943 28.9053 176.146 28.8227 176.317 28.732C176.493 28.6413 176.645 28.5587 176.773 28.484C176.906 28.4093 177.034 28.372 177.157 28.372C177.322 28.372 177.445 28.4333 177.525 28.556L178.093 29.276C177.874 29.532 177.629 29.748 177.357 29.924C177.085 30.0947 176.799 30.2333 176.501 30.34C176.207 30.4413 175.906 30.5133 175.597 30.556C175.293 30.5987 174.997 30.62 174.709 30.62C174.138 30.62 173.607 30.5267 173.117 30.34C172.626 30.148 172.199 29.868 171.837 29.5C171.474 29.1267 171.189 28.668 170.981 28.124C170.773 27.5747 170.669 26.94 170.669 26.22C170.669 25.66 170.759 25.1347 170.941 24.644C171.122 24.148 171.381 23.7187 171.717 23.356C172.058 22.988 172.471 22.6973 172.957 22.484C173.447 22.2707 173.999 22.164 174.613 22.164C175.13 22.164 175.607 22.2467 176.045 22.412C176.482 22.5773 176.858 22.82 177.173 23.14C177.487 23.4547 177.733 23.844 177.909 24.308C178.09 24.7667 178.181 25.292 178.181 25.884C178.181 26.1827 178.149 26.3853 178.085 26.492C178.021 26.5933 177.898 26.644 177.717 26.644H172.637ZM193.618 18.932V30.5H191.458V25.444H186.026V30.5H183.866V18.932H186.026V23.908H191.458V18.932H193.618ZM199.264 22.164C199.872 22.164 200.424 22.2627 200.92 22.46C201.422 22.6573 201.848 22.9373 202.2 23.3C202.558 23.6627 202.832 24.1053 203.024 24.628C203.216 25.1507 203.312 25.7347 203.312 26.38C203.312 27.0307 203.216 27.6173 203.024 28.14C202.832 28.6627 202.558 29.108 202.2 29.476C201.848 29.844 201.422 30.1267 200.92 30.324C200.424 30.5213 199.872 30.62 199.264 30.62C198.651 30.62 198.094 30.5213 197.592 30.324C197.091 30.1267 196.662 29.844 196.304 29.476C195.952 29.108 195.678 28.6627 195.48 28.14C195.288 27.6173 195.192 27.0307 195.192 26.38C195.192 25.7347 195.288 25.1507 195.48 24.628C195.678 24.1053 195.952 23.6627 196.304 23.3C196.662 22.9373 197.091 22.6573 197.592 22.46C198.094 22.2627 198.651 22.164 199.264 22.164ZM199.264 29.1C199.947 29.1 200.451 28.8707 200.776 28.412C201.107 27.9533 201.272 27.2813 201.272 26.396C201.272 25.5107 201.107 24.836 200.776 24.372C200.451 23.908 199.947 23.676 199.264 23.676C198.571 23.676 198.056 23.9107 197.72 24.38C197.39 24.844 197.224 25.516 197.224 26.396C197.224 27.276 197.39 27.948 197.72 28.412C198.056 28.8707 198.571 29.1 199.264 29.1ZM204.82 30.5V22.292H206.028C206.284 22.292 206.452 22.412 206.532 22.652L206.66 23.26C206.804 23.1 206.953 22.9533 207.108 22.82C207.268 22.6867 207.436 22.572 207.612 22.476C207.793 22.38 207.985 22.3053 208.188 22.252C208.396 22.1933 208.622 22.164 208.868 22.164C209.385 22.164 209.809 22.3053 210.14 22.588C210.476 22.8653 210.726 23.236 210.892 23.7C211.02 23.428 211.18 23.196 211.372 23.004C211.564 22.8067 211.774 22.6467 212.004 22.524C212.233 22.4013 212.476 22.3107 212.732 22.252C212.993 22.1933 213.254 22.164 213.516 22.164C213.969 22.164 214.372 22.2333 214.724 22.372C215.076 22.5107 215.372 22.7133 215.612 22.98C215.852 23.2467 216.033 23.572 216.156 23.956C216.284 24.34 216.348 24.78 216.348 25.276V30.5H214.372V25.276C214.372 24.7533 214.257 24.3613 214.028 24.1C213.798 23.8333 213.462 23.7 213.02 23.7C212.817 23.7 212.628 23.7347 212.452 23.804C212.281 23.8733 212.129 23.9747 211.996 24.108C211.868 24.236 211.766 24.3987 211.692 24.596C211.617 24.7933 211.58 25.02 211.58 25.276V30.5H209.596V25.276C209.596 24.7267 209.484 24.3267 209.26 24.076C209.041 23.8253 208.718 23.7 208.292 23.7C208.004 23.7 207.734 23.772 207.484 23.916C207.238 24.0547 207.009 24.2467 206.796 24.492V30.5H204.82ZM223.514 25.452C223.514 25.196 223.477 24.956 223.402 24.732C223.333 24.5027 223.226 24.3027 223.082 24.132C222.938 23.9613 222.754 23.828 222.53 23.732C222.311 23.6307 222.055 23.58 221.762 23.58C221.191 23.58 220.741 23.7427 220.41 24.068C220.085 24.3933 219.877 24.8547 219.786 25.452H223.514ZM219.746 26.644C219.778 27.0653 219.853 27.4307 219.97 27.74C220.087 28.044 220.242 28.2973 220.434 28.5C220.626 28.6973 220.853 28.8467 221.114 28.948C221.381 29.044 221.674 29.092 221.994 29.092C222.314 29.092 222.589 29.0547 222.818 28.98C223.053 28.9053 223.255 28.8227 223.426 28.732C223.602 28.6413 223.754 28.5587 223.882 28.484C224.015 28.4093 224.143 28.372 224.266 28.372C224.431 28.372 224.554 28.4333 224.634 28.556L225.202 29.276C224.983 29.532 224.738 29.748 224.466 29.924C224.194 30.0947 223.909 30.2333 223.61 30.34C223.317 30.4413 223.015 30.5133 222.706 30.556C222.402 30.5987 222.106 30.62 221.818 30.62C221.247 30.62 220.717 30.5267 220.226 30.34C219.735 30.148 219.309 29.868 218.946 29.5C218.583 29.1267 218.298 28.668 218.09 28.124C217.882 27.5747 217.778 26.94 217.778 26.22C217.778 25.66 217.869 25.1347 218.05 24.644C218.231 24.148 218.49 23.7187 218.826 23.356C219.167 22.988 219.581 22.6973 220.066 22.484C220.557 22.2707 221.109 22.164 221.722 22.164C222.239 22.164 222.717 22.2467 223.154 22.412C223.591 22.5773 223.967 22.82 224.282 23.14C224.597 23.4547 224.842 23.844 225.018 24.308C225.199 24.7667 225.29 25.292 225.29 25.884C225.29 26.1827 225.258 26.3853 225.194 26.492C225.13 26.5933 225.007 26.644 224.826 26.644H219.746Z" fill="#21034F"/>
<defs>
<clipPath id="clip0_13891_746">
<rect width="20" height="20" fill="white" transform="translate(89 14)"/>
</clipPath>
</defs>
</svg>
