<svg width="44" height="44" viewBox="0 0 44 44" fill="none" xmlns="http://www.w3.org/2000/svg">
<path d="M22.0044 43.5625C33.913 43.5625 43.5669 33.9086 43.5669 22C43.5669 10.0914 33.913 0.4375 22.0044 0.4375C10.0958 0.4375 0.441895 10.0914 0.441895 22C0.441895 33.9086 10.0958 43.5625 22.0044 43.5625Z" fill="#0BB719"/>
<path d="M22.0044 43.5625C33.913 43.5625 43.5669 33.9086 43.5669 22C43.5669 10.0914 33.913 0.4375 22.0044 0.4375C10.0958 0.4375 0.441895 10.0914 0.441895 22C0.441895 33.9086 10.0958 43.5625 22.0044 43.5625Z" fill="#0BB719"/>
<path fill-rule="evenodd" clip-rule="evenodd" d="M10.9212 23.0163L18.1087 30.2038C18.6693 30.7659 19.5807 30.7659 20.1413 30.2038L33.0788 17.2663C33.6395 16.7057 33.6395 15.7943 33.0788 15.2337C32.5182 14.6731 31.6068 14.6731 31.0462 15.2337L19.125 27.1549L12.9538 20.9837C12.3932 20.4231 11.4818 20.4231 10.9212 20.9837C10.3606 21.5443 10.3606 22.4557 10.9212 23.0163Z" fill="white"/>
</svg>
