<svg width="38" height="32" viewBox="0 0 38 32" fill="none" xmlns="http://www.w3.org/2000/svg">
<path d="M16.0864 13.2337C16.7042 13.2337 17.205 12.7425 17.205 12.1365C17.205 11.5305 16.7042 11.0393 16.0864 11.0393C15.4686 11.0393 14.9678 11.5305 14.9678 12.1365C14.9678 12.7425 15.4686 13.2337 16.0864 13.2337Z" fill="#4F0099"/>
<path d="M34.5846 13.9077C34.5257 14.22 34.4046 14.5323 34.3369 14.7865C33.8369 16.6869 33.2823 18.5708 32.7579 20.4641C32.3244 22.0271 31.9468 23.6081 31.3303 25.1145C31.0031 25.9142 30.5177 26.6306 29.7742 27.1083C29.6042 27.217 29.4256 27.3103 29.2426 27.3936C29.0338 27.4911 28.8045 27.5675 28.5568 27.6212C28.0137 27.737 27.4431 27.7272 26.9059 27.59C26.1453 27.3977 25.2693 26.9133 25.0877 26.0866C24.9207 25.3237 25.4176 24.244 26.3253 24.2736C26.612 24.2834 26.9304 24.3625 27.1509 24.5619C27.4361 24.8217 27.5832 25.3023 27.3799 25.6656C27.7098 25.8212 28.3076 25.7151 28.6248 25.5329C29.106 25.2603 29.3595 24.7486 29.5468 24.2271L30.2887 21.8629C30.1301 21.8926 29.9588 21.9349 29.8766 21.9477C29.4431 22.017 28.9979 21.9829 28.5786 21.8588C28.0022 21.6863 27.357 21.3219 27.0256 20.8173C26.7057 20.3269 26.6812 19.7293 26.7664 19.1696C26.7794 19.0792 26.7951 18.99 26.8138 18.9012C26.9854 18.0576 27.2518 17.2395 27.4923 16.4129C27.6811 15.7672 27.8696 15.1198 28.0569 14.4727L25.4336 14.8401C24.7192 17.3074 24.0017 19.7732 23.2843 22.2404C22.9018 23.556 22.4841 24.8609 22.0756 26.1687C21.7068 27.3429 21.0398 28.3364 19.8224 28.7957C18.621 29.2493 16.6759 29.0626 15.9817 27.8446C15.705 27.3613 15.6878 26.7281 15.9874 26.2576C16.2886 25.7886 16.9167 25.5257 17.4556 25.6937C17.9945 25.8632 18.3588 26.4807 18.1875 27.0093C18.7192 27.2283 19.353 26.9598 19.7233 26.5287C20.1435 26.0327 20.3063 25.3886 20.4936 24.7847C20.7117 24.081 20.9307 23.3782 21.135 22.6703C21.5558 21.2143 21.9442 19.7495 22.3638 18.2932C22.5167 17.7634 22.6692 17.2333 22.8248 16.702C22.9012 16.4377 22.9789 16.1723 23.0538 15.9065C23.1214 15.6763 23.1994 15.4318 23.2671 15.1758C23.2671 15.1743 23.2743 15.1477 23.2743 15.1432C23.2713 15.1432 23.2598 15.1432 23.2411 15.1462C23.2296 15.1477 23.2136 15.1503 23.1964 15.1533L23.1387 15.1604L23.0378 15.1758L23.0003 15.18C22.9888 15.1829 22.9786 15.1841 22.9659 15.1856C22.9559 15.1871 22.9471 15.1886 22.9372 15.1897C22.2327 15.2887 20.6882 15.5077 20.687 15.5077C20.4217 16.4206 20.1583 17.3335 19.8931 18.2449C19.6756 18.9924 19.4551 19.74 19.2376 20.4875C18.8068 21.9643 18.0117 23.3545 16.2799 23.5426C16.1645 23.5569 16.0494 23.5625 15.9313 23.5625C15.1446 23.5625 14.4245 23.2727 13.8611 22.7939C13.0255 22.0804 12.7461 21.2226 12.7461 20.3183C12.7461 19.4973 12.9766 18.6369 13.2315 17.806C13.3194 17.5234 13.4074 17.2452 13.485 16.9779C13.5297 16.8212 13.5744 16.6671 13.6203 16.51L13.9417 15.4052C14.0499 15.0348 14.3683 14.7607 14.7571 14.7071C15.4715 14.604 16.0521 15.2582 15.8563 15.9394L15.7784 16.2037L15.4543 17.3201C15.3664 17.6238 15.2655 17.9349 15.1718 18.2457C15.1516 18.3151 15.1301 18.3841 15.1114 18.4535C14.9631 18.9806 14.7628 19.5797 14.7598 20.1308C14.7525 20.9151 15.3259 21.6215 16.1687 21.4194C16.7753 21.2739 17.1124 20.7044 17.2707 20.1518C17.3773 19.7859 17.4797 19.4185 17.5849 19.0511C17.706 18.6342 17.8299 18.2203 17.9507 17.806L18.5271 15.8137L19.0255 14.1012L20.567 8.72012C20.567 8.72012 21.3479 6.03241 21.3479 6.02975C21.5524 5.32308 21.8016 4.61938 22.3261 4.07538C22.8475 3.53286 23.5377 3.15419 24.2896 3.02827C25.6396 2.80367 27.8799 3.4253 27.6131 5.14501C27.5122 5.78945 27.0975 6.35449 26.4232 6.35449C26.1381 6.35449 25.8166 6.28664 25.5904 6.09315C25.2965 5.84456 25.1321 5.36693 25.3239 5.00101C24.9898 4.85701 24.3962 4.98264 24.0851 5.17197C23.7495 5.37701 23.5377 5.73997 23.3936 6.08901C22.5118 8.21286 21.9832 11.1619 21.3147 13.3492C21.3047 13.3829 21.2153 13.7927 21.1851 13.7957L23.1906 13.5115C23.1906 13.5115 23.7712 13.4283 23.7739 13.4283L24.65 10.3409L24.6775 10.2377C24.8678 9.64723 25.114 9.07775 25.5535 8.61967C25.8517 8.31034 26.206 8.05315 26.5936 7.86501C26.886 7.72515 27.2002 7.62352 27.5258 7.5696C28.8786 7.34352 31.1288 7.96249 30.8608 9.69197C30.7599 10.3391 30.3406 10.9059 29.6679 10.9059C29.3812 10.9059 29.0571 10.838 28.8308 10.646C28.5369 10.396 28.3714 9.91538 28.5629 9.54678C28.2273 9.40397 27.6337 9.52989 27.3195 9.72071C26.9984 9.91864 26.7893 10.2591 26.6437 10.5969C26.6365 10.6111 26.6308 10.6265 26.6235 10.6407C26.3785 11.2342 26.0529 12.5089 25.9003 13.1278L28.5568 12.7506L29.689 12.5909C30.1718 12.5216 30.5636 12.964 30.431 13.4217L30.2162 14.1592C29.7954 15.6034 29.3244 17.0446 28.9541 18.5015C28.8604 18.8223 28.7798 19.2306 28.9671 19.5429C29.3646 20.2001 30.4394 20.1038 30.8472 19.5189C31.0502 19.2265 31.1339 18.8662 31.2493 18.534C31.7882 16.9868 31.9438 16.054 32.4002 14.4828L32.7244 13.372C32.831 13.006 33.1464 12.7361 33.5297 12.681C33.537 12.6795 33.55 12.678 33.5599 12.678C33.9085 12.678 34.191 12.7346 34.4272 13.0114C34.6375 13.2573 34.6447 13.5823 34.5843 13.9074L34.5846 13.9077Z" fill="#4F0099"/>
<path d="M14.0756 8.16763L13.9517 8.59282L13.662 9.59045L13.2599 10.9697L13.1189 11.453L13.0772 11.5984L12.5757 13.3238C11.7864 16.0284 11.0327 18.7442 10.2143 21.4417C10.0573 21.9576 9.89896 22.4746 9.73735 22.989C9.36699 24.1733 8.69577 25.1736 7.46689 25.637C6.25523 26.0947 4.29592 25.9054 3.59599 24.679C3.31929 24.1916 3.30056 23.5543 3.60324 23.0793C3.90593 22.6059 4.53819 22.3419 5.08134 22.5113C5.62448 22.6823 5.99182 23.3054 5.82174 23.8382C6.35613 24.0586 6.99594 23.7872 7.3675 23.3534C7.72608 22.935 7.92636 22.4067 8.08072 21.8879C8.94227 18.9786 9.74913 16.0547 10.5614 13.1312C10.6925 12.6607 10.8236 12.1902 10.9575 11.7196C10.9862 11.615 11.0152 11.509 11.0454 11.4047C11.0928 11.2367 11.139 11.0699 11.1864 10.9016C11.2771 10.575 11.394 10.2376 11.4644 9.88852C10.9327 9.94926 10.8306 9.96763 10.2267 10.0396C9.45611 10.13 8.83502 9.43341 9.0483 8.70008C9.1649 8.30008 9.50927 8.00349 9.93128 7.94423C10.4385 7.87223 10.9469 7.80437 11.4556 7.73504L11.7293 7.69682C12.1888 7.63311 12.6497 7.57119 13.108 7.50334L13.2983 7.47637C13.2983 7.47637 14.1626 7.40141 14.075 8.16734L14.0756 8.16763Z" fill="#4F0099"/>
<path d="M11.0455 11.405C11.0153 11.5096 10.9863 11.6157 10.9576 11.72H10.9561C10.9863 11.6139 11.0165 11.5093 11.0455 11.405Z" fill="#4F0099"/>
</svg>
