<svg width="24" height="24" viewBox="0 0 24 24" fill="none" xmlns="http://www.w3.org/2000/svg">
<path d="M18.02 11.8002V8.91016C18.02 5.61016 15.32 2.91016 12.02 2.91016C8.71003 2.91016 6.02003 5.60016 6.02003 8.91016V11.8002C6.02003 12.4102 5.76003 13.3402 5.45003 13.8602L4.30003 15.7702C3.59003 16.9502 4.08003 18.2602 5.38003 18.7002C9.69003 20.1402 14.34 20.1402 18.65 18.7002C19.86 18.3002 20.39 16.8702 19.73 15.7702" stroke="#4F0099" stroke-width="1.5" stroke-miterlimit="10" stroke-linecap="round"/>
<path d="M13.8699 3.19945C13.5599 3.10945 13.2399 3.03945 12.9099 2.99945C11.9499 2.87945 11.0299 2.94945 10.1699 3.19945C10.4599 2.45945 11.1799 1.93945 12.0199 1.93945C12.8599 1.93945 13.5799 2.45945 13.8699 3.19945Z" stroke="#4F0099" stroke-width="1.5" stroke-miterlimit="10" stroke-linecap="round" stroke-linejoin="round"/>
<path d="M15.02 19.0605C15.02 20.7105 13.67 22.0605 12.02 22.0605C11.2 22.0605 10.44 21.7205 9.90002 21.1805C9.36002 20.6405 9.02002 19.8805 9.02002 19.0605" stroke="#4F0099" stroke-width="1.5" stroke-miterlimit="10"/>
</svg>
