<svg width="22" height="22" viewBox="0 0 22 22" fill="none" xmlns="http://www.w3.org/2000/svg">
<path d="M4.35427 12.8058C4.22594 14.3 5.40843 15.5833 6.91176 15.5833H16.6743C17.9943 15.5833 19.1493 14.5016 19.2501 13.1908L19.7451 6.31582C19.8551 4.79415 18.7001 3.55664 17.1693 3.55664H5.33511" stroke="#4F0099" stroke-width="1.5" stroke-miterlimit="10" stroke-linecap="round" stroke-linejoin="round"/>
<path d="M1.83325 1.8335H3.42826C4.41826 1.8335 5.19742 2.686 5.11492 3.66683L4.65659 9.21265" stroke="#4F0099" stroke-width="1.5" stroke-miterlimit="10" stroke-linecap="round" stroke-linejoin="round"/>
<path d="M14.8958 20.1667C15.5287 20.1667 16.0417 19.6537 16.0417 19.0208C16.0417 18.388 15.5287 17.875 14.8958 17.875C14.263 17.875 13.75 18.388 13.75 19.0208C13.75 19.6537 14.263 20.1667 14.8958 20.1667Z" stroke="#4F0099" stroke-width="1.5" stroke-miterlimit="10" stroke-linecap="round" stroke-linejoin="round"/>
<path d="M7.56258 20.1667C8.19541 20.1667 8.70841 19.6537 8.70841 19.0208C8.70841 18.388 8.19541 17.875 7.56258 17.875C6.92976 17.875 6.41675 18.388 6.41675 19.0208C6.41675 19.6537 6.92976 20.1667 7.56258 20.1667Z" stroke="#4F0099" stroke-width="1.5" stroke-miterlimit="10" stroke-linecap="round" stroke-linejoin="round"/>
<path d="M8.25 7.3335H19.25" stroke="#4F0099" stroke-width="1.5" stroke-miterlimit="10" stroke-linecap="round" stroke-linejoin="round"/>
</svg>
