<svg width="28" height="28" viewBox="0 0 28 28" fill="none" xmlns="http://www.w3.org/2000/svg">
<path d="M22.1899 4.06026C19.9266 1.79693 17.7099 1.7386 15.3883 4.06026L13.9766 5.47193C13.8599 5.5886 13.8133 5.77527 13.8599 5.9386C14.7466 9.03027 17.2199 11.5036 20.3116 12.3903C20.3583 12.4019 20.4049 12.4136 20.4516 12.4136C20.5799 12.4136 20.6966 12.3669 20.7899 12.2736L22.1899 10.8619C23.3449 9.7186 23.9049 8.61027 23.9049 7.49027C23.9166 6.33527 23.3566 5.21527 22.1899 4.06026Z" fill="#4F0099"/>
<path d="M18.2117 13.4519C17.8734 13.2886 17.5467 13.1253 17.2317 12.9386C16.975 12.7869 16.73 12.6236 16.485 12.4486C16.2867 12.3203 16.0534 12.1336 15.8317 11.9469C15.8084 11.9353 15.7267 11.8653 15.6334 11.7719C15.2484 11.4453 14.8167 11.0253 14.4317 10.5586C14.3967 10.5353 14.3384 10.4536 14.2567 10.3486C14.14 10.2086 13.9417 9.97526 13.7667 9.70693C13.6267 9.53193 13.4634 9.27526 13.3117 9.01859C13.125 8.70359 12.9617 8.38859 12.7984 8.06193C12.7548 7.9686 12.7138 7.8761 12.6747 7.78465C12.5317 7.44937 12.0963 7.35237 11.8385 7.61012L5.06338 14.3853C4.91171 14.5369 4.77171 14.8286 4.73671 15.0269L4.10671 19.4953C3.99005 20.2886 4.21171 21.0353 4.70171 21.5369C5.12171 21.9453 5.70505 22.1669 6.33505 22.1669C6.47505 22.1669 6.61505 22.1553 6.75505 22.1319L11.235 21.5019C11.445 21.4669 11.7367 21.3269 11.8767 21.1753L18.6447 14.4073C18.9042 14.1477 18.806 13.7032 18.4675 13.5611C18.384 13.5261 18.2989 13.4897 18.2117 13.4519Z" fill="#4F0099"/>
</svg>
