<svg width="34" height="34" viewBox="0 0 34 34" fill="none" xmlns="http://www.w3.org/2000/svg">
<path d="M28.3899 9.66205L20.2299 3.95288C18.0058 2.39455 14.5916 2.47955 12.4524 4.13705L5.35492 9.67621C3.93826 10.7812 2.81909 13.0479 2.81909 14.8329V24.6079C2.81909 28.2204 5.75159 31.167 9.36409 31.167H24.6358C28.2483 31.167 31.1808 28.2345 31.1808 24.622V15.017C31.1808 13.1045 29.9483 10.7529 28.3899 9.66205ZM18.0624 25.5004C18.0624 26.0812 17.5808 26.5629 16.9999 26.5629C16.4191 26.5629 15.9374 26.0812 15.9374 25.5004V21.2504C15.9374 20.6695 16.4191 20.1879 16.9999 20.1879C17.5808 20.1879 18.0624 20.6695 18.0624 21.2504V25.5004Z" fill="#4F0099"/>
</svg>
