<svg width="36" height="36" viewBox="0 0 36 36" fill="none" xmlns="http://www.w3.org/2000/svg">
<path d="M31.6351 10.4703C30.3601 9.06027 28.2301 8.35527 25.1401 8.35527H24.7801V8.29527C24.7801 5.77527 24.7801 2.65527 19.1401 2.65527H16.8601C11.2201 2.65527 11.2201 5.79027 11.2201 8.29527V8.37027H10.8601C7.75506 8.37027 5.64006 9.07527 4.36506 10.4853C2.88006 12.1353 2.92506 14.3553 3.07506 15.8703L3.09006 15.9753L3.21751 17.3136C3.23178 17.4633 3.31224 17.5984 3.43795 17.6811C3.77524 17.9028 4.46336 18.3499 4.86006 18.5703C5.07006 18.7053 5.29506 18.8253 5.52006 18.9453C8.08506 20.3553 10.9051 21.3003 13.7701 21.7653C13.9051 23.1753 14.5201 24.8253 17.8051 24.8253C21.0901 24.8253 21.7351 23.1903 21.8401 21.7353C24.9001 21.2403 27.8551 20.1753 30.5251 18.6153C30.6151 18.5703 30.6751 18.5253 30.7501 18.4803C31.3765 18.1262 32.0276 17.6856 32.6137 17.2595C32.7264 17.1775 32.7988 17.0515 32.8142 16.913L32.8501 16.5903L32.9251 15.8853C32.9401 15.7953 32.9401 15.7203 32.9551 15.6153C33.0751 14.1003 33.0451 12.0303 31.6351 10.4703ZM19.6351 20.7453C19.6351 22.3353 19.6351 22.5753 17.7901 22.5753C15.9451 22.5753 15.9451 22.2903 15.9451 20.7603V18.8703H19.6351V20.7453ZM13.3651 8.35527V8.29527C13.3651 5.74527 13.3651 4.80027 16.8601 4.80027H19.1401C22.6351 4.80027 22.6351 5.76027 22.6351 8.29527V8.37027H13.3651V8.35527Z" fill="#4F0099"/>
<path d="M31.7157 20.4073C32.0685 20.2374 32.4743 20.5178 32.4389 20.9078L31.86 27.2851C31.545 30.2851 30.315 33.3451 23.715 33.3451H12.285C5.68501 33.3451 4.45501 30.2851 4.14001 27.3001L3.5893 21.2422C3.55426 20.8568 3.95032 20.5765 4.30227 20.7375C5.90334 21.4702 9.5496 23.0872 11.6449 23.6083C11.8098 23.6493 11.9447 23.7671 12.0126 23.9228C12.8964 25.95 14.8937 27.0301 17.805 27.0301C20.6875 27.0301 22.7114 25.9084 23.5973 23.878C23.6653 23.7222 23.8005 23.6044 23.9654 23.5633C26.1862 23.0098 30.0484 21.21 31.7157 20.4073Z" fill="#4F0099"/>
</svg>
