<svg width="29" height="31" viewBox="0 0 29 31" fill="none" xmlns="http://www.w3.org/2000/svg">
<path d="M8.56002 7.73925C9.06594 5.72097 11.9341 5.72097 12.44 7.73925L13.1231 10.4644C13.2588 11.0057 13.6145 11.4657 14.1043 11.7333L17.7867 13.7448C19.1751 14.5031 19.175 16.4969 17.7867 17.2552L14.1043 19.2667C13.6145 19.5343 13.2588 19.9943 13.1231 20.5356L12.44 23.2607C11.9341 25.279 9.06594 25.279 8.56002 23.2608L7.87692 20.5356C7.74122 19.9943 7.3855 19.5343 6.89571 19.2667L3.21326 17.2552C1.82495 16.4969 1.82495 14.5031 3.21326 13.7448L6.89571 11.7333C7.3855 11.4657 7.74122 11.0057 7.87692 10.4644L8.56002 7.73925Z" fill="white"/>
<path d="M22.0411 4.23913C22.3238 3.28426 23.6762 3.28426 23.9589 4.23913L24.4921 6.04049C24.5738 6.31626 24.7702 6.54352 25.0312 6.66426L27.0378 7.59239C27.8114 7.9502 27.8114 9.0498 27.0378 9.40761L25.0312 10.3357C24.7702 10.4565 24.5738 10.6837 24.4921 10.9595L23.9589 12.7609C23.6762 13.7157 22.3238 13.7157 22.0411 12.7609L21.5079 10.9595C21.4262 10.6837 21.2298 10.4565 20.9688 10.3357L18.9622 9.40761C18.1886 9.0498 18.1886 7.9502 18.9622 7.59239L20.9688 6.66426C21.2298 6.54352 21.4262 6.31626 21.5079 6.04049L22.0411 4.23913Z" fill="white"/>
<path d="M24.0216 16.627C24.2452 15.5695 25.7548 15.5695 25.9784 16.627L25.9944 16.7028C26.0494 16.963 26.2059 17.1907 26.4292 17.3353L27.7038 18.1606C28.3124 18.5547 28.3124 19.4453 27.7038 19.8394L26.4292 20.6647C26.2059 20.8093 26.0494 21.037 25.9944 21.2972L25.9784 21.373C25.7548 22.4305 24.2452 22.4305 24.0216 21.373L24.0056 21.2972C23.9506 21.037 23.7941 20.8093 23.5708 20.6647L22.2962 19.8394C21.6876 19.4453 21.6876 18.5547 22.2962 18.1606L23.5708 17.3353C23.7941 17.1907 23.9506 16.963 24.0056 16.7028L24.0216 16.627Z" fill="white"/>
</svg>
