<svg width="315" height="48" viewBox="0 0 315 48" fill="none" xmlns="http://www.w3.org/2000/svg">
<rect width="315" height="48" rx="24" fill="#BABABA"/>
<path d="M137.998 27.772C138.115 27.772 138.219 27.8173 138.31 27.908L139.158 28.828C138.688 29.4093 138.11 29.8547 137.422 30.164C136.739 30.4733 135.918 30.628 134.958 30.628C134.099 30.628 133.326 30.4813 132.638 30.188C131.955 29.8947 131.371 29.4867 130.886 28.964C130.4 28.4413 130.027 27.8173 129.766 27.092C129.51 26.3667 129.382 25.5747 129.382 24.716C129.382 23.8467 129.52 23.052 129.798 22.332C130.075 21.6067 130.464 20.9827 130.966 20.46C131.472 19.9373 132.075 19.532 132.774 19.244C133.472 18.9507 134.246 18.804 135.094 18.804C135.936 18.804 136.683 18.9427 137.334 19.22C137.99 19.4973 138.547 19.86 139.006 20.308L138.286 21.308C138.243 21.372 138.187 21.428 138.118 21.476C138.054 21.524 137.963 21.548 137.846 21.548C137.766 21.548 137.683 21.5267 137.598 21.484C137.512 21.436 137.419 21.38 137.318 21.316C137.216 21.2467 137.099 21.172 136.966 21.092C136.832 21.012 136.678 20.94 136.502 20.876C136.326 20.8067 136.12 20.7507 135.886 20.708C135.656 20.66 135.39 20.636 135.086 20.636C134.568 20.636 134.094 20.7293 133.662 20.916C133.235 21.0973 132.867 21.364 132.558 21.716C132.248 22.0627 132.008 22.4893 131.838 22.996C131.667 23.4973 131.582 24.0707 131.582 24.716C131.582 25.3667 131.672 25.9453 131.854 26.452C132.04 26.9587 132.291 27.3853 132.606 27.732C132.92 28.0787 133.291 28.3453 133.718 28.532C134.144 28.7133 134.603 28.804 135.094 28.804C135.387 28.804 135.651 28.788 135.886 28.756C136.126 28.724 136.344 28.6733 136.542 28.604C136.744 28.5347 136.934 28.4467 137.11 28.34C137.291 28.228 137.47 28.092 137.646 27.932C137.699 27.884 137.755 27.8467 137.814 27.82C137.872 27.788 137.934 27.772 137.998 27.772ZM143.78 22.164C144.388 22.164 144.94 22.2627 145.436 22.46C145.937 22.6573 146.364 22.9373 146.716 23.3C147.073 23.6627 147.348 24.1053 147.54 24.628C147.732 25.1507 147.828 25.7347 147.828 26.38C147.828 27.0307 147.732 27.6173 147.54 28.14C147.348 28.6627 147.073 29.108 146.716 29.476C146.364 29.844 145.937 30.1267 145.436 30.324C144.94 30.5213 144.388 30.62 143.78 30.62C143.167 30.62 142.609 30.5213 142.108 30.324C141.607 30.1267 141.177 29.844 140.82 29.476C140.468 29.108 140.193 28.6627 139.996 28.14C139.804 27.6173 139.708 27.0307 139.708 26.38C139.708 25.7347 139.804 25.1507 139.996 24.628C140.193 24.1053 140.468 23.6627 140.82 23.3C141.177 22.9373 141.607 22.6573 142.108 22.46C142.609 22.2627 143.167 22.164 143.78 22.164ZM143.78 29.1C144.463 29.1 144.967 28.8707 145.292 28.412C145.623 27.9533 145.788 27.2813 145.788 26.396C145.788 25.5107 145.623 24.836 145.292 24.372C144.967 23.908 144.463 23.676 143.78 23.676C143.087 23.676 142.572 23.9107 142.236 24.38C141.905 24.844 141.74 25.516 141.74 26.396C141.74 27.276 141.905 27.948 142.236 28.412C142.572 28.8707 143.087 29.1 143.78 29.1ZM151.183 23.3C151.349 23.1347 151.522 22.9827 151.703 22.844C151.89 22.7 152.085 22.58 152.287 22.484C152.495 22.3827 152.717 22.3053 152.951 22.252C153.186 22.1933 153.442 22.164 153.719 22.164C154.167 22.164 154.565 22.2413 154.911 22.396C155.258 22.5453 155.546 22.7587 155.775 23.036C156.01 23.308 156.186 23.636 156.303 24.02C156.426 24.3987 156.487 24.8173 156.487 25.276V30.5H154.511V25.276C154.511 24.7747 154.397 24.388 154.167 24.116C153.938 23.8387 153.589 23.7 153.119 23.7C152.778 23.7 152.458 23.7773 152.159 23.932C151.861 24.0867 151.578 24.2973 151.311 24.564V30.5H149.335V22.292H150.543C150.799 22.292 150.967 22.412 151.047 22.652L151.183 23.3ZM158.81 30.5V23.78L158.098 23.668C157.943 23.636 157.818 23.5827 157.722 23.508C157.631 23.428 157.586 23.316 157.586 23.172V22.364H158.81V22.1C158.81 21.5987 158.893 21.1347 159.058 20.708C159.223 20.276 159.474 19.9027 159.81 19.588C160.146 19.2733 160.57 19.028 161.082 18.852C161.599 18.6707 162.207 18.58 162.906 18.58C163.13 18.58 163.357 18.5933 163.586 18.62C163.821 18.6413 164.023 18.6787 164.194 18.732L164.13 19.756C164.119 19.8787 164.053 19.9533 163.93 19.98C163.807 20.0013 163.655 20.012 163.474 20.012C162.957 20.012 162.522 20.0573 162.17 20.148C161.823 20.2387 161.541 20.3747 161.322 20.556C161.109 20.732 160.954 20.956 160.858 21.228C160.767 21.4947 160.722 21.8067 160.722 22.164V22.364H165.81V30.5H163.834V23.772H160.786V30.5H158.81ZM169.699 23.716C169.955 23.2253 170.259 22.8413 170.611 22.564C170.963 22.2813 171.379 22.14 171.859 22.14C172.238 22.14 172.542 22.2227 172.771 22.388L172.643 23.868C172.617 23.964 172.577 24.0333 172.523 24.076C172.475 24.1133 172.409 24.132 172.323 24.132C172.243 24.132 172.123 24.1187 171.963 24.092C171.809 24.0653 171.657 24.052 171.507 24.052C171.289 24.052 171.094 24.084 170.923 24.148C170.753 24.212 170.598 24.3053 170.459 24.428C170.326 24.5453 170.206 24.6893 170.099 24.86C169.998 25.0307 169.902 25.2253 169.811 25.444V30.5H167.835V22.292H168.995C169.198 22.292 169.339 22.3293 169.419 22.404C169.499 22.4733 169.553 22.6013 169.579 22.788L169.699 23.716ZM173.804 30.5V22.292H175.012C175.268 22.292 175.436 22.412 175.516 22.652L175.644 23.26C175.788 23.1 175.937 22.9533 176.092 22.82C176.252 22.6867 176.42 22.572 176.596 22.476C176.777 22.38 176.969 22.3053 177.172 22.252C177.38 22.1933 177.607 22.164 177.852 22.164C178.369 22.164 178.793 22.3053 179.124 22.588C179.46 22.8653 179.711 23.236 179.876 23.7C180.004 23.428 180.164 23.196 180.356 23.004C180.548 22.8067 180.759 22.6467 180.988 22.524C181.217 22.4013 181.46 22.3107 181.716 22.252C181.977 22.1933 182.239 22.164 182.5 22.164C182.953 22.164 183.356 22.2333 183.708 22.372C184.06 22.5107 184.356 22.7133 184.596 22.98C184.836 23.2467 185.017 23.572 185.14 23.956C185.268 24.34 185.332 24.78 185.332 25.276V30.5H183.356V25.276C183.356 24.7533 183.241 24.3613 183.012 24.1C182.783 23.8333 182.447 23.7 182.004 23.7C181.801 23.7 181.612 23.7347 181.436 23.804C181.265 23.8733 181.113 23.9747 180.98 24.108C180.852 24.236 180.751 24.3987 180.676 24.596C180.601 24.7933 180.564 25.02 180.564 25.276V30.5H178.58V25.276C178.58 24.7267 178.468 24.3267 178.244 24.076C178.025 23.8253 177.703 23.7 177.276 23.7C176.988 23.7 176.719 23.772 176.468 23.916C176.223 24.0547 175.993 24.2467 175.78 24.492V30.5H173.804Z" fill="white"/>
</svg>
