<svg width="16" height="16" viewBox="0 0 16 16" fill="none" xmlns="http://www.w3.org/2000/svg">
<path d="M11.2 6H8.50004V10.1667C8.50004 10.44 8.27337 10.6667 8.00004 10.6667C7.72671 10.6667 7.50004 10.44 7.50004 10.1667V6H4.80004C2.66671 6 1.33337 7.33333 1.33337 9.46667V11.1933C1.33337 13.3333 2.66671 14.6667 4.80004 14.6667H11.1934C13.3267 14.6667 14.66 13.3333 14.66 11.2V9.46667C14.6667 7.33333 13.3334 6 11.2 6Z" fill="white"/>
<path d="M8.49998 3.03996L9.87998 4.41996C9.97998 4.51996 10.1066 4.56663 10.2333 4.56663C10.36 4.56663 10.4866 4.51996 10.5866 4.41996C10.78 4.22663 10.78 3.90663 10.5866 3.71329L8.35331 1.47996C8.15998 1.28663 7.83998 1.28663 7.64664 1.47996L5.41331 3.71329C5.21998 3.90663 5.21998 4.22663 5.41331 4.41996C5.60664 4.61329 5.92664 4.61329 6.11998 4.41996L7.49998 3.03996V5.99996H8.49998V3.03996Z" fill="white"/>
</svg>
