<svg width="18" height="18" viewBox="0 0 18 18" fill="none" xmlns="http://www.w3.org/2000/svg">
<path d="M15.7201 3.82586C16.5301 4.72586 16.6726 6.01586 16.2451 7.83086L15.5101 10.9659C14.8801 13.6734 13.6351 14.7684 11.2951 14.5434C10.9201 14.5134 10.5151 14.4459 10.0801 14.3409L8.82013 14.0409C5.69263 13.2984 4.72513 11.7534 5.46013 8.61836L6.19513 5.47586C6.34513 4.83836 6.52513 4.28336 6.75013 3.82586C7.62763 2.01086 9.12013 1.52336 11.6251 2.11586L12.8776 2.40836" stroke="#292D32" stroke-width="1.5" stroke-linecap="round" stroke-linejoin="round"/>
<path d="M11.2948 14.5417C10.8298 14.8567 10.2448 15.1192 9.53227 15.3517L8.34727 15.7417C5.36977 16.7017 3.80227 15.8992 2.83477 12.9217L1.87477 9.95922C0.914768 6.98172 1.70977 5.40672 4.68727 4.44672L5.87227 4.05672C6.17977 3.95922 6.47227 3.87672 6.74977 3.82422C6.52477 4.28172 6.34477 4.83672 6.19477 5.47422L5.45977 8.61672C4.72477 11.7517 5.69227 13.2967 8.81977 14.0392L10.0798 14.3392C10.5148 14.4442 10.9198 14.5117 11.2948 14.5417Z" stroke="#292D32" stroke-width="1.5" stroke-linecap="round" stroke-linejoin="round"/>
</svg>
