<svg width="31" height="30" viewBox="0 0 31 30" fill="none" xmlns="http://www.w3.org/2000/svg">
<path d="M16.7843 1.55164L16.7844 1.55173L29.9913 14.7518C29.9913 14.7519 29.9914 14.7519 29.9914 14.7519C30.3119 15.0725 30.4874 15.4959 30.4874 15.9432L30.4874 15.9452C30.4883 16.1666 30.4453 16.386 30.3608 16.5906C30.2763 16.7953 30.1521 16.9811 29.9953 17.1374L29.9947 17.138C29.6744 17.4583 29.2511 17.6341 28.7999 17.6341H27.3165H26.8165V18.1341V28.7664H4.17104V18.1341V17.6341H3.67104H2.2184C1.28035 17.6341 0.510569 16.8853 0.500109 15.9649L0.500109 15.9648C0.497547 15.7399 0.540071 15.5168 0.625169 15.3085C0.710268 15.1003 0.836217 14.9113 0.995583 14.7525L0.996187 14.7519L15.0874 0.667552C15.0876 0.667376 15.0877 0.6672 15.0879 0.667024C15.1959 0.560035 15.3418 0.5 15.4938 0.5C15.6458 0.5 15.7917 0.560036 15.8997 0.667027C15.8998 0.667202 15.9 0.667377 15.9002 0.667552L16.7843 1.55164ZM17.4079 27.3055H17.9079V26.8055V19.8328V19.3328H17.4079H13.5797H13.0797V19.8328V26.8055V27.3055H13.5797H17.4079ZM5.63198 16.1732V26.8055V27.3055H6.13198H11.3922H11.8922V26.8055V19.0125C11.8922 18.5333 12.2802 18.1453 12.7594 18.1453H18.2282C18.7074 18.1453 19.0954 18.5333 19.0954 19.0125V26.8055V27.3055H19.5954H24.8556H25.3556V26.8055V16.1732H28.1403H29.3479L28.4937 15.3195L16.6403 3.47295L16.6402 3.47285L15.8508 2.6834L15.4973 2.32999L15.1438 2.68325L2.49732 15.3195L1.64293 16.1732H2.85073H5.63198Z" fill="#777E91" stroke="#353945"/>
</svg>
