<svg width="19" height="19" viewBox="0 0 19 19" fill="none" xmlns="http://www.w3.org/2000/svg">
<path fill-rule="evenodd" clip-rule="evenodd" d="M7.65843 8.82625C7.27562 8.82625 6.97293 9.12375 6.97293 9.5C6.97293 9.8675 7.27562 10.1738 7.65843 10.1738H13V14.3563C13 16.5 11.2284 18.25 9.03834 18.25H4.70276C2.52162 18.25 0.75 16.5088 0.75 14.365V4.64375C0.75 2.49125 2.53052 0.75 4.71166 0.75H9.05614C11.2284 0.75 13 2.49125 13 4.635V8.82625H7.65843ZM16.1764 6.47268L18.7314 9.01893C18.8627 9.15018 18.9327 9.31643 18.9327 9.50018C18.9327 9.67518 18.8627 9.85018 18.7314 9.97268L16.1764 12.5189C16.0452 12.6502 15.8702 12.7202 15.7039 12.7202C15.5289 12.7202 15.3539 12.6502 15.2227 12.5189C14.9602 12.2564 14.9602 11.8277 15.2227 11.5652L16.6227 10.1739H13.0002V8.82643H16.6227L15.2227 7.43518C14.9602 7.17268 14.9602 6.74393 15.2227 6.48143C15.4852 6.21018 15.9139 6.21018 16.1764 6.47268Z" fill="#FF4242"/>
</svg>
