<svg width="54" height="48" viewBox="0 0 54 48" fill="none" xmlns="http://www.w3.org/2000/svg">
<path d="M18.5068 38.9503C18.9438 38.5133 19.4039 37.8002 20.8069 37.8002C22.2099 37.8002 36.6542 37.8002 38.0572 37.8002C39.3338 37.8002 46.3604 30.7506 47.2574 29.7501C48.12 28.7841 51.9495 23.0339 53.0076 20.5499C52.3406 19.6529 50.535 18.9053 48.4075 19.3999C46.3719 19.8714 45.1759 21.3319 43.8074 24L38.5403 26.737" stroke="#370269" stroke-width="2" stroke-miterlimit="10" stroke-linejoin="round"/>
<path d="M25.4062 30.9008C25.4062 30.9008 34.6064 30.9008 35.7565 30.9008C40.3566 30.9008 40.3566 25.1506 35.7565 25.1506C34.6064 25.1506 31.7314 25.1506 28.5343 25.1506C27.5798 25.1506 25.7743 22.8506 24.2562 22.8506C23.5777 22.8506 20.0586 22.8506 18.5061 22.8506C16.9536 22.8506 15.0215 24.1156 13.906 25.1506C12.181 26.8757 9.30591 29.7507 9.30591 29.7507" stroke="#370269" stroke-width="2" stroke-miterlimit="10" stroke-linejoin="round"/>
<path d="M6.997 27.451L1.2478 33.2002L15.0475 46.9999L20.7967 41.2507L6.997 27.451Z" stroke="#370269" stroke-width="2" stroke-miterlimit="10" stroke-linejoin="round"/>
<path d="M7.00586 33.2002L9.30591 35.5002" stroke="#370269" stroke-width="2" stroke-miterlimit="10" stroke-linejoin="round"/>
<path d="M49.5566 19.4004V1H17.356V22.8505" stroke="#370269" stroke-width="2" stroke-miterlimit="10"/>
<path d="M38.0562 1V5.6001H28.856V1" stroke="#370269" stroke-width="2" stroke-miterlimit="10"/>
<path d="M20.8059 18.25H23.106" stroke="#370269" stroke-width="2" stroke-miterlimit="10"/>
<path d="M24.2559 18.25H26.5559" stroke="#370269" stroke-width="2" stroke-miterlimit="10"/>
<path d="M27.7061 18.25H30.0061" stroke="#370269" stroke-width="2" stroke-miterlimit="10"/>
</svg>
