<svg width="19" height="17" viewBox="0 0 19 17" fill="none" xmlns="http://www.w3.org/2000/svg">
<path fill-rule="evenodd" clip-rule="evenodd" d="M14.5478 5.33408H18.25C18.25 2.36152 16.4689 0.625 13.4511 0.625H5.54889C2.53111 0.625 0.75 2.36152 0.75 5.29616V11.7038C0.75 14.6385 2.53111 16.375 5.54889 16.375H13.4511C16.4689 16.375 18.25 14.6385 18.25 11.7038V11.4309H14.5478C12.8296 11.4309 11.4367 10.0728 11.4367 8.39763C11.4367 6.72243 12.8296 5.36441 14.5478 5.36441V5.33408ZM14.5478 6.63838H17.5967C17.9575 6.63838 18.25 6.92357 18.25 7.27536V9.48961C18.2458 9.83969 17.9557 10.1225 17.5967 10.1266H14.6178C13.7479 10.138 12.9873 9.55735 12.79 8.73131C12.6912 8.21853 12.8299 7.68939 13.1689 7.28571C13.508 6.88203 14.0127 6.64509 14.5478 6.63838ZM14.68 8.96639H14.9678C15.3372 8.96639 15.6367 8.67441 15.6367 8.31424C15.6367 7.95408 15.3372 7.6621 14.9678 7.6621H14.68C14.5033 7.66007 14.3332 7.72709 14.2075 7.84819C14.0818 7.96929 14.0111 8.13439 14.0111 8.30666C14.0111 8.66808 14.3093 8.96223 14.68 8.96639ZM4.89556 5.3341H9.83444C10.2039 5.3341 10.5033 5.04212 10.5033 4.68195C10.5033 4.32178 10.2039 4.02981 9.83444 4.02981H4.89556C4.52916 4.02979 4.23093 4.31717 4.22667 4.67437C4.22664 5.03579 4.52488 5.32994 4.89556 5.3341Z" fill="#B1B5C3"/>
</svg>
