<svg width="18" height="18" viewBox="0 0 18 18" fill="none" xmlns="http://www.w3.org/2000/svg">
<path d="M16.1099 8.96284C16.4849 7.91284 15.8099 7.01284 14.6849 7.01284H11.6849C11.2349 7.01284 10.8599 6.63784 10.9349 6.11284L11.3099 3.71284C11.4599 3.03784 11.0099 2.28784 10.3349 2.06284C9.73486 1.83784 8.98486 2.13784 8.68486 2.58784L5.60986 7.16284" stroke="#292D32" stroke-width="1.5" stroke-miterlimit="10" stroke-linecap="round" stroke-linejoin="round"/>
<path d="M5.60986 13.7619L7.93486 15.5619C8.23486 15.8619 8.90986 16.0119 9.35986 16.0119H12.2099C13.1099 16.0119 14.0849 15.3369 14.3099 14.4369L15.2399 11.6094" stroke="#292D32" stroke-width="1.5" stroke-miterlimit="10" stroke-linecap="round" stroke-linejoin="round"/>
<path d="M1.78516 13.7633V6.41328C1.78516 5.36328 2.23516 4.98828 3.28516 4.98828H4.03516C5.08516 4.98828 5.53516 5.36328 5.53516 6.41328V13.7633C5.53516 14.8133 5.08516 15.1883 4.03516 15.1883H3.28516C2.23516 15.1883 1.78516 14.8133 1.78516 13.7633Z" stroke="#292D32" stroke-width="1.5" stroke-linecap="round" stroke-linejoin="round"/>
</svg>
