<svg width="240" height="58" viewBox="0 0 240 58" fill="none" xmlns="http://www.w3.org/2000/svg">
<g filter="url(#filter0_b_13489_17938)">
<rect width="240" height="58" rx="29" fill="white" fill-opacity="0.25"/>
<rect x="0.59" y="0.59" width="238.82" height="56.82" rx="28.41" stroke="white" stroke-width="1.18"/>
<path d="M66.6452 29.75V35.6C65.9119 36.14 65.1286 36.5367 64.2952 36.79C63.4686 37.0367 62.5819 37.16 61.6352 37.16C60.4552 37.16 59.3852 36.9767 58.4252 36.61C57.4719 36.2433 56.6552 35.7333 55.9752 35.08C55.3019 34.4267 54.7819 33.6467 54.4152 32.74C54.0486 31.8333 53.8652 30.8433 53.8652 29.77C53.8652 28.6833 54.0419 27.6867 54.3952 26.78C54.7486 25.8733 55.2486 25.0933 55.8952 24.44C56.5486 23.7867 57.3386 23.28 58.2652 22.92C59.1919 22.56 60.2319 22.38 61.3852 22.38C61.9719 22.38 62.5186 22.4267 63.0252 22.52C63.5386 22.6133 64.0119 22.7433 64.4452 22.91C64.8852 23.07 65.2852 23.2667 65.6452 23.5C66.0052 23.7333 66.3352 23.99 66.6352 24.27L65.8652 25.49C65.7452 25.6833 65.5886 25.8033 65.3952 25.85C65.2019 25.89 64.9919 25.84 64.7652 25.7C64.5452 25.5733 64.3252 25.4467 64.1052 25.32C63.8852 25.1933 63.6386 25.0833 63.3652 24.99C63.0986 24.8967 62.7952 24.82 62.4552 24.76C62.1219 24.7 61.7352 24.67 61.2952 24.67C60.5819 24.67 59.9352 24.79 59.3552 25.03C58.7819 25.27 58.2919 25.6133 57.8852 26.06C57.4786 26.5067 57.1652 27.0433 56.9452 27.67C56.7252 28.2967 56.6152 28.9967 56.6152 29.77C56.6152 30.5967 56.7319 31.3367 56.9652 31.99C57.2052 32.6367 57.5386 33.1867 57.9652 33.64C58.3986 34.0867 58.9186 34.43 59.5252 34.67C60.1319 34.9033 60.8086 35.02 61.5552 35.02C62.0886 35.02 62.5652 34.9633 62.9852 34.85C63.4052 34.7367 63.8152 34.5833 64.2152 34.39V31.77H62.3952C62.2219 31.77 62.0852 31.7233 61.9852 31.63C61.8919 31.53 61.8452 31.41 61.8452 31.27V29.75H66.6452ZM71.937 24.68V28.69H76.997V30.76H71.937V34.85H78.357V37H69.237V22.54H78.357V24.68H71.937ZM90.8409 24.75H86.4809V37H83.7909V24.75H79.4309V22.54H90.8409V24.75ZM109.554 25.17C109.474 25.31 109.387 25.4133 109.294 25.48C109.207 25.54 109.097 25.57 108.964 25.57C108.824 25.57 108.671 25.52 108.504 25.42C108.344 25.3133 108.151 25.1967 107.924 25.07C107.697 24.9433 107.431 24.83 107.124 24.73C106.824 24.6233 106.467 24.57 106.054 24.57C105.681 24.57 105.354 24.6167 105.074 24.71C104.794 24.7967 104.557 24.92 104.364 25.08C104.177 25.24 104.037 25.4333 103.944 25.66C103.851 25.88 103.804 26.1233 103.804 26.39C103.804 26.73 103.897 27.0133 104.084 27.24C104.277 27.4667 104.531 27.66 104.844 27.82C105.157 27.98 105.514 28.1233 105.914 28.25C106.314 28.3767 106.724 28.5133 107.144 28.66C107.564 28.8 107.974 28.9667 108.374 29.16C108.774 29.3467 109.131 29.5867 109.444 29.88C109.757 30.1667 110.007 30.52 110.194 30.94C110.387 31.36 110.484 31.87 110.484 32.47C110.484 33.1233 110.371 33.7367 110.144 34.31C109.924 34.8767 109.597 35.3733 109.164 35.8C108.737 36.22 108.214 36.5533 107.594 36.8C106.974 37.04 106.264 37.16 105.464 37.16C105.004 37.16 104.551 37.1133 104.104 37.02C103.657 36.9333 103.227 36.8067 102.814 36.64C102.407 36.4733 102.024 36.2733 101.664 36.04C101.304 35.8067 100.984 35.5467 100.704 35.26L101.494 33.97C101.561 33.8767 101.647 33.8 101.754 33.74C101.861 33.6733 101.974 33.64 102.094 33.64C102.261 33.64 102.441 33.71 102.634 33.85C102.827 33.9833 103.057 34.1333 103.324 34.3C103.591 34.4667 103.901 34.62 104.254 34.76C104.614 34.8933 105.044 34.96 105.544 34.96C106.311 34.96 106.904 34.78 107.324 34.42C107.744 34.0533 107.954 33.53 107.954 32.85C107.954 32.47 107.857 32.16 107.664 31.92C107.477 31.68 107.227 31.48 106.914 31.32C106.601 31.1533 106.244 31.0133 105.844 30.9C105.444 30.7867 105.037 30.6633 104.624 30.53C104.211 30.3967 103.804 30.2367 103.404 30.05C103.004 29.8633 102.647 29.62 102.334 29.32C102.021 29.02 101.767 28.6467 101.574 28.2C101.387 27.7467 101.294 27.19 101.294 26.53C101.294 26.0033 101.397 25.49 101.604 24.99C101.817 24.49 102.124 24.0467 102.524 23.66C102.924 23.2733 103.417 22.9633 104.004 22.73C104.591 22.4967 105.264 22.38 106.024 22.38C106.877 22.38 107.664 22.5133 108.384 22.78C109.104 23.0467 109.717 23.42 110.224 23.9L109.554 25.17ZM122.931 24.75H118.571V37H115.881V24.75H111.521V22.54H122.931V24.75ZM131.057 31.54L129.297 26.73C129.21 26.5167 129.12 26.2633 129.027 25.97C128.933 25.6767 128.84 25.36 128.747 25.02C128.66 25.36 128.57 25.68 128.477 25.98C128.383 26.2733 128.293 26.53 128.207 26.75L126.457 31.54H131.057ZM135.807 37H133.727C133.493 37 133.303 36.9433 133.157 36.83C133.01 36.71 132.9 36.5633 132.827 36.39L131.747 33.44H125.757L124.677 36.39C124.623 36.5433 124.52 36.6833 124.367 36.81C124.213 36.9367 124.023 37 123.797 37H121.697L127.387 22.54H130.127L135.807 37ZM141.673 29.42C142.18 29.42 142.62 29.3567 142.993 29.23C143.373 29.1033 143.683 28.93 143.923 28.71C144.17 28.4833 144.353 28.2167 144.473 27.91C144.593 27.6033 144.653 27.2667 144.653 26.9C144.653 26.1667 144.41 25.6033 143.923 25.21C143.443 24.8167 142.707 24.62 141.713 24.62H139.993V29.42H141.673ZM148.593 37H146.163C145.703 37 145.37 36.82 145.163 36.46L142.123 31.83C142.01 31.6567 141.883 31.5333 141.743 31.46C141.61 31.3867 141.41 31.35 141.143 31.35H139.993V37H137.303V22.54H141.713C142.693 22.54 143.533 22.6433 144.233 22.85C144.94 23.05 145.517 23.3333 145.963 23.7C146.417 24.0667 146.75 24.5067 146.963 25.02C147.177 25.5267 147.283 26.0867 147.283 26.7C147.283 27.1867 147.21 27.6467 147.063 28.08C146.923 28.5133 146.717 28.9067 146.443 29.26C146.177 29.6133 145.843 29.9233 145.443 30.19C145.05 30.4567 144.6 30.6667 144.093 30.82C144.267 30.92 144.427 31.04 144.573 31.18C144.72 31.3133 144.853 31.4733 144.973 31.66L148.593 37ZM159.884 24.75H155.524V37H152.834V24.75H148.474V22.54H159.884V24.75ZM164.476 24.68V28.69H169.536V30.76H164.476V34.85H170.896V37H161.776V22.54H170.896V24.68H164.476ZM186.12 29.77C186.12 30.83 185.943 31.8033 185.59 32.69C185.237 33.5767 184.74 34.34 184.1 34.98C183.46 35.62 182.69 36.1167 181.79 36.47C180.89 36.8233 179.89 37 178.79 37H173.28V22.54H178.79C179.89 22.54 180.89 22.72 181.79 23.08C182.69 23.4333 183.46 23.93 184.1 24.57C184.74 25.2033 185.237 25.9633 185.59 26.85C185.943 27.7367 186.12 28.71 186.12 29.77ZM183.36 29.77C183.36 28.9767 183.253 28.2667 183.04 27.64C182.833 27.0067 182.53 26.4733 182.13 26.04C181.737 25.6 181.257 25.2633 180.69 25.03C180.13 24.7967 179.497 24.68 178.79 24.68H175.98V34.86H178.79C179.497 34.86 180.13 34.7433 180.69 34.51C181.257 34.2767 181.737 33.9433 182.13 33.51C182.53 33.07 182.833 32.5367 183.04 31.91C183.253 31.2767 183.36 30.5633 183.36 29.77Z" fill="white"/>
</g>
<defs>
<filter id="filter0_b_13489_17938" x="-10" y="-10" width="260" height="78" filterUnits="userSpaceOnUse" color-interpolation-filters="sRGB">
<feFlood flood-opacity="0" result="BackgroundImageFix"/>
<feGaussianBlur in="BackgroundImageFix" stdDeviation="5"/>
<feComposite in2="SourceAlpha" operator="in" result="effect1_backgroundBlur_13489_17938"/>
<feBlend mode="normal" in="SourceGraphic" in2="effect1_backgroundBlur_13489_17938" result="shape"/>
</filter>
</defs>
</svg>
