<svg width="375" height="288" viewBox="0 0 375 288" fill="none" xmlns="http://www.w3.org/2000/svg">
<rect width="1211" height="45" transform="translate(-182.904 243.699) rotate(-11.5856)" fill="#7D7D7D" fill-opacity="0.7"/>
<path d="M-163.037 268.168C-162.944 268.622 -162.83 268.942 -162.694 269.126C-162.558 269.311 -162.357 269.416 -162.09 269.443C-161.826 269.455 -161.412 269.403 -160.848 269.287L-158.285 268.761C-157.392 268.578 -156.735 268.158 -156.314 267.5C-155.894 266.842 -155.697 266.01 -155.724 265.002C-155.734 264.955 -155.698 264.932 -155.616 264.931C-155.522 264.912 -155.47 264.926 -155.46 264.973C-155.335 266.303 -155.185 267.391 -155.012 268.237C-154.986 268.363 -154.99 268.462 -155.024 268.534C-155.062 268.591 -155.151 268.633 -155.292 268.662L-166.154 270.889C-166.186 270.896 -166.211 270.852 -166.23 270.758C-166.249 270.664 -166.243 270.613 -166.212 270.607C-165.616 270.485 -165.193 270.357 -164.943 270.224C-164.677 270.088 -164.519 269.901 -164.47 269.662C-164.425 269.408 -164.45 269.045 -164.546 268.575L-166.778 257.689C-166.874 257.219 -166.992 256.884 -167.131 256.684C-167.27 256.484 -167.489 256.373 -167.787 256.353C-168.073 256.313 -168.513 256.355 -169.109 256.477C-169.14 256.483 -169.166 256.44 -169.185 256.345C-169.204 256.251 -169.198 256.201 -169.167 256.195L-168.01 255.982C-167.345 255.878 -166.809 255.785 -166.401 255.701C-165.963 255.611 -165.417 255.483 -164.765 255.317L-163.642 255.062C-163.595 255.052 -163.561 255.095 -163.542 255.189C-163.523 255.283 -163.537 255.335 -163.584 255.344C-164.164 255.463 -164.585 255.598 -164.848 255.75C-165.098 255.883 -165.254 256.079 -165.316 256.336C-165.365 256.575 -165.341 256.929 -165.245 257.4L-163.037 268.168ZM-137.127 252.321C-137.442 250.785 -138.281 250.157 -139.645 250.437C-139.692 250.446 -139.725 250.404 -139.744 250.31C-139.763 250.216 -139.75 250.164 -139.703 250.154L-138.687 249.971C-138.116 249.886 -137.666 249.81 -137.337 249.743C-137.071 249.688 -136.69 249.594 -136.195 249.46L-135.212 249.234C-135.181 249.227 -135.155 249.271 -135.136 249.365C-135.117 249.459 -135.123 249.509 -135.154 249.516C-136.408 249.773 -136.878 250.67 -136.563 252.206L-135.194 258.883C-134.824 260.685 -135.037 262.199 -135.831 263.423C-136.628 264.632 -137.874 265.41 -139.566 265.757C-140.726 265.995 -141.792 265.976 -142.763 265.702C-143.718 265.424 -144.524 264.919 -145.18 264.188C-145.823 263.438 -146.261 262.499 -146.492 261.371L-148.035 253.847C-148.131 253.377 -148.249 253.042 -148.388 252.841C-148.527 252.641 -148.746 252.531 -149.044 252.51C-149.33 252.471 -149.77 252.512 -150.366 252.634C-150.397 252.641 -150.422 252.597 -150.442 252.503C-150.461 252.409 -150.455 252.359 -150.424 252.352L-149.267 252.14C-148.602 252.036 -148.066 251.942 -147.658 251.859C-147.22 251.769 -146.674 251.641 -146.022 251.474L-144.899 251.22C-144.852 251.21 -144.818 251.252 -144.799 251.346C-144.78 251.44 -144.794 251.492 -144.841 251.502C-145.421 251.621 -145.842 251.756 -146.105 251.908C-146.368 252.06 -146.522 252.263 -146.568 252.517C-146.617 252.756 -146.593 253.11 -146.497 253.581L-145.133 260.234C-144.757 262.068 -144.052 263.394 -143.019 264.211C-141.974 265.009 -140.698 265.254 -139.194 264.946C-137.783 264.656 -136.776 263.993 -136.172 262.954C-135.572 261.9 -135.432 260.589 -135.753 259.022L-137.127 252.321ZM-110.457 259.177C-110.426 259.17 -110.4 259.214 -110.381 259.308C-110.362 259.402 -110.368 259.452 -110.399 259.459C-110.807 259.542 -111.13 259.6 -111.368 259.633L-112.666 259.875L-114.471 260.269C-114.75 260.343 -115.133 260.429 -115.619 260.529C-115.65 260.535 -115.675 260.492 -115.695 260.397C-115.714 260.303 -115.708 260.253 -115.676 260.247C-115.253 260.16 -114.954 260.066 -114.779 259.965C-114.604 259.864 -114.53 259.742 -114.559 259.601C-114.588 259.46 -114.694 259.302 -114.877 259.127L-119.559 254.453L-121.682 259.273C-121.949 259.883 -122.049 260.353 -121.981 260.682C-121.869 261.23 -121.35 261.41 -120.426 261.22C-120.379 261.211 -120.345 261.253 -120.326 261.347C-120.307 261.441 -120.321 261.493 -120.368 261.503C-120.838 261.599 -121.2 261.665 -121.454 261.701L-123.081 262.01L-124.064 262.236C-124.233 262.287 -124.521 262.354 -124.929 262.438C-124.976 262.447 -125.009 262.405 -125.028 262.311C-125.048 262.217 -125.034 262.165 -124.987 262.155C-123.905 261.934 -122.986 261.002 -122.228 259.36L-119.843 254.143L-124.804 249.183C-125.34 248.639 -125.838 248.284 -126.297 248.117C-126.743 247.93 -127.241 247.894 -127.79 248.006C-127.821 248.013 -127.846 247.969 -127.865 247.875C-127.885 247.781 -127.879 247.73 -127.847 247.724L-126.949 247.564C-126.535 247.512 -126.234 247.467 -126.046 247.428C-125.513 247.319 -124.874 247.171 -124.128 246.986L-122.91 246.712C-122.863 246.702 -122.83 246.744 -122.811 246.838C-122.791 246.932 -122.805 246.984 -122.852 246.994C-123.26 247.077 -123.559 247.171 -123.75 247.276C-123.925 247.377 -123.997 247.506 -123.965 247.663C-123.939 247.788 -123.833 247.946 -123.647 248.137L-119.092 252.666L-117.142 248.2C-116.841 247.517 -116.729 246.988 -116.806 246.612C-116.918 246.063 -117.413 245.879 -118.291 246.059C-118.338 246.068 -118.371 246.026 -118.391 245.932C-118.41 245.838 -118.396 245.786 -118.349 245.777L-117.286 245.583C-116.684 245.493 -116.14 245.397 -115.654 245.298C-115.372 245.24 -115.046 245.157 -114.676 245.048L-113.811 244.846C-113.764 244.837 -113.731 244.879 -113.712 244.973C-113.693 245.067 -113.706 245.119 -113.753 245.129C-114.271 245.235 -114.771 245.541 -115.255 246.049C-115.739 246.556 -116.185 247.252 -116.591 248.136L-118.808 252.976L-113.668 258.096C-113.135 258.623 -112.631 258.969 -112.156 259.133C-111.666 259.294 -111.1 259.308 -110.457 259.177ZM-92.6773 243.209C-92.9922 241.673 -93.8315 241.044 -95.1952 241.324C-95.2422 241.334 -95.2753 241.291 -95.2946 241.197C-95.3139 241.103 -95.3 241.051 -95.253 241.042L-94.2372 240.858C-93.6665 240.774 -93.2166 240.698 -92.8874 240.63C-92.621 240.576 -92.2402 240.481 -91.745 240.347L-90.7624 240.121C-90.731 240.115 -90.7057 240.159 -90.6865 240.253C-90.6672 240.347 -90.6732 240.397 -90.7046 240.403C-91.9585 240.66 -92.428 241.557 -92.1131 243.093L-90.7442 249.77C-90.3747 251.573 -90.5871 253.086 -91.3813 254.311C-92.1788 255.519 -93.4239 256.297 -95.1167 256.644C-96.2766 256.882 -97.342 256.864 -98.313 256.589C-99.2682 256.311 -100.074 255.807 -100.73 255.076C-101.374 254.326 -101.811 253.386 -102.043 252.258L-103.585 244.734C-103.682 244.264 -103.799 243.929 -103.938 243.729C-104.077 243.529 -104.296 243.418 -104.594 243.398C-104.88 243.358 -105.321 243.4 -105.916 243.522C-105.948 243.528 -105.973 243.484 -105.992 243.39C-106.011 243.296 -106.005 243.246 -105.974 243.24L-104.817 243.027C-104.152 242.923 -103.616 242.83 -103.209 242.746C-102.77 242.656 -102.225 242.528 -101.573 242.362L-100.449 242.107C-100.402 242.097 -100.369 242.14 -100.349 242.234C-100.33 242.328 -100.344 242.38 -100.391 242.389C-100.971 242.508 -101.392 242.643 -101.655 242.795C-101.918 242.947 -102.072 243.15 -102.118 243.405C-102.167 243.643 -102.144 243.998 -102.047 244.468L-100.683 251.122C-100.307 252.956 -99.6027 254.281 -98.5696 255.098C-97.524 255.897 -96.2488 256.141 -94.7441 255.833C-93.3334 255.544 -92.3262 254.88 -91.7225 253.842C-91.1219 252.787 -90.9823 251.477 -91.3037 249.909L-92.6773 243.209ZM-64.8788 249.833C-64.8475 249.826 -64.8222 249.87 -64.8029 249.964C-64.7836 250.058 -64.7896 250.109 -64.821 250.115L-67.8539 250.737C-68.2458 250.817 -69.119 250.302 -70.4736 249.191C-71.8158 248.062 -73.5007 246.456 -75.5284 244.372C-75.8821 244.559 -76.2941 244.701 -76.7643 244.797C-77.0621 244.858 -77.418 244.915 -77.8319 244.967L-76.6848 250.563C-76.5852 251.049 -76.4658 251.392 -76.3268 251.592C-76.1878 251.792 -75.977 251.904 -75.6945 251.928C-75.3963 251.948 -74.9494 251.897 -74.3538 251.775C-74.3067 251.766 -74.2736 251.808 -74.2543 251.902C-74.235 251.996 -74.2489 252.048 -74.2959 252.057C-74.7818 252.157 -75.1674 252.228 -75.4528 252.27L-77.0799 252.579L-78.6738 252.93C-78.9527 253.004 -79.3508 253.094 -79.868 253.2C-79.8994 253.206 -79.9247 253.162 -79.944 253.068C-79.9633 252.974 -79.9572 252.924 -79.9259 252.918C-79.3303 252.796 -78.8994 252.666 -78.6334 252.53C-78.3705 252.378 -78.2067 252.181 -78.142 251.939C-78.0772 251.697 -78.0931 251.341 -78.1895 250.871L-80.4211 239.986C-80.5175 239.515 -80.6431 239.182 -80.7978 238.985C-80.9368 238.785 -81.1554 238.674 -81.4536 238.654C-81.7394 238.614 -82.18 238.656 -82.7757 238.778C-82.8227 238.787 -82.8558 238.745 -82.8751 238.651C-82.8944 238.557 -82.8805 238.505 -82.8335 238.496L-81.6766 238.283C-81.0119 238.179 -80.4758 238.086 -80.0682 238.002C-79.7861 237.944 -79.5213 237.882 -79.2737 237.815C-79.0261 237.748 -78.8099 237.687 -78.625 237.633C-78.1331 237.483 -77.6834 237.366 -77.2758 237.283C-76.0062 237.023 -74.9736 237.08 -74.1779 237.456C-73.3822 237.832 -72.8896 238.482 -72.7 239.407C-72.5457 240.16 -72.619 240.918 -72.9197 241.682C-73.2236 242.43 -73.6959 243.074 -74.3366 243.614C-72.5962 245.331 -71.1558 246.661 -70.0153 247.603C-68.8781 248.529 -67.9054 249.171 -67.0972 249.528C-66.2923 249.869 -65.5528 249.971 -64.8788 249.833ZM-77.9524 244.379C-77.5477 244.362 -77.0789 244.298 -76.546 244.189C-75.4645 243.967 -74.7352 243.581 -74.3582 243.03C-73.9844 242.463 -73.9083 241.639 -74.13 240.558C-74.596 238.285 -75.785 237.345 -77.6973 237.737C-78.1205 237.824 -78.4338 237.929 -78.6371 238.052C-78.828 238.156 -78.9464 238.336 -78.9923 238.59C-79.0413 238.829 -79.0128 239.207 -78.9068 239.724L-77.9524 244.379ZM-54.4233 245.999C-54.3269 246.469 -54.2076 246.812 -54.0654 247.028C-53.9263 247.228 -53.7156 247.34 -53.433 247.364C-53.1348 247.384 -52.6879 247.334 -52.0923 247.211C-52.0453 247.202 -52.0121 247.244 -51.9929 247.338C-51.9736 247.432 -51.9875 247.484 -52.0345 247.494C-52.5047 247.59 -52.8825 247.659 -53.1678 247.701L-54.8419 248.02L-56.4594 248.376C-56.7383 248.45 -57.1207 248.536 -57.6066 248.636C-57.6536 248.646 -57.6868 248.603 -57.706 248.509C-57.7253 248.415 -57.7114 248.363 -57.6644 248.354C-57.0688 248.232 -56.6458 248.104 -56.3954 247.971C-56.1294 247.835 -55.9718 247.648 -55.9227 247.409C-55.8612 247.151 -55.8787 246.787 -55.9751 246.317L-58.2067 235.431C-58.3031 234.961 -58.4286 234.628 -58.5834 234.431C-58.7224 234.231 -58.941 234.12 -59.2392 234.1C-59.5249 234.06 -59.9656 234.102 -60.5612 234.224C-60.6082 234.233 -60.6414 234.191 -60.6607 234.097C-60.68 234.003 -60.6661 233.951 -60.6191 233.942L-59.4622 233.729C-58.7975 233.625 -58.2535 233.53 -57.8303 233.443C-57.3601 233.347 -56.799 233.216 -56.1471 233.049L-55.047 232.799C-54.9999 232.79 -54.9668 232.832 -54.9475 232.926C-54.9282 233.02 -54.9421 233.072 -54.9891 233.081C-55.569 233.2 -55.9904 233.336 -56.2533 233.488C-56.5005 233.636 -56.6548 233.839 -56.7163 234.097C-56.7654 234.336 -56.7417 234.69 -56.6453 235.16L-54.4233 245.999ZM-28.1809 242.309C-28.1182 242.297 -28.0772 242.337 -28.0579 242.431C-28.0386 242.525 -28.0603 242.579 -28.123 242.592C-28.4208 242.653 -28.8864 242.732 -29.5198 242.829C-30.1532 242.926 -30.611 243.004 -30.8931 243.061C-31.2379 243.132 -31.6736 243.238 -32.2001 243.378C-32.6952 243.513 -33.076 243.607 -33.3425 243.662C-33.4052 243.674 -33.4462 243.634 -33.4654 243.54C-33.4847 243.446 -33.463 243.392 -33.4003 243.379C-32.8204 243.261 -32.4084 243.119 -32.1645 242.955C-31.9205 242.79 -31.8258 242.575 -31.8805 242.308C-31.9254 242.089 -32.0964 241.773 -32.3934 241.36L-36.278 236.154L-40.7216 237.065L-41.7603 242.276C-41.8705 242.854 -41.8902 243.315 -41.8195 243.66C-41.6299 244.585 -40.7671 244.89 -39.2311 244.575C-39.1527 244.559 -39.1039 244.598 -39.0846 244.692C-39.0653 244.786 -39.0948 244.841 -39.1732 244.857C-39.4553 244.915 -39.8661 244.983 -40.4054 245.061C-41.0075 245.151 -41.5279 245.242 -41.9668 245.332C-42.3743 245.415 -42.8413 245.527 -43.3678 245.668C-43.8316 245.796 -44.2202 245.892 -44.5337 245.956C-44.6121 245.972 -44.6609 245.933 -44.6802 245.839C-44.6995 245.745 -44.6699 245.69 -44.5916 245.674C-44.1527 245.584 -43.8004 245.43 -43.5348 245.212C-43.2566 244.975 -43.0261 244.626 -42.8432 244.164C-42.6478 243.683 -42.4659 243.017 -42.2974 242.166L-39.7369 229.44C-39.7152 229.387 -39.6652 229.352 -39.5868 229.336C-39.5084 229.32 -39.4566 229.334 -39.4313 229.377L-31.4871 239.925C-30.7164 240.975 -30.1012 241.666 -29.6415 241.996C-29.185 242.311 -28.6981 242.415 -28.1809 242.309ZM-40.6112 236.528L-36.6143 235.709L-39.6461 231.675L-40.6112 236.528ZM-20.7405 228.633C-20.6152 229.244 -20.357 229.746 -19.966 230.14C-19.575 230.533 -19.1358 230.843 -18.6483 231.07C-18.1641 231.281 -17.4897 231.543 -16.6253 231.856C-15.7106 232.175 -14.9923 232.452 -14.4703 232.688C-13.9483 232.924 -13.4775 233.268 -13.058 233.721C-12.626 234.155 -12.3377 234.725 -12.1931 235.43C-12.0389 236.183 -12.0872 236.903 -12.338 237.592C-12.5889 238.28 -13.0457 238.88 -13.7085 239.391C-14.3588 239.884 -15.1933 240.235 -16.2122 240.444C-17.419 240.691 -18.5803 240.643 -19.6959 240.3C-19.7839 240.27 -19.85 240.226 -19.8942 240.17C-19.9227 240.11 -19.9577 240.019 -19.9991 239.897L-20.9602 236.762C-20.9888 236.703 -20.9655 236.657 -20.8903 236.625C-20.7995 236.591 -20.7398 236.603 -20.7113 236.662C-20.2291 237.739 -19.5675 238.616 -18.7264 239.293C-17.8697 239.967 -16.877 240.188 -15.7485 239.957C-14.9648 239.796 -14.3499 239.449 -13.9037 238.917C-13.4451 238.366 -13.3122 237.62 -13.505 236.679C-13.6496 235.974 -13.9317 235.395 -14.3512 234.942C-14.7707 234.489 -15.2415 234.144 -15.7635 233.908C-16.2731 233.654 -16.9584 233.378 -17.8197 233.081C-18.6652 232.78 -19.3411 232.511 -19.8475 232.271C-20.3382 232.029 -20.7838 231.687 -21.1845 231.247C-21.5851 230.806 -21.8545 230.249 -21.9927 229.575C-22.1533 228.792 -22.0861 228.084 -21.7911 227.451C-21.4836 226.8 -21.028 226.274 -20.4243 225.873C-19.8081 225.452 -19.1239 225.165 -18.3715 225.011C-17.4468 224.821 -16.4913 224.821 -15.5051 225.011C-15.2539 225.041 -15.109 225.151 -15.0705 225.339L-14.3516 228.009C-14.3387 228.071 -14.3715 228.111 -14.4499 228.127C-14.5282 228.143 -14.5817 228.121 -14.6102 228.062C-14.9027 227.272 -15.3939 226.589 -16.0839 226.012C-16.7771 225.419 -17.6409 225.229 -18.6754 225.441C-19.5532 225.621 -20.1584 226.014 -20.4913 226.622C-20.8117 227.21 -20.8947 227.88 -20.7405 228.633ZM16.7171 233.693C15.2594 233.992 13.8893 233.922 12.607 233.482C11.3371 233.024 10.2697 232.279 9.40498 231.248C8.5527 230.197 7.98517 228.983 7.7024 227.603C7.37143 225.989 7.49618 224.526 8.07666 223.215C8.65392 221.888 9.51791 220.804 10.6686 219.964C11.835 219.121 13.0843 218.562 14.4166 218.289C15.9056 217.984 17.2867 218.068 18.5598 218.542C19.8298 219 20.8798 219.741 21.71 220.763C22.5559 221.782 23.1105 222.934 23.374 224.219C23.6664 225.645 23.5586 227.031 23.0504 228.377C22.5423 229.722 21.7241 230.87 20.5959 231.82C19.4834 232.767 18.1904 233.391 16.7171 233.693ZM17.4387 233.031C18.5046 232.812 19.4077 232.357 20.148 231.667C20.904 230.973 21.4222 230.074 21.7024 228.972C21.9983 227.866 22.0049 226.623 21.7221 225.244C21.4201 223.77 20.8775 222.518 20.0943 221.486C19.3112 220.454 18.3521 219.72 17.2173 219.283C16.098 218.843 14.8723 218.759 13.54 219.032C11.8159 219.386 10.582 220.219 9.83833 221.531C9.09468 222.843 8.92209 224.471 9.32054 226.414C9.62259 227.887 10.1732 229.179 10.9725 230.289C11.7685 231.384 12.7325 232.182 13.8646 232.685C14.9934 233.173 16.1848 233.288 17.4387 233.031ZM45.9421 212.096C45.9891 212.086 46.0222 212.128 46.0415 212.222C46.0608 212.316 46.0469 212.368 45.9999 212.378C45.3416 212.513 44.9005 212.791 44.6766 213.213C44.4527 213.634 44.4243 214.252 44.5914 215.067L47.1315 227.458C47.1379 227.489 47.1036 227.521 47.0284 227.552C46.9532 227.584 46.8968 227.588 46.859 227.563L33.3592 216.684L33.0994 216.492L35.2395 226.931C35.4066 227.746 35.6681 228.305 36.0242 228.608C36.3927 228.892 36.8982 228.968 37.5409 228.836C37.5879 228.826 37.6211 228.868 37.6403 228.963C37.6596 229.057 37.6457 229.108 37.5987 229.118C37.2069 229.198 36.9075 229.252 36.7005 229.278L35.5201 229.495L34.3259 229.765C34.1096 229.825 33.7899 229.899 33.3667 229.986C33.3354 229.992 33.3101 229.948 33.2908 229.854C33.2715 229.76 33.2775 229.71 33.3089 229.704C33.9829 229.565 34.4256 229.295 34.637 228.892C34.8453 228.474 34.8658 227.857 34.6987 227.042L32.443 216.039C31.716 215.6 31.0391 215.445 30.4121 215.573C30.3651 215.583 30.3319 215.541 30.3126 215.447C30.2934 215.353 30.3072 215.301 30.3543 215.291L31.229 215.136C31.4203 215.114 31.6805 215.068 32.0097 215.001C32.3545 214.93 32.635 214.865 32.8512 214.804C33.0675 214.743 33.2383 214.7 33.3637 214.674C33.4891 214.649 33.5817 214.662 33.6416 214.715C33.7139 214.749 33.832 214.848 33.996 215.01C34.2419 215.254 34.483 215.474 34.7193 215.67L46.0509 224.935L44.0506 215.178C43.8835 214.363 43.622 213.804 43.2659 213.502C42.9256 213.196 42.4341 213.109 41.7914 213.241C41.7601 213.247 41.7348 213.203 41.7155 213.109C41.6962 213.015 41.7022 212.965 41.7336 212.958L42.6553 212.794C43.132 212.729 43.5192 212.666 43.817 212.605C44.0992 212.547 44.4878 212.451 44.9829 212.317L45.9421 212.096ZM59.7728 222.49C59.866 222.944 59.9805 223.264 60.1163 223.448C60.2521 223.633 60.4535 223.738 60.7203 223.765C60.984 223.777 61.3979 223.725 61.9622 223.609L64.5249 223.083C65.4183 222.9 66.0752 222.48 66.4957 221.822C66.9161 221.164 67.113 220.332 67.0861 219.325C67.0765 219.277 67.1125 219.254 67.1941 219.253C67.2881 219.234 67.3399 219.248 67.3496 219.295C67.4752 220.625 67.6248 221.713 67.7983 222.559C67.824 222.685 67.8198 222.784 67.7856 222.856C67.7482 222.913 67.659 222.955 67.518 222.984L56.6559 225.211C56.6245 225.218 56.5992 225.174 56.5799 225.08C56.5606 224.986 56.5667 224.935 56.598 224.929C57.1936 224.807 57.6166 224.679 57.867 224.546C58.1331 224.41 58.2907 224.223 58.3397 223.984C58.3856 223.73 58.3603 223.367 58.2639 222.897L56.0322 212.011C55.9358 211.541 55.8181 211.206 55.6791 211.006C55.5401 210.806 55.3215 210.695 55.0233 210.675C54.7375 210.635 54.2968 210.677 53.7012 210.799C53.6699 210.805 53.6446 210.762 53.6253 210.667C53.606 210.573 53.612 210.523 53.6434 210.517L54.8002 210.304C55.465 210.201 56.0011 210.107 56.4086 210.023C56.8475 209.933 57.3929 209.805 58.0448 209.639L59.1685 209.384C59.2155 209.374 59.2487 209.417 59.2679 209.511C59.2872 209.605 59.2733 209.657 59.2263 209.666C58.6464 209.785 58.225 209.921 57.9621 210.072C57.7117 210.205 57.5558 210.401 57.4943 210.658C57.4452 210.897 57.4689 211.251 57.5653 211.722L59.7728 222.49ZM85.5894 203.968C85.6207 203.961 85.646 204.005 85.6653 204.099C85.6846 204.193 85.6785 204.243 85.6472 204.25C85.0829 204.365 84.5542 204.694 84.061 205.236C83.5646 205.763 83.1631 206.433 82.8563 207.247L80.6988 212.736L81.7929 218.073C81.8925 218.559 82.0118 218.902 82.1509 219.103C82.2899 219.303 82.5007 219.415 82.7832 219.438C83.0814 219.459 83.5283 219.408 84.1239 219.286C84.1709 219.276 84.2041 219.319 84.2234 219.413C84.2426 219.507 84.2288 219.558 84.1818 219.568C83.6959 219.668 83.3181 219.737 83.0484 219.776L81.3978 220.09L79.7804 220.446C79.5015 220.519 79.119 220.606 78.6332 220.706C78.5861 220.715 78.553 220.673 78.5337 220.579C78.5144 220.485 78.5283 220.433 78.5753 220.424C79.1709 220.301 79.5939 220.174 79.8443 220.041C80.1104 219.905 80.2679 219.717 80.317 219.478C80.3785 219.221 80.3611 218.857 80.2647 218.387L79.2477 213.426L74.1736 208.513C73.5933 207.913 73.08 207.52 72.6335 207.334C72.187 207.148 71.7052 207.108 71.1879 207.214C71.1409 207.224 71.1077 207.181 71.0885 207.087C71.0692 206.993 71.0831 206.942 71.1301 206.932C71.3182 206.893 71.6035 206.851 71.9861 206.805L72.8138 206.66C73.3467 206.551 74.0175 206.397 74.8261 206.199L76.0909 205.915C76.1222 205.908 76.1476 205.952 76.1668 206.046C76.1861 206.14 76.1801 206.191 76.1487 206.197C75.3337 206.364 74.9599 206.612 75.0274 206.941C75.0627 207.114 75.1813 207.294 75.383 207.481L80.3058 212.254L82.2728 207.269C82.5052 206.65 82.5828 206.152 82.5057 205.776C82.39 205.211 81.9089 205.016 81.0625 205.19C81.0312 205.196 81.0059 205.152 80.9866 205.058C80.9673 204.964 80.9734 204.914 81.0047 204.907L82.1145 204.704C82.7166 204.614 83.2684 204.517 83.77 204.414C84.0364 204.359 84.3545 204.278 84.7243 204.169L85.5894 203.968Z" fill="white"/>
<path d="M140.647 205.91C140.74 206.364 140.855 206.684 140.99 206.868C141.126 207.053 141.327 207.159 141.594 207.186C141.858 207.197 142.272 207.145 142.836 207.029L145.399 206.504C146.292 206.32 146.949 205.9 147.37 205.242C147.79 204.584 147.987 203.752 147.96 202.745C147.951 202.698 147.986 202.674 148.068 202.674C148.162 202.654 148.214 202.668 148.224 202.715C148.349 204.045 148.499 205.133 148.672 205.98C148.698 206.105 148.694 206.204 148.66 206.276C148.622 206.333 148.533 206.376 148.392 206.405L137.53 208.631C137.499 208.638 137.473 208.594 137.454 208.5C137.435 208.406 137.441 208.356 137.472 208.349C138.068 208.227 138.491 208.1 138.741 207.967C139.007 207.83 139.165 207.643 139.214 207.404C139.26 207.15 139.234 206.787 139.138 206.317L136.906 195.432C136.81 194.961 136.692 194.626 136.553 194.426C136.414 194.226 136.195 194.116 135.897 194.095C135.612 194.056 135.171 194.097 134.575 194.219C134.544 194.226 134.519 194.182 134.499 194.088C134.48 193.994 134.486 193.943 134.517 193.937L135.674 193.724C136.339 193.621 136.875 193.527 137.283 193.444C137.722 193.354 138.267 193.225 138.919 193.059L140.042 192.804C140.09 192.795 140.123 192.837 140.142 192.931C140.161 193.025 140.147 193.077 140.1 193.086C139.52 193.205 139.099 193.341 138.836 193.493C138.586 193.626 138.43 193.821 138.368 194.078C138.319 194.317 138.343 194.672 138.439 195.142L140.647 205.91ZM166.557 190.063C166.242 188.527 165.403 187.899 164.039 188.179C163.992 188.188 163.959 188.146 163.94 188.052C163.921 187.958 163.934 187.906 163.981 187.897L164.997 187.713C165.568 187.628 166.018 187.553 166.347 187.485C166.613 187.43 166.994 187.336 167.489 187.202L168.472 186.976C168.503 186.97 168.529 187.013 168.548 187.107C168.567 187.201 168.561 187.252 168.53 187.258C167.276 187.515 166.806 188.412 167.121 189.948L168.49 196.625C168.86 198.427 168.647 199.941 167.853 201.165C167.056 202.374 165.811 203.152 164.118 203.499C162.958 203.737 161.892 203.718 160.922 203.444C159.966 203.166 159.161 202.662 158.504 201.93C157.861 201.18 157.423 200.241 157.192 199.113L155.649 191.589C155.553 191.119 155.435 190.784 155.296 190.584C155.157 190.383 154.939 190.273 154.64 190.253C154.355 190.213 153.914 190.254 153.318 190.377C153.287 190.383 153.262 190.339 153.242 190.245C153.223 190.151 153.229 190.101 153.26 190.094L154.417 189.882C155.082 189.778 155.618 189.685 156.026 189.601C156.465 189.511 157.01 189.383 157.662 189.217L158.786 188.962C158.833 188.952 158.866 188.994 158.885 189.088C158.904 189.182 158.89 189.234 158.843 189.244C158.263 189.363 157.842 189.498 157.579 189.65C157.316 189.802 157.162 190.005 157.116 190.259C157.067 190.498 157.091 190.853 157.187 191.323L158.551 197.977C158.927 199.81 159.632 201.136 160.665 201.953C161.711 202.751 162.986 202.996 164.49 202.688C165.901 202.399 166.908 201.735 167.512 200.696C168.113 199.642 168.252 198.331 167.931 196.764L166.557 190.063ZM193.227 196.919C193.258 196.913 193.284 196.956 193.303 197.05C193.322 197.144 193.316 197.195 193.285 197.201C192.877 197.285 192.555 197.343 192.316 197.375L191.018 197.617L189.213 198.011C188.934 198.085 188.551 198.171 188.066 198.271C188.034 198.278 188.009 198.234 187.99 198.14C187.97 198.046 187.976 197.995 188.008 197.989C188.431 197.902 188.73 197.808 188.905 197.707C189.081 197.606 189.154 197.485 189.125 197.343C189.096 197.202 188.99 197.044 188.807 196.87L184.125 192.195L182.002 197.015C181.735 197.625 181.635 198.095 181.703 198.424C181.815 198.973 182.334 199.152 183.258 198.963C183.305 198.953 183.339 198.995 183.358 199.089C183.377 199.183 183.363 199.235 183.316 199.245C182.846 199.341 182.484 199.407 182.23 199.443L180.603 199.752L179.62 199.978C179.451 200.029 179.163 200.096 178.755 200.18C178.708 200.189 178.675 200.147 178.656 200.053C178.636 199.959 178.65 199.907 178.697 199.898C179.779 199.676 180.698 198.744 181.456 197.103L183.841 191.885L178.88 186.925C178.344 186.381 177.846 186.026 177.387 185.859C176.941 185.673 176.443 185.636 175.895 185.748C175.863 185.755 175.838 185.711 175.819 185.617C175.799 185.523 175.805 185.473 175.837 185.466L176.735 185.306C177.149 185.254 177.45 185.209 177.638 185.17C178.171 185.061 178.81 184.914 179.556 184.728L180.774 184.454C180.821 184.444 180.854 184.487 180.873 184.581C180.893 184.675 180.879 184.726 180.832 184.736C180.424 184.82 180.125 184.914 179.934 185.018C179.759 185.119 179.687 185.248 179.72 185.405C179.745 185.53 179.851 185.688 180.037 185.879L184.592 190.409L186.542 185.942C186.843 185.259 186.955 184.73 186.878 184.354C186.766 183.805 186.271 183.621 185.393 183.801C185.346 183.811 185.313 183.768 185.294 183.674C185.274 183.58 185.288 183.529 185.335 183.519L186.398 183.325C187 183.235 187.544 183.14 188.03 183.04C188.312 182.982 188.638 182.899 189.008 182.79L189.873 182.589C189.92 182.579 189.953 182.621 189.972 182.715C189.992 182.809 189.978 182.861 189.931 182.871C189.413 182.977 188.913 183.284 188.429 183.791C187.945 184.299 187.5 184.994 187.093 185.878L184.876 190.718L190.017 195.838C190.549 196.365 191.053 196.711 191.528 196.875C192.018 197.036 192.584 197.051 193.227 196.919ZM211.007 180.951C210.692 179.415 209.853 178.787 208.489 179.066C208.442 179.076 208.409 179.034 208.389 178.94C208.37 178.845 208.384 178.794 208.431 178.784L209.447 178.6C210.018 178.516 210.467 178.44 210.797 178.373C211.063 178.318 211.444 178.224 211.939 178.089L212.922 177.863C212.953 177.857 212.978 177.901 212.998 177.995C213.017 178.089 213.011 178.139 212.98 178.146C211.726 178.403 211.256 179.299 211.571 180.835L212.94 187.512C213.309 189.315 213.097 190.828 212.303 192.053C211.505 193.262 210.26 194.04 208.567 194.387C207.407 194.624 206.342 194.606 205.371 194.331C204.416 194.054 203.61 193.549 202.954 192.818C202.31 192.068 201.873 191.129 201.641 190L200.099 182.477C200.003 182.006 199.885 181.671 199.746 181.471C199.607 181.271 199.388 181.161 199.09 181.14C198.804 181.101 198.364 181.142 197.768 181.264C197.737 181.27 197.711 181.227 197.692 181.133C197.673 181.039 197.679 180.988 197.71 180.982L198.867 180.769C199.532 180.666 200.068 180.572 200.475 180.489C200.914 180.399 201.46 180.27 202.111 180.104L203.235 179.849C203.282 179.84 203.315 179.882 203.335 179.976C203.354 180.07 203.34 180.122 203.293 180.131C202.713 180.25 202.292 180.386 202.029 180.538C201.766 180.689 201.612 180.893 201.566 181.147C201.517 181.386 201.54 181.74 201.637 182.21L203.001 188.864C203.377 190.698 204.081 192.023 205.114 192.84C206.16 193.639 207.435 193.884 208.94 193.575C210.351 193.286 211.358 192.622 211.962 191.584C212.562 190.53 212.702 189.219 212.38 187.652L211.007 180.951ZM238.805 187.575C238.837 187.569 238.862 187.612 238.881 187.706C238.9 187.8 238.894 187.851 238.863 187.857L235.83 188.479C235.438 188.559 234.565 188.044 233.21 186.934C231.868 185.804 230.183 184.198 228.156 182.115C227.802 182.301 227.39 182.443 226.92 182.539C226.622 182.6 226.266 182.657 225.852 182.709L226.999 188.305C227.099 188.791 227.218 189.134 227.357 189.334C227.496 189.534 227.707 189.646 227.99 189.67C228.288 189.69 228.735 189.64 229.33 189.517C229.377 189.508 229.41 189.55 229.43 189.644C229.449 189.738 229.435 189.79 229.388 189.8C228.902 189.899 228.517 189.97 228.231 190.012L226.604 190.321L225.01 190.673C224.731 190.746 224.333 190.836 223.816 190.942C223.785 190.948 223.759 190.905 223.74 190.811C223.721 190.716 223.727 190.666 223.758 190.66C224.354 190.538 224.785 190.409 225.051 190.272C225.314 190.12 225.477 189.924 225.542 189.682C225.607 189.44 225.591 189.084 225.495 188.613L223.263 177.728C223.167 177.258 223.041 176.924 222.886 176.727C222.747 176.527 222.529 176.417 222.23 176.396C221.945 176.357 221.504 176.398 220.908 176.52C220.861 176.53 220.828 176.487 220.809 176.393C220.79 176.299 220.804 176.248 220.851 176.238L222.007 176.025C222.672 175.922 223.208 175.828 223.616 175.745C223.898 175.687 224.163 175.624 224.41 175.557C224.658 175.49 224.874 175.429 225.059 175.375C225.551 175.225 226.001 175.109 226.408 175.025C227.678 174.765 228.71 174.823 229.506 175.198C230.302 175.574 230.795 176.225 230.984 177.149C231.138 177.902 231.065 178.66 230.764 179.424C230.46 180.172 229.988 180.816 229.348 181.356C231.088 183.073 232.528 184.403 233.669 185.345C234.806 186.272 235.779 186.913 236.587 187.27C237.392 187.612 238.131 187.713 238.805 187.575ZM225.732 182.122C226.136 182.104 226.605 182.04 227.138 181.931C228.22 181.709 228.949 181.323 229.326 180.772C229.7 180.206 229.776 179.381 229.554 178.3C229.088 176.027 227.899 175.087 225.987 175.479C225.564 175.566 225.25 175.671 225.047 175.794C224.856 175.899 224.738 176.078 224.692 176.332C224.643 176.571 224.671 176.949 224.777 177.466L225.732 182.122ZM249.261 183.741C249.357 184.211 249.476 184.554 249.619 184.77C249.758 184.97 249.969 185.082 250.251 185.106C250.549 185.127 250.996 185.076 251.592 184.954C251.639 184.944 251.672 184.986 251.691 185.08C251.71 185.174 251.697 185.226 251.65 185.236C251.179 185.332 250.802 185.401 250.516 185.444L248.842 185.762L247.225 186.118C246.946 186.192 246.563 186.279 246.077 186.378C246.03 186.388 245.997 186.346 245.978 186.252C245.959 186.157 245.973 186.106 246.02 186.096C246.615 185.974 247.038 185.846 247.289 185.713C247.555 185.577 247.712 185.39 247.761 185.151C247.823 184.893 247.805 184.529 247.709 184.059L245.477 173.174C245.381 172.703 245.255 172.37 245.101 172.173C244.962 171.973 244.743 171.862 244.445 171.842C244.159 171.802 243.718 171.844 243.123 171.966C243.076 171.976 243.043 171.933 243.023 171.839C243.004 171.745 243.018 171.693 243.065 171.684L244.222 171.471C244.887 171.367 245.431 171.272 245.854 171.186C246.324 171.089 246.885 170.958 247.537 170.791L248.637 170.541C248.684 170.532 248.717 170.574 248.737 170.668C248.756 170.762 248.742 170.814 248.695 170.824C248.115 170.942 247.694 171.078 247.431 171.23C247.184 171.378 247.029 171.582 246.968 171.839C246.919 172.078 246.942 172.432 247.039 172.903L249.261 183.741ZM275.503 180.052C275.566 180.039 275.607 180.079 275.626 180.173C275.645 180.267 275.624 180.321 275.561 180.334C275.263 180.395 274.798 180.474 274.164 180.571C273.531 180.668 273.073 180.746 272.791 180.804C272.446 180.874 272.01 180.98 271.484 181.121C270.989 181.255 270.608 181.349 270.342 181.404C270.279 181.417 270.238 181.376 270.219 181.282C270.199 181.188 270.221 181.135 270.284 181.122C270.864 181.003 271.276 180.861 271.52 180.697C271.764 180.532 271.858 180.317 271.804 180.051C271.759 179.831 271.588 179.515 271.291 179.102L267.406 173.896L262.962 174.807L261.924 180.018C261.814 180.596 261.794 181.057 261.865 181.402C262.054 182.327 262.917 182.632 264.453 182.317C264.531 182.301 264.58 182.34 264.6 182.434C264.619 182.528 264.589 182.583 264.511 182.599C264.229 182.657 263.818 182.725 263.279 182.803C262.677 182.894 262.156 182.984 261.717 183.074C261.31 183.157 260.843 183.269 260.316 183.41C259.852 183.538 259.464 183.634 259.15 183.698C259.072 183.714 259.023 183.675 259.004 183.581C258.985 183.487 259.014 183.432 259.093 183.416C259.531 183.326 259.884 183.172 260.149 182.954C260.427 182.718 260.658 182.368 260.841 181.906C261.036 181.425 261.218 180.759 261.387 179.908L263.947 167.182C263.969 167.129 264.019 167.094 264.097 167.078C264.176 167.062 264.228 167.076 264.253 167.12L272.197 177.667C272.968 178.718 273.583 179.408 274.043 179.739C274.499 180.053 274.986 180.158 275.503 180.052ZM263.073 174.27L267.07 173.451L264.038 169.418L263.073 174.27ZM282.944 166.375C283.069 166.986 283.327 167.488 283.718 167.882C284.109 168.275 284.548 168.585 285.036 168.812C285.52 169.023 286.194 169.285 287.059 169.598C287.973 169.917 288.692 170.194 289.214 170.43C289.736 170.666 290.207 171.011 290.626 171.463C291.058 171.898 291.346 172.467 291.491 173.173C291.645 173.925 291.597 174.645 291.346 175.334C291.095 176.022 290.638 176.622 289.976 177.134C289.325 177.626 288.491 177.977 287.472 178.186C286.265 178.433 285.104 178.386 283.988 178.043C283.9 178.012 283.834 177.968 283.79 177.912C283.761 177.852 283.726 177.762 283.685 177.639L282.724 174.504C282.695 174.445 282.719 174.399 282.794 174.368C282.885 174.333 282.944 174.345 282.973 174.404C283.455 175.482 284.117 176.359 284.958 177.035C285.814 177.709 286.807 177.93 287.936 177.699C288.719 177.538 289.334 177.192 289.78 176.659C290.239 176.108 290.372 175.362 290.179 174.422C290.034 173.716 289.752 173.137 289.333 172.684C288.913 172.231 288.443 171.887 287.921 171.651C287.411 171.396 286.726 171.12 285.864 170.823C285.019 170.522 284.343 170.253 283.837 170.014C283.346 169.771 282.9 169.43 282.5 168.989C282.099 168.549 281.83 167.991 281.691 167.317C281.531 166.534 281.598 165.826 281.893 165.194C282.201 164.543 282.656 164.016 283.26 163.615C283.876 163.195 284.56 162.907 285.313 162.753C286.237 162.564 287.193 162.564 288.179 162.753C288.43 162.784 288.575 162.893 288.614 163.081L289.332 165.751C289.345 165.814 289.313 165.853 289.234 165.869C289.156 165.885 289.102 165.863 289.074 165.804C288.781 165.015 288.29 164.331 287.6 163.754C286.907 163.161 286.043 162.971 285.009 163.183C284.131 163.363 283.526 163.756 283.193 164.364C282.872 164.952 282.789 165.622 282.944 166.375ZM320.401 171.435C318.943 171.734 317.573 171.664 316.291 171.224C315.021 170.766 313.954 170.021 313.089 168.99C312.237 167.94 311.669 166.725 311.386 165.346C311.056 163.731 311.18 162.268 311.761 160.957C312.338 159.63 313.202 158.546 314.353 157.706C315.519 156.863 316.768 156.304 318.101 156.031C319.59 155.726 320.971 155.81 322.244 156.284C323.514 156.743 324.564 157.483 325.394 158.505C326.24 159.524 326.795 160.676 327.058 161.961C327.351 163.388 327.243 164.773 326.735 166.119C326.226 167.464 325.408 168.612 324.28 169.562C323.167 170.509 321.874 171.133 320.401 171.435ZM321.123 170.773C322.189 170.554 323.092 170.1 323.832 169.409C324.588 168.715 325.106 167.816 325.387 166.714C325.682 165.608 325.689 164.365 325.406 162.986C325.104 161.512 324.562 160.26 323.778 159.228C322.995 158.196 322.036 157.462 320.901 157.025C319.782 156.585 318.556 156.501 317.224 156.775C315.5 157.128 314.266 157.961 313.522 159.273C312.779 160.585 312.606 162.213 313.005 164.156C313.307 165.63 313.857 166.921 314.657 168.032C315.453 169.126 316.417 169.925 317.549 170.427C318.678 170.915 319.869 171.03 321.123 170.773ZM349.626 149.838C349.673 149.828 349.706 149.87 349.726 149.964C349.745 150.058 349.731 150.11 349.684 150.12C349.026 150.255 348.585 150.533 348.361 150.955C348.137 151.376 348.108 151.995 348.275 152.81L350.816 165.2C350.822 165.231 350.788 165.263 350.712 165.295C350.637 165.326 350.581 165.33 350.543 165.305L337.043 154.426L336.784 154.235L338.924 164.673C339.091 165.489 339.352 166.047 339.708 166.35C340.077 166.634 340.582 166.71 341.225 166.578C341.272 166.568 341.305 166.611 341.324 166.705C341.344 166.799 341.33 166.851 341.283 166.86C340.891 166.941 340.592 166.994 340.385 167.02L339.204 167.237L338.01 167.507C337.794 167.567 337.474 167.641 337.051 167.728C337.019 167.734 336.994 167.69 336.975 167.596C336.956 167.502 336.962 167.452 336.993 167.446C337.667 167.308 338.11 167.037 338.321 166.634C338.529 166.216 338.55 165.599 338.383 164.784L336.127 153.781C335.4 153.342 334.723 153.187 334.096 153.316C334.049 153.325 334.016 153.283 333.997 153.189C333.977 153.095 333.991 153.043 334.038 153.033L334.913 152.879C335.104 152.856 335.365 152.811 335.694 152.743C336.039 152.672 336.319 152.607 336.535 152.546C336.752 152.485 336.922 152.442 337.048 152.416C337.173 152.391 337.266 152.404 337.326 152.458C337.398 152.492 337.516 152.59 337.68 152.752C337.926 152.996 338.167 153.216 338.403 153.413L349.735 162.678L347.735 152.92C347.568 152.105 347.306 151.547 346.95 151.244C346.61 150.938 346.118 150.851 345.476 150.983C345.444 150.989 345.419 150.945 345.4 150.851C345.38 150.757 345.386 150.707 345.418 150.701L346.339 150.536C346.816 150.471 347.203 150.408 347.501 150.347C347.783 150.289 348.172 150.193 348.667 150.059L349.626 149.838ZM363.457 160.232C363.55 160.686 363.665 161.006 363.8 161.19C363.936 161.375 364.138 161.481 364.404 161.508C364.668 161.519 365.082 161.467 365.646 161.351L368.209 160.826C369.102 160.643 369.759 160.222 370.18 159.564C370.6 158.906 370.797 158.074 370.77 157.067C370.761 157.02 370.797 156.996 370.878 156.996C370.972 156.976 371.024 156.99 371.034 157.037C371.159 158.367 371.309 159.455 371.482 160.302C371.508 160.427 371.504 160.526 371.47 160.598C371.432 160.655 371.343 160.698 371.202 160.727L360.34 162.953C360.309 162.96 360.283 162.916 360.264 162.822C360.245 162.728 360.251 162.678 360.282 162.671C360.878 162.549 361.301 162.422 361.551 162.289C361.817 162.152 361.975 161.965 362.024 161.726C362.07 161.472 362.044 161.109 361.948 160.639L359.716 149.754C359.62 149.283 359.502 148.948 359.363 148.748C359.224 148.548 359.006 148.438 358.707 148.417C358.422 148.378 357.981 148.419 357.385 148.541C357.354 148.548 357.329 148.504 357.309 148.41C357.29 148.316 357.296 148.265 357.327 148.259L358.484 148.046C359.149 147.943 359.685 147.849 360.093 147.766C360.532 147.676 361.077 147.547 361.729 147.381L362.853 147.126C362.9 147.117 362.933 147.159 362.952 147.253C362.971 147.347 362.957 147.399 362.91 147.408C362.33 147.527 361.909 147.663 361.646 147.815C361.396 147.948 361.24 148.143 361.178 148.4C361.129 148.639 361.153 148.994 361.249 149.464L363.457 160.232ZM389.273 141.71C389.305 141.703 389.33 141.747 389.349 141.841C389.369 141.935 389.363 141.985 389.331 141.992C388.767 142.108 388.238 142.436 387.745 142.979C387.249 143.505 386.847 144.175 386.54 144.989L384.383 150.479L385.477 155.816C385.577 156.302 385.696 156.645 385.835 156.845C385.974 157.045 386.185 157.157 386.467 157.181C386.765 157.201 387.212 157.15 387.808 157.028C387.855 157.019 387.888 157.061 387.907 157.155C387.927 157.249 387.913 157.301 387.866 157.31C387.38 157.41 387.002 157.479 386.732 157.518L385.082 157.832L383.464 158.188C383.186 158.262 382.803 158.348 382.317 158.448C382.27 158.457 382.237 158.415 382.218 158.321C382.199 158.227 382.212 158.175 382.259 158.166C382.855 158.044 383.278 157.916 383.528 157.783C383.794 157.647 383.952 157.459 384.001 157.221C384.063 156.963 384.045 156.599 383.949 156.129L382.932 151.168L377.858 146.255C377.277 145.655 376.764 145.262 376.318 145.076C375.871 144.89 375.389 144.85 374.872 144.956C374.825 144.966 374.792 144.924 374.773 144.83C374.753 144.736 374.767 144.684 374.814 144.674C375.002 144.635 375.288 144.593 375.67 144.548L376.498 144.402C377.031 144.293 377.702 144.139 378.51 143.941L379.775 143.657C379.806 143.651 379.832 143.694 379.851 143.788C379.87 143.883 379.864 143.933 379.833 143.939C379.018 144.106 378.644 144.354 378.711 144.684C378.747 144.856 378.865 145.036 379.067 145.223L383.99 149.996L385.957 145.011C386.189 144.392 386.267 143.894 386.19 143.518C386.074 142.954 385.593 142.758 384.747 142.932C384.715 142.938 384.69 142.894 384.671 142.8C384.651 142.706 384.657 142.656 384.689 142.65L385.799 142.447C386.401 142.356 386.952 142.259 387.454 142.156C387.72 142.102 388.039 142.02 388.408 141.912L389.273 141.71Z" fill="white"/>
</svg>
