<svg width="375" height="243" viewBox="0 0 375 243" fill="none" xmlns="http://www.w3.org/2000/svg">
<rect width="903" height="45" transform="translate(-159.112) rotate(12.6918)" fill="#7D7D7D" fill-opacity="0.7"/>
<path d="M-150.692 30.5565C-150.794 31.0092 -150.821 31.3475 -150.773 31.5715C-150.725 31.7956 -150.585 31.9747 -150.353 32.109C-150.117 32.2277 -149.718 32.3503 -149.156 32.4768L-146.604 33.0516C-145.714 33.252 -144.943 33.1388 -144.289 32.712C-143.635 32.2852 -143.113 31.6072 -142.724 30.6781C-142.713 30.6313 -142.671 30.6245 -142.596 30.6577C-142.502 30.6787 -142.461 30.7127 -142.471 30.7595C-142.904 32.0234 -143.215 33.0769 -143.405 33.9197C-143.433 34.0446 -143.477 34.133 -143.538 34.1849C-143.595 34.2212 -143.694 34.2235 -143.835 34.1919L-154.652 31.7558C-154.683 31.7487 -154.688 31.6984 -154.667 31.6047C-154.646 31.5111 -154.62 31.4678 -154.589 31.4748C-153.996 31.6084 -153.558 31.666 -153.275 31.6477C-152.976 31.633 -152.755 31.5269 -152.612 31.3294C-152.466 31.1164 -152.34 30.7757 -152.235 30.3075L-149.793 19.467C-149.688 18.9987 -149.657 18.6447 -149.702 18.4051C-149.746 18.1655 -149.9 17.975 -150.164 17.8337C-150.408 17.6803 -150.827 17.5368 -151.42 17.4032C-151.451 17.3962 -151.456 17.3458 -151.435 17.2522C-151.414 17.1585 -151.388 17.1152 -151.356 17.1223L-150.214 17.404C-149.566 17.5829 -149.039 17.718 -148.633 17.8094C-148.196 17.9079 -147.646 18.0153 -146.983 18.1317L-145.854 18.3614C-145.807 18.3719 -145.794 18.424 -145.816 18.5177C-145.837 18.6114 -145.871 18.6529 -145.917 18.6424C-146.495 18.5123 -146.935 18.4625 -147.237 18.4928C-147.52 18.5111 -147.742 18.625 -147.904 18.8346C-148.047 19.032 -148.171 19.3648 -148.277 19.8331L-150.692 30.5565ZM-126.879 25.3409C-126.535 23.8112 -127.041 22.8934 -128.399 22.5876C-128.446 22.577 -128.459 22.5249 -128.438 22.4313C-128.417 22.3376 -128.383 22.2961 -128.336 22.3066L-127.335 22.5568C-126.78 22.7145 -126.338 22.8303 -126.011 22.9042C-125.745 22.9639 -125.359 23.0344 -124.853 23.1157L-123.864 23.3138C-123.833 23.3208 -123.828 23.3711 -123.849 23.4648C-123.87 23.5584 -123.896 23.6018 -123.927 23.5947C-125.176 23.3135 -125.973 23.9377 -126.317 25.4674L-127.815 32.1169C-128.219 33.9119 -129.035 35.2042 -130.262 35.9939C-131.486 36.7679 -132.941 36.965 -134.627 36.5854C-135.782 36.3253 -136.746 35.8704 -137.518 35.2209C-138.274 34.5749 -138.801 33.7838 -139.099 32.8475C-139.377 31.8992 -139.39 30.8631 -139.137 29.7392L-137.45 22.2469C-137.344 21.7786 -137.314 21.4247 -137.358 21.185C-137.403 20.9454 -137.556 20.7549 -137.82 20.6136C-138.064 20.4602 -138.483 20.3167 -139.076 20.1831C-139.107 20.1761 -139.112 20.1258 -139.091 20.0321C-139.07 19.9385 -139.044 19.8951 -139.013 19.9022L-137.871 20.184C-137.222 20.3628 -136.695 20.4979 -136.289 20.5893C-135.852 20.6878 -135.302 20.7952 -134.64 20.9116L-133.51 21.1413C-133.464 21.1519 -133.451 21.204 -133.472 21.2976C-133.493 21.3913 -133.527 21.4328 -133.574 21.4223C-134.151 21.2922 -134.591 21.2424 -134.893 21.2727C-135.195 21.3031 -135.419 21.4248 -135.566 21.6379C-135.709 21.8353 -135.833 22.1682 -135.938 22.6364L-137.431 29.2625C-137.842 31.0887 -137.745 32.5867 -137.139 33.7564C-136.514 34.914 -135.452 35.6615 -133.954 35.999C-132.549 36.3154 -131.358 36.1244 -130.38 35.426C-129.4 34.7121 -128.733 33.5747 -128.382 32.0137L-126.879 25.3409ZM-111.708 41.1319C-111.677 41.1389 -111.672 41.1893 -111.693 41.2829C-111.714 41.3766 -111.74 41.4199 -111.771 41.4129C-112.177 41.3215 -112.495 41.2416 -112.726 41.1733L-114.008 40.8598L-115.817 40.4772C-116.101 40.4296 -116.485 40.3512 -116.969 40.2423C-117 40.2352 -117.005 40.1849 -116.984 40.0912C-116.963 39.9976 -116.937 39.9543 -116.906 39.9613C-116.484 40.0562 -116.173 40.0935 -115.972 40.0733C-115.77 40.053 -115.654 39.9727 -115.622 39.8322C-115.59 39.6917 -115.622 39.5042 -115.717 39.2696L-118.063 33.083L-121.98 36.6044C-122.474 37.0507 -122.758 37.4378 -122.832 37.7656C-122.955 38.3119 -122.556 38.6888 -121.635 38.8962C-121.589 38.9067 -121.576 38.9588 -121.597 39.0525C-121.618 39.1461 -121.652 39.1877 -121.699 39.1771C-122.167 39.0717 -122.524 38.983 -122.77 38.9112L-124.381 38.5239L-125.369 38.3259C-125.544 38.3028 -125.835 38.2456 -126.241 38.1542C-126.288 38.1436 -126.301 38.0915 -126.279 37.9979C-126.258 37.9042 -126.224 37.8627 -126.178 37.8732C-125.101 38.1158 -123.879 37.6446 -122.513 36.4597L-118.194 32.6844L-120.677 26.1225C-120.943 25.4067 -121.25 24.8783 -121.6 24.5371C-121.93 24.1839 -122.369 23.9458 -122.915 23.8227C-122.946 23.8157 -122.951 23.7654 -122.93 23.6717C-122.909 23.5781 -122.883 23.5347 -122.852 23.5418L-121.967 23.7656C-121.568 23.8882 -121.275 23.9706 -121.088 24.0128C-120.557 24.1323 -119.914 24.2608 -119.158 24.3983L-117.935 24.6491C-117.888 24.6596 -117.875 24.7117 -117.896 24.8054C-117.917 24.899 -117.951 24.9406 -117.998 24.9301C-118.404 24.8387 -118.715 24.8013 -118.932 24.8181C-119.134 24.8383 -119.252 24.9265 -119.287 25.0826C-119.315 25.2075 -119.284 25.395 -119.192 25.6451L-116.903 31.6468L-113.288 28.377C-112.733 27.8788 -112.414 27.4424 -112.329 27.0678C-112.206 26.5215 -112.582 26.1499 -113.456 25.953C-113.503 25.9425 -113.515 25.8904 -113.494 25.7967C-113.473 25.7031 -113.439 25.6615 -113.393 25.672L-112.344 25.9327C-111.758 26.0975 -111.223 26.2344 -110.739 26.3434C-110.458 26.4067 -110.127 26.4649 -109.745 26.518L-108.874 26.6897C-108.827 26.7003 -108.814 26.7524 -108.835 26.846C-108.856 26.9397 -108.89 26.9812 -108.937 26.9707C-109.452 26.8547 -110.035 26.9285 -110.684 27.1922C-111.334 27.4559 -112.026 27.9069 -112.76 28.5451L-116.771 32.0454L-114.19 38.8262C-113.921 39.5264 -113.604 40.0488 -113.239 40.3934C-112.858 40.7416 -112.348 40.9878 -111.708 41.1319ZM-95.257 32.4624C-94.9125 30.9327 -95.4193 30.015 -96.7773 29.7092C-96.8241 29.6986 -96.837 29.6465 -96.8159 29.5529C-96.7948 29.4592 -96.7608 29.4176 -96.714 29.4282L-95.7125 29.6783C-95.1576 29.8361 -94.7162 29.9519 -94.3885 30.0257C-94.1231 30.0855 -93.7372 30.156 -93.2306 30.2373L-92.242 30.4353C-92.2108 30.4424 -92.2057 30.4927 -92.2268 30.5864C-92.2479 30.68 -92.2741 30.7233 -92.3053 30.7163C-93.554 30.4351 -94.3506 31.0593 -94.6951 32.589L-96.1926 39.2384C-96.5969 41.0335 -97.4128 42.3258 -98.6402 43.1154C-99.8642 43.8894 -101.319 44.0866 -103.005 43.7069C-104.16 43.4468 -105.124 42.992 -105.896 42.3425C-106.652 41.6965 -107.179 40.9053 -107.477 39.9691C-107.755 39.0207 -107.768 37.9846 -107.515 36.8608L-105.828 29.3684C-105.722 28.9002 -105.692 28.5462 -105.736 28.3066C-105.78 28.067 -105.934 27.8765 -106.198 27.7352C-106.442 27.5818 -106.861 27.4383 -107.454 27.3047C-107.485 27.2977 -107.49 27.2473 -107.469 27.1537C-107.448 27.06 -107.422 27.0167 -107.391 27.0237L-106.249 27.3055C-105.6 27.4844 -105.073 27.6195 -104.667 27.7109C-104.23 27.8093 -103.68 27.9168 -103.018 28.0332L-101.888 28.2629C-101.842 28.2734 -101.829 28.3255 -101.85 28.4192C-101.871 28.5128 -101.905 28.5544 -101.952 28.5438C-102.529 28.4138 -102.969 28.3639 -103.271 28.3943C-103.573 28.4247 -103.797 28.5464 -103.944 28.7594C-104.087 28.9569 -104.211 29.2897 -104.316 29.758L-105.808 36.384C-106.22 38.2103 -106.122 39.7083 -105.517 40.878C-104.892 42.0355 -103.83 42.7831 -102.332 43.1205C-100.927 43.4369 -99.7357 43.2459 -98.7584 42.5476C-97.7775 41.8336 -97.1114 40.6962 -96.7598 39.1353L-95.257 32.4624ZM-78.9621 48.5066C-78.9308 48.5136 -78.9258 48.5639 -78.9469 48.6576C-78.968 48.7512 -78.9941 48.7945 -79.0253 48.7875L-82.0457 48.1073C-82.4359 48.0194 -83.0201 47.1908 -83.7984 45.6215C-84.5575 44.0401 -85.4329 41.883 -86.4248 39.1503C-86.824 39.1752 -87.2578 39.135 -87.726 39.0295C-88.0226 38.9627 -88.3703 38.868 -88.7691 38.7454L-90.0241 44.3178C-90.133 44.8017 -90.1653 45.1635 -90.1209 45.4031C-90.0764 45.6427 -89.9303 45.8314 -89.6825 45.9692C-89.4192 46.1105 -88.9909 46.248 -88.3977 46.3816C-88.3509 46.3921 -88.338 46.4442 -88.3591 46.5379C-88.3802 46.6315 -88.4142 46.6731 -88.461 46.6625C-88.9449 46.5535 -89.3256 46.4596 -89.603 46.3807L-91.2133 45.9935L-92.8107 45.6583C-93.0952 45.6107 -93.4949 45.5288 -94.01 45.4128C-94.0413 45.4058 -94.0463 45.3555 -94.0252 45.2618C-94.0041 45.1682 -93.978 45.1248 -93.9468 45.1319C-93.3536 45.2655 -92.9078 45.3249 -92.6092 45.3101C-92.3072 45.2797 -92.0769 45.1676 -91.9184 44.9736C-91.76 44.7797 -91.628 44.4486 -91.5225 43.9804L-89.0812 33.1399C-88.9757 32.6716 -88.953 32.3159 -89.013 32.0728C-89.0575 31.8331 -89.2114 31.6427 -89.4748 31.5013C-89.719 31.3479 -90.1378 31.2044 -90.7309 31.0709C-90.7777 31.0603 -90.7906 31.0082 -90.7695 30.9146C-90.7484 30.8209 -90.7144 30.7793 -90.6676 30.7899L-89.5256 31.0717C-88.8771 31.2505 -88.3499 31.3857 -87.9441 31.4771C-87.6631 31.5403 -87.396 31.5923 -87.1427 31.6329C-86.8895 31.6736 -86.6674 31.7072 -86.4766 31.7337C-85.9666 31.7994 -85.5086 31.8779 -85.1028 31.9693C-83.8384 32.2541 -82.9209 32.7313 -82.3501 33.4011C-81.7793 34.0709 -81.5976 34.8662 -81.805 35.7872C-81.9737 36.5364 -82.3522 37.1974 -82.9404 37.7702C-83.5251 38.3273 -84.2204 38.7201 -85.0263 38.9487C-84.146 41.2298 -83.3797 43.0343 -82.7275 44.362C-82.0717 45.6741 -81.4489 46.659 -80.859 47.3167C-80.2656 47.9588 -79.6333 48.3554 -78.9621 48.5066ZM-88.6373 38.16C-88.2611 38.3104 -87.8077 38.4453 -87.277 38.5648C-86.1999 38.8074 -85.3763 38.755 -84.8061 38.4078C-84.2324 38.045 -83.8242 37.3251 -83.5817 36.2481C-83.072 33.9848 -83.7693 32.6387 -85.6736 32.2098C-86.095 32.1149 -86.4238 32.0819 -86.6599 32.1107C-86.8769 32.1274 -87.0585 32.2423 -87.2049 32.4554C-87.3478 32.6528 -87.4772 33.0091 -87.5932 33.5242L-88.6373 38.16ZM-74.1765 47.8868C-74.282 48.3551 -74.3143 48.7168 -74.2733 48.9721C-74.2289 49.2117 -74.0828 49.4004 -73.835 49.5382C-73.5716 49.6795 -73.1434 49.817 -72.5502 49.9506C-72.5034 49.9611 -72.4905 50.0132 -72.5116 50.1069C-72.5327 50.2005 -72.5667 50.2421 -72.6135 50.2315C-73.0818 50.1261 -73.4546 50.0339 -73.7321 49.955L-75.3892 49.5572L-77.01 49.2168C-77.2945 49.1691 -77.6786 49.0908 -78.1625 48.9818C-78.2093 48.9713 -78.2222 48.9192 -78.2011 48.8255C-78.18 48.7319 -78.1461 48.6903 -78.0992 48.7009C-77.5061 48.8345 -77.0681 48.8921 -76.7851 48.8738C-76.4866 48.859 -76.2659 48.7529 -76.123 48.5555C-75.961 48.346 -75.8273 48.0071 -75.7218 47.5388L-73.2805 36.6983C-73.175 36.23 -73.1523 35.8743 -73.2124 35.6312C-73.2568 35.3916 -73.4107 35.2011 -73.6741 35.0598C-73.9184 34.9064 -74.3371 34.7629 -74.9302 34.6293C-74.977 34.6188 -74.9899 34.5667 -74.9688 34.473C-74.9477 34.3793 -74.9138 34.3378 -74.8669 34.3483L-73.7249 34.6301C-73.0764 34.809 -72.5414 34.9459 -72.1199 35.0408C-71.6517 35.1462 -71.0862 35.2572 -70.4236 35.3736L-69.3179 35.598C-69.2711 35.6086 -69.2582 35.6607 -69.2793 35.7543C-69.3004 35.848 -69.3344 35.8895 -69.3812 35.879C-69.9587 35.7489 -70.3985 35.6991 -70.7006 35.7295C-70.987 35.7634 -71.2112 35.8851 -71.3732 36.0946C-71.5161 36.292 -71.6403 36.6249 -71.7457 37.0932L-74.1765 47.8868ZM-55.0595 53.8896C-54.9971 53.9037 -54.9764 53.9575 -54.9975 54.0512C-55.0186 54.1448 -55.0604 54.1846 -55.1228 54.1706C-55.4194 54.1038 -55.8763 53.9845 -56.4937 53.8126C-57.111 53.6408 -57.5601 53.5233 -57.8411 53.46C-58.1845 53.3826 -58.6251 53.2998 -59.1628 53.2115C-59.6693 53.1303 -60.0553 53.0597 -60.3206 53C-60.3831 52.9859 -60.4037 52.9321 -60.3826 52.8384C-60.3616 52.7448 -60.3198 52.705 -60.2574 52.719C-59.6798 52.8491 -59.2461 52.8894 -58.9561 52.8399C-58.6661 52.7904 -58.4913 52.6329 -58.4315 52.3676C-58.3823 52.149 -58.4082 51.7906 -58.5092 51.2922L-59.9099 44.9495L-64.335 43.9529L-67.4243 48.2758C-67.7623 48.7573 -67.97 49.1698 -68.0474 49.5132C-68.2548 50.4341 -67.5936 51.0668 -66.0639 51.4113C-65.9859 51.4289 -65.9574 51.4845 -65.9785 51.5782C-65.9996 51.6718 -66.0492 51.7099 -66.1272 51.6923C-66.4082 51.629 -66.8105 51.522 -67.3342 51.3713C-67.9203 51.2065 -68.4319 51.0749 -68.8689 50.9764C-69.2747 50.885 -69.7465 50.7952 -70.2843 50.7069C-70.7596 50.6326 -71.1533 50.5604 -71.4655 50.4901C-71.5435 50.4725 -71.572 50.4169 -71.5509 50.3232C-71.5298 50.2296 -71.4803 50.1915 -71.4022 50.2091C-70.9652 50.3075 -70.5808 50.3121 -70.2491 50.2228C-69.8982 50.1214 -69.5444 49.8977 -69.1877 49.5516C-68.8118 49.1934 -68.3721 48.661 -67.8685 47.9544L-60.3023 37.407C-60.2605 37.3672 -60.2006 37.3561 -60.1226 37.3737C-60.0446 37.3913 -60.003 37.4252 -59.9979 37.4756L-57.093 50.3565C-56.8224 51.6311 -56.5455 52.5135 -56.2623 53.0037C-55.9756 53.4783 -55.5746 53.7736 -55.0595 53.8896ZM-64.0136 43.5087L-60.0333 44.4051L-61.1386 39.482L-64.0136 43.5087ZM-48.9755 43.0576C-49.1126 43.6664 -49.0838 44.2305 -48.8892 44.75C-48.6945 45.2694 -48.4217 45.7327 -48.0705 46.1398C-47.7159 46.5313 -47.2088 47.0473 -46.5495 47.6878C-45.8468 48.3545 -45.306 48.9027 -44.9272 49.3324C-44.5483 49.7621 -44.2608 50.2697 -44.0646 50.8551C-43.8493 51.4284 -43.8208 52.0663 -43.979 52.7687C-44.1477 53.5179 -44.4879 54.1547 -44.9996 54.6791C-45.5113 55.2035 -46.1744 55.5626 -46.9889 55.7564C-47.7843 55.9381 -48.6892 55.9147 -49.7038 55.6862C-50.9057 55.4155 -51.9447 54.8945 -52.8206 54.1232C-52.8881 54.0588 -52.9304 53.9919 -52.9476 53.9224C-52.9491 53.8565 -52.9436 53.7593 -52.9311 53.6309L-52.5184 50.3781C-52.5199 50.3122 -52.4799 50.2802 -52.3984 50.2821C-52.3012 50.2876 -52.2518 50.3233 -52.2503 50.3893C-52.2536 51.5694 -52.0111 52.6409 -51.5227 53.6037C-51.0187 54.57 -50.2048 55.1797 -49.081 55.4328C-48.3005 55.6086 -47.5975 55.5455 -46.9718 55.2436C-46.3271 54.9296 -45.8993 54.3043 -45.6883 53.3678C-45.5302 52.6654 -45.5492 52.0215 -45.7453 51.436C-45.9415 50.8506 -46.229 50.3431 -46.6079 49.9133C-46.9676 49.4715 -47.4789 48.9381 -48.1418 48.3132C-48.7891 47.6918 -49.2943 47.168 -49.6576 46.7418C-50.0052 46.3191 -50.271 45.8246 -50.4551 45.2583C-50.6392 44.692 -50.6557 44.0733 -50.5045 43.4021C-50.3288 42.6217 -49.9764 42.004 -49.4476 41.5491C-48.8996 41.0821 -48.2679 40.7897 -47.5526 40.672C-46.8181 40.5422 -46.0762 40.5616 -45.327 40.7304C-44.4061 40.9378 -43.5351 41.3307 -42.7142 41.9092C-42.4976 42.04 -42.4104 42.199 -42.4526 42.3864L-42.8951 45.1158C-42.9092 45.1783 -42.9552 45.2007 -43.0333 45.1831C-43.1113 45.1655 -43.1511 45.1238 -43.1526 45.0578C-43.0947 44.218 -43.2616 43.3932 -43.6532 42.5834C-44.0414 41.7579 -44.7505 41.2292 -45.7807 40.9972C-46.6548 40.8004 -47.3684 40.9103 -47.9215 41.3269C-48.4554 41.7315 -48.8067 42.3084 -48.9755 43.0576ZM-29.5544 60.224C-31.0061 59.8971 -32.226 59.2697 -33.2143 58.3419C-34.1835 57.402 -34.8502 56.2842 -35.2145 54.9885C-35.5596 53.6808 -35.5774 52.3401 -35.2681 50.9665C-34.906 49.3587 -34.1908 48.0765 -33.1226 47.1199C-32.0508 46.1476 -30.8177 45.5151 -29.4233 45.2223C-28.0132 44.933 -26.6449 44.9378 -25.3181 45.2366C-23.8352 45.5705 -22.611 46.2152 -21.6453 47.1707C-20.6761 48.1106 -20.0233 49.2171 -19.6867 50.4902C-19.3346 51.7667 -19.3027 53.045 -19.5909 54.3249C-19.9108 55.7453 -20.579 56.9643 -21.5953 57.9819C-22.6117 58.9994 -23.8294 59.7092 -25.2485 60.1113C-26.6519 60.5169 -28.0872 60.5544 -29.5544 60.224ZM-28.6242 59.9169C-27.5628 60.1559 -26.5527 60.1128 -25.5938 59.7875C-24.6193 59.4658 -23.7776 58.8599 -23.0687 57.9699C-22.3442 57.0834 -21.8273 55.9533 -21.518 54.5797C-21.1876 53.1125 -21.1672 51.7476 -21.4569 50.4851C-21.7466 49.2226 -22.3189 48.1589 -23.1737 47.294C-24.013 46.4325 -25.096 45.8524 -26.4227 45.5536C-28.1397 45.1669 -29.6069 45.4187 -30.8243 46.309C-32.0416 47.1993 -32.8682 48.6122 -33.3041 50.5477C-33.6346 52.015 -33.6637 53.4189 -33.3916 54.7594C-33.1159 56.0844 -32.5655 57.2088 -31.7404 58.1326C-30.9117 59.0409 -29.8729 59.6356 -28.6242 59.9169ZM-0.355743 51.1289C-0.308917 51.1394 -0.296049 51.1915 -0.317141 51.2852C-0.338233 51.3789 -0.372192 51.4204 -0.419018 51.4099C-1.0746 51.2622 -1.5911 51.3345 -1.96853 51.6267C-2.34595 51.9189 -2.62606 52.4709 -2.80885 53.2826L-5.58769 65.6215C-5.59473 65.6527 -5.63902 65.6674 -5.72058 65.6654C-5.80214 65.6634 -5.85502 65.6433 -5.8792 65.6051L-13.7124 50.1382L-13.8704 49.8566L-16.2116 60.2522C-16.3944 61.0639 -16.3857 61.6808 -16.1856 62.1031C-15.9664 62.5133 -15.5368 62.7905 -14.8968 62.9346C-14.85 62.9451 -14.8371 62.9972 -14.8582 63.0909C-14.8793 63.1846 -14.9133 63.2261 -14.9601 63.2156C-15.3503 63.1277 -15.6451 63.0531 -15.8445 62.9918L-17.0099 62.7047L-18.2093 62.4592C-18.4314 62.4256 -18.7531 62.3613 -19.1745 62.2664C-19.2058 62.2594 -19.2108 62.2091 -19.1897 62.1154C-19.1686 62.0218 -19.1425 61.9784 -19.1113 61.9855C-18.4401 62.1366 -17.9253 62.0721 -17.567 61.792C-17.2052 61.4963 -16.9329 60.9426 -16.7501 60.1309L-14.2824 49.1734C-14.7646 48.4743 -15.3179 48.0545 -15.9422 47.9139C-15.9891 47.9034 -16.0019 47.8513 -15.9808 47.7576C-15.9597 47.6639 -15.9258 47.6224 -15.879 47.6329L-15.0179 47.8515C-14.8341 47.9092 -14.5783 47.9751 -14.2505 48.0489C-13.9071 48.1262 -13.6244 48.1817 -13.4024 48.2153C-13.1803 48.2489 -13.0069 48.2798 -12.882 48.3079C-12.7571 48.336 -12.6783 48.3866 -12.6456 48.4595C-12.5937 48.5204 -12.5264 48.6586 -12.4437 48.874C-12.3197 49.1972 -12.1903 49.4969 -12.0558 49.7732L-5.53564 62.8779L-3.34737 53.1613C-3.16457 52.3496 -3.17323 51.7326 -3.37334 51.3103C-3.55784 50.8916 -3.97008 50.6101 -4.61005 50.466C-4.64127 50.459 -4.64633 50.4086 -4.62524 50.315C-4.60415 50.2213 -4.57799 50.178 -4.54678 50.185L-3.63892 50.4141C-3.17768 50.5508 -2.79877 50.6525 -2.5022 50.7193C-2.22124 50.7826 -1.82749 50.8549 -1.32097 50.9361L-0.355743 51.1289ZM1.65665 64.8667C1.55471 65.3194 1.52771 65.6577 1.57567 65.8817C1.62362 66.1057 1.76369 66.2849 1.99585 66.4192C2.23154 66.5378 2.63034 66.6605 3.19227 66.787L5.74435 67.3618C6.63407 67.5621 7.4058 67.4489 8.05954 67.0221C8.71328 66.5953 9.23498 65.9174 9.62463 64.9883C9.63517 64.9415 9.67771 64.9346 9.75224 64.9678C9.84589 64.9889 9.88745 65.0229 9.8769 65.0697C9.44465 66.3336 9.13361 67.387 8.94379 68.2299C8.91567 68.3548 8.87116 68.4432 8.81027 68.495C8.7529 68.5313 8.65397 68.5337 8.51349 68.502L-2.30359 66.0659C-2.33481 66.0589 -2.33987 66.0085 -2.31878 65.9149C-2.29769 65.8212 -2.27153 65.7779 -2.24031 65.785C-1.64717 65.9185 -1.20913 65.9762 -0.926201 65.9579C-0.627661 65.9431 -0.406957 65.837 -0.264089 65.6396C-0.117705 65.4265 0.00821625 65.0859 0.113675 64.6176L2.55505 53.7771C2.66051 53.3089 2.69102 52.9549 2.64657 52.7153C2.60213 52.4757 2.44822 52.2852 2.18483 52.1439C1.94057 51.9905 1.52187 51.847 0.928725 51.7134C0.897507 51.7064 0.892444 51.656 0.913535 51.5624C0.934627 51.4687 0.960782 51.4254 0.992 51.4324L2.13399 51.7142C2.78254 51.8931 3.30974 52.0282 3.71557 52.1196C4.15263 52.218 4.70246 52.3255 5.36507 52.4419L6.49419 52.6716C6.54102 52.6821 6.55389 52.7342 6.5328 52.8279C6.5117 52.9215 6.47775 52.9631 6.43092 52.9525C5.85338 52.8225 5.41359 52.7726 5.11153 52.803C4.8286 52.8213 4.60614 52.9352 4.44415 53.1447C4.30128 53.3422 4.17712 53.675 4.07166 54.1433L1.65665 64.8667ZM26.4839 57.1734C26.5151 57.1805 26.5202 57.2308 26.4991 57.3244C26.478 57.4181 26.4519 57.4614 26.4206 57.4544C25.8587 57.3278 25.2415 57.4102 24.5691 57.7016C23.9001 57.9774 23.2585 58.4233 22.6441 59.0394L18.4205 63.156L17.2235 68.4709C17.1145 68.9548 17.0823 69.3165 17.1267 69.5561C17.1712 69.7958 17.3173 69.9845 17.565 70.1223C17.8284 70.2636 18.2567 70.4011 18.8498 70.5346C18.8967 70.5452 18.9095 70.5973 18.8884 70.6909C18.8674 70.7846 18.8334 70.8261 18.7866 70.8156C18.3027 70.7066 17.9298 70.6145 17.668 70.5391L16.0343 70.1466L14.4135 69.8061C14.129 69.7585 13.7448 69.6802 13.261 69.5712C13.2141 69.5606 13.2013 69.5085 13.2224 69.4149C13.2434 69.3212 13.2774 69.2797 13.3242 69.2902C13.9174 69.4238 14.3554 69.4815 14.6383 69.4632C14.9369 69.4484 15.1576 69.3423 15.3005 69.1449C15.4625 68.9353 15.5962 68.5964 15.7016 68.1282L16.8142 63.1879L14.2089 56.6231C13.9265 55.8379 13.6201 55.2686 13.2896 54.9154C12.9592 54.5622 12.5364 54.3275 12.0213 54.2115C11.9745 54.201 11.9616 54.1489 11.9827 54.0552C12.0038 53.9616 12.0377 53.92 12.0846 53.9306C12.2719 53.9727 12.5493 54.0516 12.9169 54.1672L13.7311 54.3752C14.2618 54.4947 14.9365 54.6303 15.7552 54.7818L17.0248 55.0432C17.056 55.0502 17.0611 55.1005 17.04 55.1942C17.0189 55.2878 16.9928 55.3311 16.9615 55.3241C16.1499 55.1413 15.7071 55.2138 15.6333 55.5416C15.5946 55.7133 15.6287 55.926 15.7356 56.1797L18.2608 62.5542L22.1033 58.8192C22.5697 58.3502 22.8451 57.9284 22.9295 57.5538C23.056 56.9919 22.6979 56.616 21.855 56.4262C21.8238 56.4191 21.8187 56.3688 21.8398 56.2751C21.8609 56.1815 21.887 56.1382 21.9183 56.1452L23.0134 56.4164C23.5995 56.5812 24.1423 56.7199 24.6418 56.8324C24.9072 56.8921 25.2307 56.9486 25.6123 57.0017L26.4839 57.1734Z" fill="white"/>
<path d="M76.6149 81.7479C76.513 82.2006 76.486 82.5389 76.5339 82.763C76.5819 82.987 76.722 83.1661 76.9541 83.3004C77.1898 83.4191 77.5886 83.5417 78.1505 83.6682L80.7026 84.243C81.5923 84.4434 82.3641 84.3302 83.0178 83.9034C83.6716 83.4766 84.1932 82.7986 84.5829 81.8695C84.5934 81.8227 84.636 81.8159 84.7105 81.8491C84.8042 81.8702 84.8457 81.9041 84.8352 81.9509C84.4029 83.2149 84.0919 84.2683 83.9021 85.1111C83.8739 85.236 83.8294 85.3244 83.7685 85.3763C83.7112 85.4126 83.6122 85.4149 83.4718 85.3833L72.6547 82.9472C72.6235 82.9401 72.6184 82.8898 72.6395 82.7961C72.6606 82.7025 72.6867 82.6592 72.718 82.6662C73.3111 82.7998 73.7491 82.8574 74.0321 82.8391C74.3306 82.8244 74.5513 82.7183 74.6942 82.5208C74.8406 82.3078 74.9665 81.9671 75.0719 81.4989L77.5133 70.6584C77.6188 70.1901 77.6493 69.8361 77.6048 69.5965C77.5604 69.3569 77.4065 69.1664 77.1431 69.0251C76.8988 68.8717 76.4801 68.7282 75.887 68.5946C75.8558 68.5876 75.8507 68.5373 75.8718 68.4436C75.8929 68.3499 75.919 68.3066 75.9503 68.3137L77.0923 68.5955C77.7408 68.7743 78.268 68.9094 78.6738 69.0008C79.1109 69.0993 79.6607 69.2067 80.3233 69.3231L81.4525 69.5528C81.4993 69.5634 81.5122 69.6155 81.4911 69.7091C81.47 69.8028 81.436 69.8443 81.3892 69.8338C80.8117 69.7037 80.3719 69.6539 80.0698 69.6842C79.7869 69.7025 79.5644 69.8164 79.4024 70.026C79.2595 70.2234 79.1354 70.5562 79.0299 71.0245L76.6149 81.7479ZM100.428 76.5323C100.772 75.0026 100.265 74.0848 98.9073 73.779C98.8605 73.7685 98.8476 73.7164 98.8687 73.6227C98.8898 73.529 98.9238 73.4875 98.9706 73.498L99.9721 73.7482C100.527 73.906 100.968 74.0218 101.296 74.0956C101.561 74.1553 101.947 74.2258 102.454 74.3071L103.443 74.5052C103.474 74.5122 103.479 74.5625 103.458 74.6562C103.437 74.7499 103.411 74.7932 103.379 74.7861C102.131 74.5049 101.334 75.1291 100.989 76.6588L99.4919 83.3083C99.0877 85.1033 98.2718 86.3957 97.0444 87.1853C95.8204 87.9593 94.3655 88.1564 92.6797 87.7768C91.5247 87.5167 90.5611 87.0618 89.7889 86.4123C89.0323 85.7663 88.5053 84.9752 88.2077 84.0389C87.9293 83.0906 87.9166 82.0545 88.1697 80.9306L89.857 73.4383C89.9625 72.97 89.993 72.6161 89.9486 72.3764C89.9041 72.1368 89.7502 71.9464 89.4868 71.805C89.2426 71.6516 88.8239 71.5081 88.2307 71.3745C88.1995 71.3675 88.1944 71.3172 88.2155 71.2235C88.2366 71.1299 88.2628 71.0865 88.294 71.0936L89.436 71.3754C90.0845 71.5542 90.6117 71.6894 91.0176 71.7808C91.4546 71.8792 92.0044 71.9866 92.6671 72.103L93.7962 72.3327C93.843 72.3433 93.8559 72.3954 93.8348 72.489C93.8137 72.5827 93.7797 72.6242 93.7329 72.6137C93.1554 72.4836 92.7156 72.4338 92.4135 72.4641C92.1115 72.4945 91.8872 72.6162 91.7409 72.8293C91.598 73.0267 91.4738 73.3596 91.3684 73.8278L89.8761 80.4539C89.4648 82.2802 89.5621 83.7781 90.1679 84.9478C90.7929 86.1054 91.8546 86.8529 93.353 87.1904C94.7578 87.5068 95.9489 87.3158 96.9262 86.6174C97.907 85.9035 98.5732 84.7661 98.9248 83.2052L100.428 76.5323ZM115.599 92.3233C115.63 92.3303 115.635 92.3807 115.614 92.4743C115.593 92.568 115.567 92.6113 115.535 92.6043C115.13 92.5129 114.811 92.433 114.581 92.3647L113.298 92.0512L111.49 91.6686C111.206 91.621 110.821 91.5426 110.338 91.4337C110.306 91.4266 110.301 91.3763 110.322 91.2826C110.343 91.189 110.37 91.1457 110.401 91.1527C110.822 91.2476 111.134 91.2849 111.335 91.2647C111.536 91.2444 111.653 91.1641 111.685 91.0236C111.716 90.8831 111.685 90.6956 111.59 90.461L109.244 84.2744L105.326 87.7958C104.832 88.2421 104.548 88.6292 104.474 88.957C104.351 89.5033 104.75 89.8802 105.671 90.0876C105.718 90.0981 105.731 90.1502 105.71 90.2439C105.689 90.3375 105.655 90.3791 105.608 90.3685C105.14 90.2631 104.783 90.1744 104.536 90.1026L102.926 89.7153L101.937 89.5173C101.762 89.4942 101.472 89.437 101.066 89.3456C101.019 89.335 101.006 89.2829 101.027 89.1893C101.048 89.0956 101.082 89.0541 101.129 89.0646C102.206 89.3072 103.427 88.836 104.793 87.6511L109.112 83.8758L106.629 77.3139C106.364 76.5981 106.057 76.0697 105.707 75.7286C105.376 75.3753 104.938 75.1372 104.392 75.0141C104.361 75.0071 104.355 74.9568 104.377 74.8631C104.398 74.7695 104.424 74.7262 104.455 74.7332L105.339 74.957C105.738 75.0796 106.031 75.162 106.219 75.2042C106.749 75.3237 107.393 75.4522 108.149 75.5897L109.372 75.8405C109.419 75.851 109.432 75.9031 109.41 75.9968C109.389 76.0905 109.355 76.132 109.309 76.1215C108.903 76.0301 108.591 75.9927 108.374 76.0095C108.173 76.0297 108.055 76.1179 108.02 76.274C107.991 76.3989 108.023 76.5864 108.114 76.8365L110.404 82.8382L114.018 79.5684C114.573 79.0702 114.893 78.6338 114.977 78.2592C115.1 77.7129 114.725 77.3413 113.851 77.1444C113.804 77.1339 113.791 77.0818 113.812 76.9881C113.833 76.8945 113.867 76.8529 113.914 76.8635L114.962 77.1241C115.549 77.2889 116.084 77.4258 116.567 77.5348C116.848 77.5981 117.18 77.6563 117.561 77.7094L118.433 77.8811C118.48 77.8917 118.493 77.9438 118.472 78.0374C118.45 78.1311 118.416 78.1726 118.37 78.1621C117.855 78.0461 117.272 78.1199 116.622 78.3836C115.972 78.6473 115.281 79.0983 114.546 79.7366L110.535 83.2368L113.117 90.0176C113.385 90.7178 113.702 91.2402 114.067 91.5848C114.448 91.933 114.959 92.1792 115.599 92.3233ZM132.05 83.6538C132.394 82.1242 131.887 81.2064 130.529 80.9006C130.483 80.89 130.47 80.8379 130.491 80.7443C130.512 80.6506 130.546 80.6091 130.593 80.6196L131.594 80.8697C132.149 81.0275 132.59 81.1433 132.918 81.2171C133.184 81.2769 133.569 81.3474 134.076 81.4287L135.065 81.6267C135.096 81.6338 135.101 81.6841 135.08 81.7778C135.059 81.8714 135.033 81.9147 135.001 81.9077C133.753 81.6265 132.956 82.2507 132.612 83.7804L131.114 90.4298C130.71 92.2249 129.894 93.5172 128.666 94.3068C127.442 95.0808 125.988 95.278 124.302 94.8983C123.147 94.6382 122.183 94.1834 121.411 93.5339C120.654 92.8879 120.127 92.0967 119.83 91.1605C119.551 90.2121 119.539 89.176 119.792 88.0522L121.479 80.5598C121.585 80.0916 121.615 79.7376 121.571 79.498C121.526 79.2584 121.372 79.0679 121.109 78.9266C120.865 78.7732 120.446 78.6297 119.853 78.4961C119.822 78.4891 119.816 78.4387 119.838 78.3451C119.859 78.2514 119.885 78.2081 119.916 78.2151L121.058 78.4969C121.707 78.6758 122.234 78.8109 122.64 78.9023C123.077 79.0007 123.627 79.1082 124.289 79.2246L125.418 79.4543C125.465 79.4648 125.478 79.5169 125.457 79.6106C125.436 79.7042 125.402 79.7458 125.355 79.7352C124.777 79.6052 124.338 79.5553 124.036 79.5857C123.734 79.6161 123.509 79.7378 123.363 79.9508C123.22 80.1483 123.096 80.4811 122.99 80.9494L121.498 87.5755C121.087 89.4017 121.184 90.8997 121.79 92.0694C122.415 93.227 123.477 93.9745 124.975 94.3119C126.38 94.6283 127.571 94.4373 128.548 93.739C129.529 93.025 130.195 91.8876 130.547 90.3267L132.05 83.6538ZM148.345 99.698C148.376 99.705 148.381 99.7553 148.36 99.849C148.339 99.9426 148.313 99.986 148.281 99.9789L145.261 99.2987C144.871 99.2108 144.286 98.3822 143.508 96.8129C142.749 95.2315 141.874 93.0744 140.882 90.3417C140.483 90.3666 140.049 90.3264 139.581 90.2209C139.284 90.1541 138.936 90.0594 138.538 89.9368L137.283 95.5092C137.174 95.9931 137.141 96.3549 137.186 96.5945C137.23 96.8341 137.376 97.0228 137.624 97.1606C137.887 97.3019 138.316 97.4394 138.909 97.573C138.956 97.5835 138.969 97.6356 138.948 97.7293C138.926 97.8229 138.892 97.8645 138.846 97.8539C138.362 97.745 137.981 97.651 137.704 97.5721L136.093 97.1849L134.496 96.8497C134.211 96.8021 133.812 96.7202 133.297 96.6042C133.265 96.5972 133.26 96.5469 133.281 96.4532C133.303 96.3596 133.329 96.3162 133.36 96.3233C133.953 96.4569 134.399 96.5163 134.697 96.5015C134.999 96.4711 135.23 96.359 135.388 96.165C135.547 95.9711 135.679 95.64 135.784 95.1718L138.225 84.3313C138.331 83.863 138.354 83.5073 138.294 83.2642C138.249 83.0245 138.095 82.8341 137.832 82.6927C137.588 82.5393 137.169 82.3958 136.576 82.2623C136.529 82.2517 136.516 82.1996 136.537 82.106C136.558 82.0123 136.592 81.9707 136.639 81.9813L137.781 82.2631C138.43 82.4419 138.957 82.5771 139.363 82.6685C139.644 82.7317 139.911 82.7837 140.164 82.8243C140.417 82.865 140.639 82.8986 140.83 82.9252C141.34 82.9908 141.798 83.0693 142.204 83.1607C143.468 83.4455 144.386 83.9227 144.957 84.5925C145.527 85.2623 145.709 86.0576 145.502 86.9786C145.333 87.7278 144.954 88.3888 144.366 88.9616C143.782 89.5187 143.086 89.9115 142.28 90.1401C143.161 92.4212 143.927 94.2257 144.579 95.5534C145.235 96.8655 145.858 97.8504 146.448 98.5081C147.041 99.1502 147.673 99.5468 148.345 99.698ZM138.669 89.3515C139.046 89.5018 139.499 89.6367 140.03 89.7562C141.107 89.9988 141.93 89.9464 142.501 89.5992C143.074 89.2364 143.482 88.5165 143.725 87.4395C144.235 85.1762 143.537 83.8301 141.633 83.4012C141.212 83.3063 140.883 83.2733 140.647 83.3021C140.43 83.3188 140.248 83.4337 140.102 83.6468C139.959 83.8442 139.829 84.2005 139.713 84.7156L138.669 89.3515ZM153.13 99.0782C153.025 99.5465 152.992 99.9082 153.033 100.163C153.078 100.403 153.224 100.592 153.472 100.73C153.735 100.871 154.163 101.008 154.756 101.142C154.803 101.153 154.816 101.205 154.795 101.298C154.774 101.392 154.74 101.433 154.693 101.423C154.225 101.317 153.852 101.225 153.575 101.146L151.917 100.749L150.297 100.408C150.012 100.361 149.628 100.282 149.144 100.173C149.097 100.163 149.084 100.111 149.106 100.017C149.127 99.9233 149.161 99.8817 149.207 99.8923C149.801 100.026 150.239 100.084 150.522 100.065C150.82 100.05 151.041 99.9443 151.184 99.7469C151.346 99.5374 151.479 99.1985 151.585 98.7302L154.026 87.8897C154.132 87.4214 154.154 87.0657 154.094 86.8226C154.05 86.583 153.896 86.3925 153.633 86.2512C153.388 86.0978 152.97 85.9543 152.376 85.8207C152.33 85.8102 152.317 85.7581 152.338 85.6644C152.359 85.5708 152.393 85.5292 152.44 85.5397L153.582 85.8215C154.23 86.0004 154.765 86.1373 155.187 86.2322C155.655 86.3377 156.22 86.4486 156.883 86.565L157.989 86.7894C158.036 86.8 158.048 86.8521 158.027 86.9457C158.006 87.0394 157.972 87.0809 157.925 87.0704C157.348 86.9403 156.908 86.8905 156.606 86.9209C156.32 86.9548 156.095 87.0765 155.933 87.286C155.791 87.4834 155.666 87.8163 155.561 88.2846L153.13 99.0782ZM172.247 105.081C172.31 105.095 172.33 105.149 172.309 105.243C172.288 105.336 172.246 105.376 172.184 105.362C171.887 105.295 171.43 105.176 170.813 105.004C170.196 104.832 169.746 104.715 169.466 104.651C169.122 104.574 168.682 104.491 168.144 104.403C167.637 104.322 167.251 104.251 166.986 104.191C166.924 104.177 166.903 104.123 166.924 104.03C166.945 103.936 166.987 103.896 167.049 103.91C167.627 104.04 168.061 104.081 168.351 104.031C168.64 103.982 168.815 103.824 168.875 103.559C168.924 103.34 168.898 102.982 168.797 102.484L167.397 96.1409L162.972 95.1443L159.882 99.4672C159.544 99.9487 159.337 100.361 159.259 100.705C159.052 101.626 159.713 102.258 161.243 102.603C161.321 102.62 161.349 102.676 161.328 102.77C161.307 102.863 161.257 102.901 161.179 102.884C160.898 102.82 160.496 102.713 159.972 102.563C159.386 102.398 158.875 102.266 158.438 102.168C158.032 102.076 157.56 101.987 157.022 101.898C156.547 101.824 156.153 101.752 155.841 101.681C155.763 101.664 155.735 101.608 155.756 101.515C155.777 101.421 155.826 101.383 155.904 101.401C156.341 101.499 156.726 101.503 157.058 101.414C157.408 101.313 157.762 101.089 158.119 100.743C158.495 100.385 158.935 99.8524 159.438 99.1458L167.004 88.5984C167.046 88.5586 167.106 88.5475 167.184 88.5651C167.262 88.5827 167.304 88.6166 167.309 88.667L170.214 101.548C170.484 102.823 170.761 103.705 171.044 104.195C171.331 104.67 171.732 104.965 172.247 105.081ZM163.293 94.7001L167.273 95.5965L166.168 90.6734L163.293 94.7001ZM178.331 94.2491C178.194 94.8578 178.223 95.4219 178.417 95.9414C178.612 96.4608 178.885 96.9241 179.236 97.3312C179.591 97.7227 180.098 98.2387 180.757 98.8792C181.46 99.5459 182.001 100.094 182.379 100.524C182.758 100.954 183.046 101.461 183.242 102.047C183.457 102.62 183.486 103.258 183.328 103.96C183.159 104.709 182.819 105.346 182.307 105.871C181.795 106.395 181.132 106.754 180.318 106.948C179.522 107.129 178.617 107.106 177.603 106.878C176.401 106.607 175.362 106.086 174.486 105.315C174.419 105.25 174.376 105.183 174.359 105.114C174.358 105.048 174.363 104.951 174.376 104.822L174.788 101.57C174.787 101.504 174.827 101.472 174.908 101.474C175.005 101.479 175.055 101.515 175.056 101.581C175.053 102.761 175.296 103.832 175.784 104.795C176.288 105.761 177.102 106.371 178.226 106.624C179.006 106.8 179.709 106.737 180.335 106.435C180.98 106.121 181.407 105.496 181.618 104.559C181.776 103.857 181.757 103.213 181.561 102.627C181.365 102.042 181.078 101.534 180.699 101.105C180.339 100.663 179.828 100.13 179.165 99.5046C178.518 98.8832 178.012 98.3594 177.649 97.9332C177.301 97.5105 177.036 97.016 176.852 96.4497C176.667 95.8835 176.651 95.2647 176.802 94.5935C176.978 93.8131 177.33 93.1954 177.859 92.7405C178.407 92.2735 179.039 91.9811 179.754 91.8634C180.489 91.7336 181.23 91.753 181.98 91.9218C182.901 92.1292 183.772 92.5221 184.592 93.1006C184.809 93.2314 184.896 93.3905 184.854 93.5778L184.412 96.3072C184.397 96.3697 184.351 96.3921 184.273 96.3745C184.195 96.357 184.156 96.3152 184.154 96.2492C184.212 95.4094 184.045 94.5846 183.653 93.7748C183.265 92.9493 182.556 92.4206 181.526 92.1886C180.652 91.9918 179.938 92.1017 179.385 92.5183C178.851 92.9229 178.5 93.4998 178.331 94.2491ZM197.752 111.415C196.301 111.088 195.081 110.461 194.092 109.533C193.123 108.593 192.456 107.476 192.092 106.18C191.747 104.872 191.729 103.531 192.039 102.158C192.401 100.55 193.116 99.268 194.184 98.3113C195.256 97.339 196.489 96.7065 197.883 96.4137C199.293 96.1244 200.662 96.1292 201.989 96.428C203.471 96.7619 204.696 97.4066 205.661 98.3622C206.631 99.3021 207.283 100.409 207.62 101.682C207.972 102.958 208.004 104.236 207.716 105.516C207.396 106.937 206.728 108.156 205.711 109.173C204.695 110.191 203.477 110.901 202.058 111.303C200.655 111.708 199.219 111.746 197.752 111.415ZM198.682 111.108C199.744 111.347 200.754 111.304 201.713 110.979C202.687 110.657 203.529 110.051 204.238 109.161C204.962 108.275 205.479 107.145 205.789 105.771C206.119 104.304 206.139 102.939 205.85 101.677C205.56 100.414 204.988 99.3503 204.133 98.4854C203.294 97.6239 202.211 97.0438 200.884 96.745C199.167 96.3583 197.7 96.6101 196.482 97.5004C195.265 98.3907 194.438 99.8036 194.003 101.739C193.672 103.206 193.643 104.61 193.915 105.951C194.191 107.276 194.741 108.4 195.566 109.324C196.395 110.232 197.434 110.827 198.682 111.108ZM226.951 102.32C226.998 102.331 227.011 102.383 226.989 102.477C226.968 102.57 226.934 102.612 226.888 102.601C226.232 102.454 225.716 102.526 225.338 102.818C224.961 103.11 224.681 103.662 224.498 104.474L221.719 116.813C221.712 116.844 221.668 116.859 221.586 116.857C221.504 116.855 221.452 116.835 221.427 116.796L213.594 101.33L213.436 101.048L211.095 111.444C210.912 112.255 210.921 112.872 211.121 113.295C211.34 113.705 211.77 113.982 212.41 114.126C212.457 114.137 212.47 114.189 212.448 114.282C212.427 114.376 212.393 114.418 212.347 114.407C211.956 114.319 211.662 114.244 211.462 114.183L210.297 113.896L209.097 113.651C208.875 113.617 208.554 113.553 208.132 113.458C208.101 113.451 208.096 113.4 208.117 113.307C208.138 113.213 208.164 113.17 208.195 113.177C208.867 113.328 209.381 113.264 209.74 112.983C210.101 112.688 210.374 112.134 210.557 111.322L213.024 100.365C212.542 99.6657 211.989 99.2459 211.364 99.1053C211.318 99.0948 211.305 99.0427 211.326 98.949C211.347 98.8554 211.381 98.8138 211.428 98.8243L212.289 99.0429C212.473 99.1007 212.728 99.1665 213.056 99.2403C213.399 99.3176 213.682 99.3731 213.904 99.4067C214.126 99.4403 214.3 99.4712 214.425 99.4993C214.549 99.5274 214.628 99.578 214.661 99.6509C214.713 99.7118 214.78 99.85 214.863 100.065C214.987 100.389 215.116 100.688 215.251 100.965L221.771 114.069L223.959 104.353C224.142 103.541 224.133 102.924 223.933 102.502C223.749 102.083 223.337 101.802 222.697 101.657C222.665 101.65 222.66 101.6 222.681 101.506C222.702 101.413 222.729 101.369 222.76 101.376L223.668 101.606C224.129 101.742 224.508 101.844 224.804 101.911C225.085 101.974 225.479 102.046 225.986 102.128L226.951 102.32ZM228.963 116.058C228.861 116.511 228.834 116.849 228.882 117.073C228.93 117.297 229.07 117.476 229.302 117.611C229.538 117.729 229.937 117.852 230.499 117.978L233.051 118.553C233.941 118.754 234.712 118.64 235.366 118.214C236.02 117.787 236.542 117.109 236.931 116.18C236.942 116.133 236.984 116.126 237.059 116.159C237.153 116.18 237.194 116.214 237.184 116.261C236.751 117.525 236.44 118.578 236.25 119.421C236.222 119.546 236.178 119.635 236.117 119.686C236.06 119.723 235.961 119.725 235.82 119.693L225.003 117.257C224.972 117.25 224.967 117.2 224.988 117.106C225.009 117.013 225.035 116.969 225.066 116.976C225.659 117.11 226.098 117.168 226.38 117.149C226.679 117.135 226.9 117.028 227.043 116.831C227.189 116.618 227.315 116.277 227.42 115.809L229.862 104.969C229.967 104.5 229.998 104.146 229.953 103.907C229.909 103.667 229.755 103.477 229.491 103.335C229.247 103.182 228.829 103.038 228.235 102.905C228.204 102.898 228.199 102.847 228.22 102.754C228.241 102.66 228.267 102.617 228.299 102.624L229.441 102.906C230.089 103.084 230.616 103.22 231.022 103.311C231.459 103.409 232.009 103.517 232.672 103.633L233.801 103.863C233.848 103.874 233.861 103.926 233.839 104.019C233.818 104.113 233.784 104.154 233.738 104.144C233.16 104.014 232.72 103.964 232.418 103.994C232.135 104.013 231.913 104.127 231.751 104.336C231.608 104.534 231.484 104.866 231.378 105.335L228.963 116.058ZM253.791 108.365C253.822 108.372 253.827 108.422 253.806 108.516C253.785 108.61 253.758 108.653 253.727 108.646C253.165 108.519 252.548 108.602 251.876 108.893C251.207 109.169 250.565 109.615 249.951 110.231L245.727 114.347L244.53 119.662C244.421 120.146 244.389 120.508 244.433 120.748C244.478 120.987 244.624 121.176 244.872 121.314C245.135 121.455 245.563 121.592 246.156 121.726C246.203 121.737 246.216 121.789 246.195 121.882C246.174 121.976 246.14 122.018 246.093 122.007C245.609 121.898 245.236 121.806 244.975 121.73L243.341 121.338L241.72 120.998C241.436 120.95 241.051 120.872 240.568 120.763C240.521 120.752 240.508 120.7 240.529 120.606C240.55 120.513 240.584 120.471 240.631 120.482C241.224 120.615 241.662 120.673 241.945 120.655C242.244 120.64 242.464 120.534 242.607 120.336C242.769 120.127 242.903 119.788 243.008 119.32L244.121 114.379L241.516 107.814C241.233 107.029 240.927 106.46 240.596 106.107C240.266 105.754 239.843 105.519 239.328 105.403C239.281 105.392 239.268 105.34 239.289 105.247C239.31 105.153 239.344 105.111 239.391 105.122C239.579 105.164 239.856 105.243 240.224 105.359L241.038 105.567C241.568 105.686 242.243 105.822 243.062 105.973L244.331 106.235C244.363 106.242 244.368 106.292 244.347 106.386C244.326 106.479 244.299 106.523 244.268 106.516C243.457 106.333 243.014 106.405 242.94 106.733C242.901 106.905 242.935 107.117 243.042 107.371L245.567 113.746L249.41 110.011C249.876 109.542 250.152 109.12 250.236 108.745C250.363 108.183 250.005 107.807 249.162 107.618C249.13 107.611 249.125 107.56 249.146 107.467C249.168 107.373 249.194 107.33 249.225 107.337L250.32 107.608C250.906 107.773 251.449 107.911 251.948 108.024C252.214 108.084 252.537 108.14 252.919 108.193L253.791 108.365Z" fill="white"/>
<path d="M303.922 132.94C303.82 133.393 303.793 133.731 303.841 133.955C303.889 134.179 304.029 134.358 304.261 134.492C304.497 134.611 304.896 134.734 305.458 134.86L308.01 135.435C308.899 135.635 309.671 135.522 310.325 135.095C310.979 134.668 311.5 133.991 311.89 133.061C311.901 133.015 311.943 133.008 312.018 133.041C312.111 133.062 312.153 133.096 312.142 133.143C311.71 134.407 311.399 135.46 311.209 136.303C311.181 136.428 311.137 136.516 311.076 136.568C311.018 136.604 310.919 136.607 310.779 136.575L299.962 134.139C299.931 134.132 299.926 134.082 299.947 133.988C299.968 133.894 299.994 133.851 300.025 133.858C300.618 133.992 301.056 134.049 301.339 134.031C301.638 134.016 301.858 133.91 302.001 133.713C302.148 133.5 302.274 133.159 302.379 132.691L304.82 121.85C304.926 121.382 304.956 121.028 304.912 120.788C304.868 120.549 304.714 120.358 304.45 120.217C304.206 120.064 303.787 119.92 303.194 119.787C303.163 119.779 303.158 119.729 303.179 119.635C303.2 119.542 303.226 119.499 303.257 119.506L304.399 119.787C305.048 119.966 305.575 120.101 305.981 120.193C306.418 120.291 306.968 120.399 307.63 120.515L308.76 120.745C308.806 120.755 308.819 120.807 308.798 120.901C308.777 120.995 308.743 121.036 308.696 121.026C308.119 120.896 307.679 120.846 307.377 120.876C307.094 120.894 306.872 121.008 306.71 121.218C306.567 121.415 306.443 121.748 306.337 122.216L303.922 132.94ZM327.735 127.724C328.079 126.194 327.572 125.277 326.214 124.971C326.168 124.96 326.155 124.908 326.176 124.815C326.197 124.721 326.231 124.679 326.278 124.69L327.279 124.94C327.834 125.098 328.275 125.214 328.603 125.287C328.869 125.347 329.255 125.418 329.761 125.499L330.75 125.697C330.781 125.704 330.786 125.754 330.765 125.848C330.744 125.942 330.718 125.985 330.686 125.978C329.438 125.697 328.641 126.321 328.297 127.851L326.799 134.5C326.395 136.295 325.579 137.588 324.351 138.377C323.128 139.151 321.673 139.348 319.987 138.969C318.832 138.709 317.868 138.254 317.096 137.604C316.339 136.958 315.812 136.167 315.515 135.231C315.236 134.282 315.224 133.246 315.477 132.123L317.164 124.63C317.27 124.162 317.3 123.808 317.256 123.568C317.211 123.329 317.057 123.138 316.794 122.997C316.55 122.844 316.131 122.7 315.538 122.566C315.507 122.559 315.502 122.509 315.523 122.415C315.544 122.322 315.57 122.278 315.601 122.285L316.743 122.567C317.392 122.746 317.919 122.881 318.325 122.973C318.762 123.071 319.312 123.178 319.974 123.295L321.103 123.525C321.15 123.535 321.163 123.587 321.142 123.681C321.121 123.775 321.087 123.816 321.04 123.806C320.462 123.676 320.023 123.626 319.721 123.656C319.419 123.686 319.194 123.808 319.048 124.021C318.905 124.219 318.781 124.551 318.675 125.02L317.183 131.646C316.772 133.472 316.869 134.97 317.475 136.14C318.1 137.297 319.162 138.045 320.66 138.382C322.065 138.699 323.256 138.508 324.233 137.809C325.214 137.095 325.88 135.958 326.232 134.397L327.735 127.724ZM342.906 143.515C342.937 143.522 342.942 143.573 342.921 143.666C342.9 143.76 342.874 143.803 342.843 143.796C342.437 143.705 342.118 143.625 341.888 143.557L340.605 143.243L338.797 142.861C338.513 142.813 338.129 142.735 337.645 142.626C337.613 142.619 337.608 142.568 337.63 142.475C337.651 142.381 337.677 142.338 337.708 142.345C338.129 142.44 338.441 142.477 338.642 142.457C338.844 142.436 338.96 142.356 338.992 142.215C339.023 142.075 338.992 141.887 338.897 141.653L336.551 135.466L332.634 138.988C332.139 139.434 331.855 139.821 331.782 140.149C331.659 140.695 332.057 141.072 332.978 141.279C333.025 141.29 333.038 141.342 333.017 141.436C332.996 141.529 332.962 141.571 332.915 141.56C332.447 141.455 332.09 141.366 331.843 141.294L330.233 140.907L329.244 140.709C329.069 140.686 328.779 140.629 328.373 140.537C328.326 140.527 328.313 140.475 328.334 140.381C328.355 140.288 328.389 140.246 328.436 140.257C329.513 140.499 330.735 140.028 332.1 138.843L336.419 135.068L333.936 128.506C333.671 127.79 333.364 127.262 333.014 126.92C332.684 126.567 332.245 126.329 331.699 126.206C331.668 126.199 331.663 126.149 331.684 126.055C331.705 125.961 331.731 125.918 331.762 125.925L332.647 126.149C333.045 126.271 333.338 126.354 333.526 126.396C334.056 126.516 334.7 126.644 335.456 126.782L336.679 127.032C336.726 127.043 336.739 127.095 336.718 127.189C336.697 127.282 336.663 127.324 336.616 127.313C336.21 127.222 335.898 127.185 335.682 127.201C335.48 127.222 335.362 127.31 335.327 127.466C335.299 127.591 335.33 127.778 335.421 128.028L337.711 134.03L341.325 130.76C341.881 130.262 342.2 129.826 342.285 129.451C342.408 128.905 342.032 128.533 341.158 128.336C341.111 128.326 341.098 128.274 341.119 128.18C341.14 128.086 341.174 128.045 341.221 128.055L342.27 128.316C342.856 128.481 343.391 128.618 343.875 128.727C344.156 128.79 344.487 128.848 344.868 128.901L345.74 129.073C345.787 129.084 345.8 129.136 345.779 129.229C345.758 129.323 345.724 129.365 345.677 129.354C345.162 129.238 344.579 129.312 343.929 129.575C343.28 129.839 342.588 130.29 341.853 130.928L337.842 134.429L340.424 141.21C340.692 141.91 341.009 142.432 341.375 142.777C341.755 143.125 342.266 143.371 342.906 143.515ZM359.357 134.846C359.701 133.316 359.194 132.398 357.836 132.092C357.79 132.082 357.777 132.03 357.798 131.936C357.819 131.843 357.853 131.801 357.9 131.811L358.901 132.062C359.456 132.219 359.898 132.335 360.225 132.409C360.491 132.469 360.877 132.539 361.383 132.621L362.372 132.819C362.403 132.826 362.408 132.876 362.387 132.97C362.366 133.063 362.34 133.107 362.308 133.1C361.06 132.818 360.263 133.443 359.919 134.972L358.421 141.622C358.017 143.417 357.201 144.709 355.974 145.499C354.75 146.273 353.295 146.47 351.609 146.09C350.454 145.83 349.49 145.375 348.718 144.726C347.962 144.08 347.434 143.289 347.137 142.352C346.858 141.404 346.846 140.368 347.099 139.244L348.786 131.752C348.892 131.283 348.922 130.93 348.878 130.69C348.833 130.45 348.679 130.26 348.416 130.118C348.172 129.965 347.753 129.822 347.16 129.688C347.129 129.681 347.124 129.631 347.145 129.537C347.166 129.443 347.192 129.4 347.223 129.407L348.365 129.689C349.014 129.868 349.541 130.003 349.947 130.094C350.384 130.193 350.934 130.3 351.596 130.416L352.725 130.646C352.772 130.657 352.785 130.709 352.764 130.802C352.743 130.896 352.709 130.938 352.662 130.927C352.085 130.797 351.645 130.747 351.343 130.778C351.041 130.808 350.816 130.93 350.67 131.143C350.527 131.34 350.403 131.673 350.298 132.141L348.805 138.767C348.394 140.594 348.491 142.092 349.097 143.261C349.722 144.419 350.784 145.166 352.282 145.504C353.687 145.82 354.878 145.629 355.855 144.931C356.836 144.217 357.502 143.08 357.854 141.519L359.357 134.846ZM375.652 150.89C375.683 150.897 375.688 150.947 375.667 151.041C375.646 151.135 375.62 151.178 375.588 151.171L372.568 150.491C372.178 150.403 371.594 149.574 370.815 148.005C370.056 146.423 369.181 144.266 368.189 141.534C367.79 141.559 367.356 141.518 366.888 141.413C366.591 141.346 366.243 141.251 365.845 141.129L364.59 146.701C364.481 147.185 364.448 147.547 364.493 147.786C364.537 148.026 364.683 148.215 364.931 148.353C365.195 148.494 365.623 148.631 366.216 148.765C366.263 148.775 366.276 148.828 366.255 148.921C366.234 149.015 366.2 149.056 366.153 149.046C365.669 148.937 365.288 148.843 365.011 148.764L363.4 148.377L361.803 148.042C361.519 147.994 361.119 147.912 360.604 147.796C360.573 147.789 360.567 147.739 360.589 147.645C360.61 147.551 360.636 147.508 360.667 147.515C361.26 147.649 361.706 147.708 362.005 147.693C362.307 147.663 362.537 147.551 362.695 147.357C362.854 147.163 362.986 146.832 363.091 146.364L365.533 135.523C365.638 135.055 365.661 134.699 365.601 134.456C365.556 134.216 365.402 134.026 365.139 133.885C364.895 133.731 364.476 133.588 363.883 133.454C363.836 133.444 363.823 133.392 363.844 133.298C363.865 133.204 363.899 133.163 363.946 133.173L365.088 133.455C365.737 133.634 366.264 133.769 366.67 133.86C366.951 133.924 367.218 133.976 367.471 134.016C367.724 134.057 367.946 134.09 368.137 134.117C368.647 134.183 369.105 134.261 369.511 134.353C370.775 134.637 371.693 135.115 372.264 135.784C372.834 136.454 373.016 137.25 372.809 138.17C372.64 138.92 372.262 139.581 371.673 140.153C371.089 140.711 370.393 141.103 369.587 141.332C370.468 143.613 371.234 145.418 371.886 146.745C372.542 148.057 373.165 149.042 373.755 149.7C374.348 150.342 374.981 150.739 375.652 150.89ZM365.976 140.543C366.353 140.694 366.806 140.829 367.337 140.948C368.414 141.191 369.237 141.138 369.808 140.791C370.381 140.428 370.79 139.708 371.032 138.631C371.542 136.368 370.845 135.022 368.94 134.593C368.519 134.498 368.19 134.465 367.954 134.494C367.737 134.511 367.555 134.626 367.409 134.839C367.266 135.036 367.137 135.392 367.021 135.907L365.976 140.543ZM380.437 150.27C380.332 150.738 380.3 151.1 380.34 151.355C380.385 151.595 380.531 151.784 380.779 151.922C381.042 152.063 381.47 152.2 382.064 152.334C382.11 152.344 382.123 152.397 382.102 152.49C382.081 152.584 382.047 152.625 382 152.615C381.532 152.509 381.159 152.417 380.882 152.338L379.225 151.941L377.604 151.6C377.319 151.552 376.935 151.474 376.451 151.365C376.404 151.355 376.392 151.302 376.413 151.209C376.434 151.115 376.468 151.074 376.515 151.084C377.108 151.218 377.546 151.275 377.829 151.257C378.127 151.242 378.348 151.136 378.491 150.939C378.653 150.729 378.786 150.39 378.892 149.922L381.333 139.082C381.439 138.613 381.461 138.258 381.401 138.015C381.357 137.775 381.203 137.584 380.94 137.443C380.695 137.29 380.277 137.146 379.684 137.013C379.637 137.002 379.624 136.95 379.645 136.856C379.666 136.763 379.7 136.721 379.747 136.732L380.889 137.013C381.537 137.192 382.072 137.329 382.494 137.424C382.962 137.53 383.528 137.64 384.19 137.757L385.296 137.981C385.343 137.992 385.356 138.044 385.334 138.138C385.313 138.231 385.279 138.273 385.233 138.262C384.655 138.132 384.215 138.082 383.913 138.113C383.627 138.147 383.403 138.268 383.241 138.478C383.098 138.675 382.974 139.008 382.868 139.476L380.437 150.27ZM399.554 156.273C399.617 156.287 399.637 156.341 399.616 156.434C399.595 156.528 399.553 156.568 399.491 156.554C399.194 156.487 398.737 156.368 398.12 156.196C397.503 156.024 397.054 155.907 396.773 155.843C396.429 155.766 395.989 155.683 395.451 155.595C394.944 155.514 394.558 155.443 394.293 155.383C394.231 155.369 394.21 155.315 394.231 155.222C394.252 155.128 394.294 155.088 394.356 155.102C394.934 155.232 395.368 155.273 395.658 155.223C395.948 155.174 396.122 155.016 396.182 154.751C396.231 154.532 396.206 154.174 396.105 153.676L394.704 147.333L390.279 146.336L387.189 150.659C386.851 151.141 386.644 151.553 386.566 151.896C386.359 152.817 387.02 153.45 388.55 153.795C388.628 153.812 388.656 153.868 388.635 153.961C388.614 154.055 388.565 154.093 388.487 154.076C388.206 154.012 387.803 153.905 387.28 153.755C386.693 153.59 386.182 153.458 385.745 153.36C385.339 153.268 384.867 153.178 384.329 153.09C383.854 153.016 383.46 152.944 383.148 152.873C383.07 152.856 383.042 152.8 383.063 152.707C383.084 152.613 383.134 152.575 383.212 152.592C383.649 152.691 384.033 152.695 384.365 152.606C384.716 152.505 385.069 152.281 385.426 151.935C385.802 151.577 386.242 151.044 386.745 150.338L394.311 139.79C394.353 139.751 394.413 139.739 394.491 139.757C394.569 139.775 394.611 139.809 394.616 139.859L397.521 152.74C397.791 154.014 398.068 154.897 398.351 155.387C398.638 155.862 399.039 156.157 399.554 156.273ZM390.6 145.892L394.581 146.788L393.475 141.865L390.6 145.892ZM405.638 145.441C405.501 146.05 405.53 146.614 405.725 147.133C405.919 147.653 406.192 148.116 406.543 148.523C406.898 148.915 407.405 149.431 408.064 150.071C408.767 150.738 409.308 151.286 409.687 151.716C410.065 152.145 410.353 152.653 410.549 153.238C410.764 153.812 410.793 154.45 410.635 155.152C410.466 155.901 410.126 156.538 409.614 157.062C409.102 157.587 408.439 157.946 407.625 158.14C406.829 158.321 405.925 158.298 404.91 158.069C403.708 157.799 402.669 157.278 401.793 156.507C401.726 156.442 401.683 156.375 401.666 156.306C401.665 156.24 401.67 156.143 401.683 156.014L402.095 152.761C402.094 152.695 402.134 152.663 402.215 152.665C402.313 152.671 402.362 152.707 402.363 152.773C402.36 153.953 402.603 155.024 403.091 155.987C403.595 156.953 404.409 157.563 405.533 157.816C406.313 157.992 407.016 157.929 407.642 157.627C408.287 157.313 408.715 156.688 408.925 155.751C409.084 155.049 409.065 154.405 408.868 153.819C408.672 153.234 408.385 152.726 408.006 152.297C407.646 151.855 407.135 151.321 406.472 150.697C405.825 150.075 405.319 149.551 404.956 149.125C404.609 148.702 404.343 148.208 404.159 147.642C403.975 147.075 403.958 146.457 404.109 145.785C404.285 145.005 404.637 144.387 405.166 143.932C405.714 143.465 406.346 143.173 407.061 143.055C407.796 142.925 408.538 142.945 409.287 143.114C410.208 143.321 411.079 143.714 411.9 144.293C412.116 144.423 412.203 144.582 412.161 144.77L411.719 147.499C411.705 147.562 411.659 147.584 411.581 147.566C411.502 147.549 411.463 147.507 411.461 147.441C411.519 146.601 411.352 145.777 410.961 144.967C410.572 144.141 409.863 143.613 408.833 143.381C407.959 143.184 407.245 143.294 406.692 143.71C406.158 144.115 405.807 144.692 405.638 145.441ZM425.059 162.607C423.608 162.28 422.388 161.653 421.399 160.725C420.43 159.785 419.764 158.668 419.399 157.372C419.054 156.064 419.036 154.723 419.346 153.35C419.708 151.742 420.423 150.46 421.491 149.503C422.563 148.531 423.796 147.898 425.191 147.606C426.601 147.316 427.969 147.321 429.296 147.62C430.779 147.954 432.003 148.599 432.968 149.554C433.938 150.494 434.591 151.6 434.927 152.873C435.279 154.15 435.311 155.428 435.023 156.708C434.703 158.129 434.035 159.348 433.018 160.365C432.002 161.383 430.784 162.093 429.365 162.495C427.962 162.9 426.527 162.938 425.059 162.607ZM425.99 162.3C427.051 162.539 428.061 162.496 429.02 162.171C429.995 161.849 430.836 161.243 431.545 160.353C432.27 159.467 432.786 158.337 433.096 156.963C433.426 155.496 433.447 154.131 433.157 152.868C432.867 151.606 432.295 150.542 431.44 149.677C430.601 148.816 429.518 148.236 428.191 147.937C426.474 147.55 425.007 147.802 423.79 148.692C422.572 149.583 421.746 150.996 421.31 152.931C420.979 154.398 420.95 155.802 421.222 157.143C421.498 158.468 422.048 159.592 422.873 160.516C423.702 161.424 424.741 162.019 425.99 162.3ZM454.258 153.512C454.305 153.523 454.318 153.575 454.297 153.669C454.276 153.762 454.242 153.804 454.195 153.793C453.539 153.646 453.023 153.718 452.645 154.01C452.268 154.302 451.988 154.854 451.805 155.666L449.026 168.005C449.019 168.036 448.975 168.051 448.893 168.049C448.812 168.047 448.759 168.027 448.735 167.988L440.901 152.521L440.743 152.24L438.402 162.635C438.219 163.447 438.228 164.064 438.428 164.486C438.647 164.897 439.077 165.174 439.717 165.318C439.764 165.328 439.777 165.381 439.756 165.474C439.734 165.568 439.701 165.609 439.654 165.599C439.263 165.511 438.969 165.436 438.769 165.375L437.604 165.088L436.404 164.843C436.182 164.809 435.861 164.745 435.439 164.65C435.408 164.643 435.403 164.592 435.424 164.499C435.445 164.405 435.471 164.362 435.503 164.369C436.174 164.52 436.688 164.455 437.047 164.175C437.409 163.88 437.681 163.326 437.864 162.514L440.331 151.557C439.849 150.858 439.296 150.438 438.672 150.297C438.625 150.287 438.612 150.235 438.633 150.141C438.654 150.047 438.688 150.006 438.735 150.016L439.596 150.235C439.78 150.293 440.035 150.358 440.363 150.432C440.707 150.51 440.989 150.565 441.211 150.599C441.433 150.632 441.607 150.663 441.732 150.691C441.857 150.719 441.935 150.77 441.968 150.843C442.02 150.904 442.087 151.042 442.17 151.257C442.294 151.58 442.423 151.88 442.558 152.157L449.078 165.261L451.266 155.545C451.449 154.733 451.441 154.116 451.24 153.694C451.056 153.275 450.644 152.993 450.004 152.849C449.972 152.842 449.967 152.792 449.989 152.698C450.01 152.605 450.036 152.561 450.067 152.568L450.975 152.797C451.436 152.934 451.815 153.036 452.112 153.103C452.393 153.166 452.786 153.238 453.293 153.319L454.258 153.512ZM456.27 167.25C456.168 167.703 456.141 168.041 456.189 168.265C456.237 168.489 456.377 168.668 456.61 168.802C456.845 168.921 457.244 169.044 457.806 169.17L460.358 169.745C461.248 169.945 462.02 169.832 462.673 169.405C463.327 168.979 463.849 168.301 464.238 167.372C464.249 167.325 464.291 167.318 464.366 167.351C464.46 167.372 464.501 167.406 464.491 167.453C464.058 168.717 463.747 169.77 463.558 170.613C463.529 170.738 463.485 170.826 463.424 170.878C463.367 170.915 463.268 170.917 463.127 170.885L452.31 168.449C452.279 168.442 452.274 168.392 452.295 168.298C452.316 168.205 452.342 168.161 452.373 168.168C452.967 168.302 453.405 168.359 453.688 168.341C453.986 168.326 454.207 168.22 454.35 168.023C454.496 167.81 454.622 167.469 454.727 167.001L457.169 156.16C457.274 155.692 457.305 155.338 457.26 155.099C457.216 154.859 457.062 154.669 456.799 154.527C456.554 154.374 456.136 154.23 455.542 154.097C455.511 154.09 455.506 154.039 455.527 153.946C455.548 153.852 455.575 153.809 455.606 153.816L456.748 154.098C457.396 154.276 457.924 154.412 458.329 154.503C458.766 154.601 459.316 154.709 459.979 154.825L461.108 155.055C461.155 155.065 461.168 155.118 461.147 155.211C461.125 155.305 461.092 155.346 461.045 155.336C460.467 155.206 460.027 155.156 459.725 155.186C459.442 155.205 459.22 155.318 459.058 155.528C458.915 155.725 458.791 156.058 458.685 156.527L456.27 167.25ZM481.098 159.557C481.129 159.564 481.134 159.614 481.113 159.708C481.092 159.801 481.066 159.845 481.034 159.838C480.472 159.711 479.855 159.794 479.183 160.085C478.514 160.361 477.872 160.807 477.258 161.423L473.034 165.539L471.837 170.854C471.728 171.338 471.696 171.7 471.74 171.939C471.785 172.179 471.931 172.368 472.179 172.506C472.442 172.647 472.87 172.784 473.464 172.918C473.51 172.928 473.523 172.981 473.502 173.074C473.481 173.168 473.447 173.209 473.4 173.199C472.916 173.09 472.544 172.998 472.282 172.922L470.648 172.53L469.027 172.189C468.743 172.142 468.359 172.063 467.875 171.954C467.828 171.944 467.815 171.892 467.836 171.798C467.857 171.705 467.891 171.663 467.938 171.674C468.531 171.807 468.969 171.865 469.252 171.846C469.551 171.832 469.771 171.726 469.914 171.528C470.076 171.319 470.21 170.98 470.315 170.511L471.428 165.571L468.823 159.006C468.54 158.221 468.234 157.652 467.903 157.299C467.573 156.945 467.15 156.711 466.635 156.595C466.588 156.584 466.575 156.532 466.596 156.439C466.618 156.345 466.651 156.303 466.698 156.314C466.886 156.356 467.163 156.435 467.531 156.551L468.345 156.758C468.876 156.878 469.55 157.014 470.369 157.165L471.639 157.426C471.67 157.433 471.675 157.484 471.654 157.577C471.633 157.671 471.607 157.714 471.575 157.707C470.764 157.525 470.321 157.597 470.247 157.925C470.208 158.097 470.243 158.309 470.349 158.563L472.875 164.938L476.717 161.202C477.183 160.734 477.459 160.312 477.543 159.937C477.67 159.375 477.312 158.999 476.469 158.809C476.438 158.802 476.432 158.752 476.454 158.658C476.475 158.565 476.501 158.521 476.532 158.528L477.627 158.8C478.213 158.965 478.756 159.103 479.256 159.216C479.521 159.275 479.844 159.332 480.226 159.385L481.098 159.557Z" fill="white"/>
</svg>
