<svg width="90" height="78" viewBox="0 0 90 78" fill="none" xmlns="http://www.w3.org/2000/svg">
<path d="M38.0995 32.2573C39.5627 32.2573 40.7489 31.06 40.7489 29.583C40.7489 28.1059 39.5627 26.9086 38.0995 26.9086C36.6363 26.9086 35.4502 28.1059 35.4502 29.583C35.4502 31.06 36.6363 32.2573 38.0995 32.2573Z" fill="white"/>
<path d="M81.9113 33.8997C81.7718 34.6609 81.4849 35.4221 81.3246 36.0418C80.1405 40.6741 78.8269 45.266 77.5849 49.881C76.5582 53.6908 75.6639 57.5445 74.2036 61.2163C73.4288 63.1656 72.279 64.9119 70.5183 66.0761C70.1155 66.3412 69.6926 66.5687 69.2591 66.7716C68.7647 67.0093 68.2216 67.1956 67.635 67.3263C66.3486 67.6087 64.9971 67.5849 63.725 67.2505C61.9234 66.7817 59.8486 65.6009 59.4186 63.5859C59.023 61.7262 60.1999 59.0944 62.3499 59.1666C63.0288 59.1905 63.7829 59.3833 64.3052 59.8694C64.9806 60.5028 65.329 61.6742 64.8475 62.5596C65.6288 62.9388 67.0447 62.6803 67.7959 62.2361C68.9357 61.5716 69.5359 60.3244 69.9795 59.0532L71.7367 53.2906C71.3611 53.3629 70.9554 53.4661 70.7608 53.4972C69.7341 53.6662 68.6795 53.5831 67.6865 53.2805C66.3214 52.8602 64.7932 51.9719 64.0083 50.7419C63.2506 49.5466 63.1927 48.0899 63.3944 46.7256C63.4252 46.5054 63.4624 46.288 63.5068 46.0713C63.9131 44.0151 64.5442 42.0211 65.1137 40.0061C65.5608 38.4324 66.0073 36.8543 66.4509 35.277L60.2378 36.1725C58.5458 42.1865 56.8465 48.1968 55.1473 54.2108C54.2415 57.4174 53.2521 60.5981 52.2848 63.786C51.4112 66.6481 49.8314 69.0698 46.9481 70.1892C44.1028 71.2949 39.4959 70.8399 37.8518 67.8709C37.1964 66.6929 37.1556 65.1495 37.8654 64.0026C38.5787 62.8594 40.0661 62.2188 41.3425 62.6283C42.6189 63.0414 43.4817 64.5465 43.0761 65.8349C44.3353 66.3686 45.8363 65.7143 46.7135 64.6635C47.7087 63.4545 48.0943 61.8844 48.5379 60.4125C49.0545 58.6972 49.5732 56.9841 50.0568 55.2587C51.0535 51.7097 51.9735 48.139 52.9673 44.5893C53.3293 43.298 53.6906 42.0059 54.0591 40.711C54.2401 40.0667 54.424 39.4196 54.6014 38.7718C54.7617 38.2106 54.9463 37.6148 55.1065 36.9908C55.1065 36.9872 55.1237 36.9222 55.1237 36.9114C55.1166 36.9114 55.0894 36.9114 55.045 36.9186C55.0178 36.9222 54.9799 36.9287 54.9391 36.9359L54.8025 36.9533L54.5635 36.9908L54.4748 37.0009C54.4476 37.0081 54.4233 37.011 54.3932 37.0146C54.3696 37.0183 54.3489 37.0219 54.3253 37.0248C52.6568 37.266 48.9986 37.7997 48.9958 37.7997C48.3676 40.0249 47.7437 42.25 47.1156 44.4716C46.6004 46.2938 46.0781 48.1159 45.563 49.9381C44.5428 53.5376 42.6597 56.9263 38.5579 57.3849C38.2846 57.4196 38.012 57.4333 37.7323 57.4333C35.8692 57.4333 34.1636 56.727 32.8292 55.5599C30.8503 53.8208 30.1885 51.7299 30.1885 49.5257C30.1885 47.5244 30.7344 45.4271 31.3382 43.402C31.5464 42.713 31.7546 42.0348 31.9385 41.3834C32.0444 41.0013 32.1503 40.6258 32.259 40.243L33.0203 37.5498C33.2764 36.647 34.0305 35.979 34.9513 35.8482C36.6434 35.5969 38.0185 37.1916 37.5549 38.852L37.3703 39.4962L36.6026 42.2175C36.3944 42.9578 36.1554 43.7161 35.9336 44.4738C35.8857 44.6427 35.8349 44.811 35.7905 44.98C35.4392 46.2649 34.9649 47.7252 34.9577 49.0685C34.9406 50.9802 36.2985 52.702 38.2946 52.2095C39.7313 51.8549 40.5297 50.4668 40.9046 49.1198C41.1572 48.2279 41.3997 47.3323 41.6487 46.4367C41.9356 45.4206 42.229 44.4116 42.5151 43.402L43.8802 38.5458L45.0608 34.3713L48.7118 21.255C48.7118 21.255 50.5612 14.7037 50.5612 14.6972C51.0456 12.9747 51.6358 11.2595 52.8779 9.93347C54.1128 8.61108 55.7476 7.68808 57.5284 7.38114C60.7258 6.83369 66.0316 8.34892 65.3999 12.5407C65.1609 14.1115 64.1786 15.4888 62.5817 15.4888C61.9063 15.4888 61.145 15.3234 60.6091 14.8518C59.913 14.2459 59.5238 13.0816 59.9781 12.1897C59.1868 11.8387 57.7809 12.1449 57.044 12.6064C56.2491 13.1062 55.7476 13.9909 55.4063 14.8417C53.3179 20.0186 52.0658 27.2069 50.4825 32.5383C50.4589 32.6206 50.2471 33.6195 50.1756 33.6267L54.9255 32.9341C54.9255 32.9341 56.3006 32.7311 56.3071 32.7311L58.3819 25.2056L58.447 24.9542C58.8978 23.5149 59.4809 22.1267 60.5219 21.0102C61.228 20.2562 62.0673 19.6293 62.9852 19.1707C63.6778 18.8298 64.4218 18.5821 65.1931 18.4506C68.3969 17.8996 73.7264 19.4083 73.0918 23.6239C72.8528 25.2013 71.8598 26.5829 70.2664 26.5829C69.5875 26.5829 68.8198 26.4175 68.2839 25.9495C67.5877 25.3399 67.1957 24.1685 67.6493 23.27C66.8544 22.9219 65.4485 23.2289 64.7044 23.694C63.9439 24.1764 63.4488 25.0063 63.104 25.8296C63.0868 25.8643 63.0732 25.9018 63.056 25.9365C62.4758 27.3831 61.7045 30.4901 61.3432 31.9988L67.635 31.0794L70.3165 30.6901C71.4598 30.5211 72.3878 31.5994 72.0737 32.7153L71.565 34.5129C70.5684 38.033 69.453 41.5459 68.5758 45.097C68.354 45.8792 68.163 46.8744 68.6066 47.6356C69.5481 49.2375 72.0937 49.0028 73.0596 47.5771C73.5404 46.8643 73.7386 45.9861 74.0119 45.1765C75.2882 41.405 75.6567 39.1315 76.7378 35.3015L77.5055 32.5939C77.758 31.702 78.505 31.044 79.4129 30.9097C79.43 30.9061 79.4608 30.9025 79.4844 30.9025C80.3101 30.9025 80.979 31.0404 81.5385 31.715C82.0365 32.3144 82.0536 33.1067 81.9106 33.899L81.9113 33.8997Z" fill="white"/>
<path d="M33.3364 19.9088L33.043 20.9452L32.3569 23.3769L31.4046 26.7389L31.0705 27.9168L30.9718 28.2714L29.7841 32.4769C27.9146 39.0694 26.1295 45.6893 24.1913 52.2644C23.8193 53.5218 23.4444 54.7821 23.0616 56.0358C22.1845 58.9226 20.5947 61.3608 17.6842 62.4903C14.8145 63.6062 10.174 63.1447 8.51631 60.1554C7.86095 58.9673 7.81659 57.4138 8.53348 56.2561C9.25038 55.102 10.7478 54.4585 12.0342 54.8716C13.3206 55.2883 14.1906 56.8072 13.7878 58.1057C15.0535 58.6431 16.5688 57.9815 17.4488 56.9242C18.2981 55.9044 18.7724 54.6167 19.138 53.3521C21.1785 46.2606 23.0895 39.1337 25.0134 32.0075C25.3239 30.8606 25.6344 29.7137 25.9514 28.5668C26.0193 28.3119 26.088 28.0533 26.1596 27.7991C26.2719 27.3896 26.3814 26.983 26.4937 26.5728C26.7083 25.7769 26.9852 24.9543 27.1519 24.1035C25.8927 24.2516 25.6509 24.2963 24.2207 24.4718C22.3955 24.6921 20.9245 22.9942 21.4297 21.2067C21.7058 20.2317 22.5215 19.5087 23.5209 19.3643C24.7222 19.1888 25.9263 19.0234 27.1312 18.8544L27.7794 18.7612C28.8676 18.6059 29.9594 18.455 31.0447 18.2896L31.4955 18.2239C31.4955 18.2239 33.5424 18.0412 33.3349 19.9081L33.3364 19.9088Z" fill="white"/>
<path d="M26.1605 27.7998C26.089 28.0547 26.0203 28.3133 25.9523 28.5675H25.9487C26.0203 28.309 26.0918 28.054 26.1605 27.7998Z" fill="white"/>
</svg>
