<svg width="24" height="24" viewBox="0 0 24 24" fill="none" xmlns="http://www.w3.org/2000/svg">
<path d="M21.1645 19.6149L21.1665 19.6336L21.1703 19.652C21.1893 19.7458 21.1999 19.8367 21.1999 19.9272C21.1999 20.6474 20.6464 21.2 19.9999 21.2H11.9999H3.9999C3.35339 21.2 2.7999 20.6474 2.7999 19.9272C2.7999 19.8367 2.81055 19.7458 2.82955 19.652L2.83328 19.6336L2.83526 19.6149L4.39766 4.91495L4.3999 4.89388V4.87268C4.3999 4.15247 4.95339 3.59995 5.5999 3.59995H11.9999H18.3999C19.0464 3.59995 19.5999 4.15247 19.5999 4.87268V4.89388L19.6021 4.91495L21.1645 19.6149ZM16.3999 8.21813V7.5549C16.8806 7.26808 17.1999 6.73447 17.1999 6.12722C17.1999 5.23074 16.4998 4.47268 15.5999 4.47268C14.7 4.47268 13.9999 5.23074 13.9999 6.12722V8.21813C13.9999 9.39751 13.0856 10.3272 11.9999 10.3272C10.9142 10.3272 9.9999 9.39751 9.9999 8.21813V6.12722C9.9999 5.23074 9.29979 4.47268 8.3999 4.47268C7.50002 4.47268 6.7999 5.23074 6.7999 6.12722C6.7999 6.73447 7.11916 7.26808 7.5999 7.5549V8.21813C7.5999 10.728 9.55682 12.8 11.9999 12.8C14.443 12.8 16.3999 10.728 16.3999 8.21813Z" stroke="#BABABA" stroke-width="0.8"/>
</svg>
