<svg width="24" height="24" viewBox="0 0 24 24" fill="none" xmlns="http://www.w3.org/2000/svg">
  <path d="M4.75 13.97C4.61 15.6 5.9 17 7.54 17H18.19C19.63 17 20.89 15.82 21 14.39L21.54 6.89C21.66 5.23 20.4 3.88 18.73 3.88H5.82" 
    fill="#4F0099"/>
  <path d="M2 2H3.74C4.82 2 5.67 2.93 5.58 4L5.08 10.05" 
    fill="#4F0099"/>
  <path d="M16.25 22C16.94 22 17.5 21.44 17.5 20.75C17.5 20.06 16.94 19.5 16.25 19.5C15.56 19.5 15 20.06 15 20.75C15 21.44 15.56 22 16.25 22Z" 
    fill="#4F0099"/>
  <path d="M8.25 22C8.94 22 9.5 21.44 9.5 20.75C9.5 20.06 8.94 19.5 8.25 19.5C7.56 19.5 7 20.06 7 20.75C7 21.44 7.56 22 8.25 22Z" 
    fill="#4F0099"/>
  <path d="M9 8H21" 
    fill="#4F0099"/>
</svg>
