<svg width="20" height="21" viewBox="0 0 20 21" fill="none" xmlns="http://www.w3.org/2000/svg">
<path d="M2.5 8.34375C2.5 7.49042 3.19176 6.79867 4.04508 6.79867V6.79867C4.63032 6.79867 5.16533 6.46801 5.42705 5.94456L6.11111 4.57644C6.11378 4.5711 6.11512 4.56842 6.11637 4.56595C6.45523 3.89289 7.14364 3.46743 7.89719 3.46534C7.89996 3.46533 7.90295 3.46533 7.90893 3.46533H12.0911C12.0971 3.46533 12.1 3.46533 12.1028 3.46534C12.8564 3.46743 13.5448 3.89289 13.8836 4.56595C13.8849 4.56842 13.8862 4.5711 13.8889 4.57644L14.5729 5.94456C14.8347 6.46801 15.3697 6.79867 15.9549 6.79867V6.79867C16.8082 6.79867 17.5 7.49042 17.5 8.34375V12.513C17.5 13.7099 17.5 14.3084 17.3316 14.7895C17.0301 15.6512 16.3526 16.3288 15.4908 16.6303C15.0097 16.7987 14.4112 16.7987 13.2143 16.7987H6.78571C5.58876 16.7987 4.99028 16.7987 4.50916 16.6303C3.64742 16.3288 2.96989 15.6512 2.66835 14.7895C2.5 14.3084 2.5 13.7099 2.5 12.513V8.34375Z" stroke="#CAC9C9" stroke-width="2"/>
<path d="M12.3332 10.9654C12.3332 12.2541 11.2885 13.2987 9.99984 13.2987C8.71117 13.2987 7.6665 12.2541 7.6665 10.9654C7.6665 9.67675 8.71117 8.63208 9.99984 8.63208C11.2885 8.63208 12.3332 9.67675 12.3332 10.9654Z" stroke="#CAC9C9" stroke-width="2"/>
</svg>
