<svg width="21" height="20" viewBox="0 0 21 20" fill="none" xmlns="http://www.w3.org/2000/svg">
<g clip-path="url(#clip0_13909_4708)">
<path d="M17.1667 18.3332C17.6269 18.3332 18 17.9601 18 17.4998C18 17.0396 17.6269 16.6665 17.1667 16.6665C16.7065 16.6665 16.3334 17.0396 16.3334 17.4998C16.3334 17.9601 16.7065 18.3332 17.1667 18.3332Z" stroke="#21034F" stroke-width="1.5" stroke-linecap="round" stroke-linejoin="round"/>
<path d="M7.99996 18.3332C8.4602 18.3332 8.83329 17.9601 8.83329 17.4998C8.83329 17.0396 8.4602 16.6665 7.99996 16.6665C7.53972 16.6665 7.16663 17.0396 7.16663 17.4998C7.16663 17.9601 7.53972 18.3332 7.99996 18.3332Z" stroke="#21034F" stroke-width="1.5" stroke-linecap="round" stroke-linejoin="round"/>
<path d="M1.33337 0.833496H4.66671L6.90004 11.9918C6.97624 12.3755 7.18496 12.7201 7.48966 12.9654C7.79436 13.2107 8.17562 13.341 8.56671 13.3335H16.6667C17.0578 13.341 17.4391 13.2107 17.7438 12.9654C18.0484 12.7201 18.2572 12.3755 18.3334 11.9918L19.6667 5.00016H5.50004" stroke="#21034F" stroke-width="1.5" stroke-linecap="round" stroke-linejoin="round"/>
</g>
<defs>
<clipPath id="clip0_13909_4708">
<rect width="20" height="20" fill="white" transform="translate(0.5)"/>
</clipPath>
</defs>
</svg>
