<svg width="89" height="94" viewBox="0 0 89 94" fill="none" xmlns="http://www.w3.org/2000/svg">
<g filter="url(#filter0_d_751_4391)">
<circle cx="47" cy="43" r="22" fill="white"/>
</g>
<path d="M51.9498 35.5752C52.7748 35.5752 53.4498 36.2502 53.4498 37.0752V38.7252C53.4498 39.3252 53.0748 40.0752 52.6998 40.4502L49.4748 43.3002C49.0248 43.6752 48.7248 44.4252 48.7248 45.0252V48.2502C48.7248 48.7002 48.4248 49.3002 48.0498 49.5252L46.9998 50.2002C46.0248 50.8002 44.6748 50.1252 44.6748 48.9252V44.9502C44.6748 44.4252 44.3748 43.7502 44.0748 43.3752L41.2248 40.3752C40.8498 40.0002 40.5498 39.3252 40.5498 38.8752V37.1502C40.5498 36.2502 41.2248 35.5752 42.0498 35.5752H48.7998" stroke="#4F0099" stroke-width="1.5" stroke-miterlimit="10" stroke-linecap="round" stroke-linejoin="round"/>
<path d="M46.1975 35.5752L42.5 41.5002" stroke="#4F0099" stroke-width="1.5" stroke-miterlimit="10" stroke-linecap="round" stroke-linejoin="round"/>
<defs>
<filter id="filter0_d_751_4391" x="0" y="0" width="94" height="94" filterUnits="userSpaceOnUse" color-interpolation-filters="sRGB">
<feFlood flood-opacity="0" result="BackgroundImageFix"/>
<feColorMatrix in="SourceAlpha" type="matrix" values="0 0 0 0 0 0 0 0 0 0 0 0 0 0 0 0 0 0 127 0" result="hardAlpha"/>
<feMorphology radius="5" operator="erode" in="SourceAlpha" result="effect1_dropShadow_751_4391"/>
<feOffset dy="4"/>
<feGaussianBlur stdDeviation="15"/>
<feComposite in2="hardAlpha" operator="out"/>
<feColorMatrix type="matrix" values="0 0 0 0 0 0 0 0 0 0 0 0 0 0 0 0 0 0 0.1 0"/>
<feBlend mode="normal" in2="BackgroundImageFix" result="effect1_dropShadow_751_4391"/>
<feBlend mode="normal" in="SourceGraphic" in2="effect1_dropShadow_751_4391" result="shape"/>
</filter>
</defs>
</svg>
