<svg width="21" height="20" viewBox="0 0 21 20" fill="none" xmlns="http://www.w3.org/2000/svg">
<g clip-path="url(#clip0_13874_3792)">
<path d="M17.1666 18.3332C17.6268 18.3332 17.9999 17.9601 17.9999 17.4998C17.9999 17.0396 17.6268 16.6665 17.1666 16.6665C16.7063 16.6665 16.3333 17.0396 16.3333 17.4998C16.3333 17.9601 16.7063 18.3332 17.1666 18.3332Z" stroke="#21034F" stroke-width="1.5" stroke-linecap="round" stroke-linejoin="round"/>
<path d="M8.00008 18.3332C8.46032 18.3332 8.83341 17.9601 8.83341 17.4998C8.83341 17.0396 8.46032 16.6665 8.00008 16.6665C7.53984 16.6665 7.16675 17.0396 7.16675 17.4998C7.16675 17.9601 7.53984 18.3332 8.00008 18.3332Z" stroke="#21034F" stroke-width="1.5" stroke-linecap="round" stroke-linejoin="round"/>
<path d="M1.33325 0.833496H4.66658L6.89992 11.9918C6.97612 12.3755 7.18484 12.7201 7.48954 12.9654C7.79424 13.2107 8.1755 13.341 8.56658 13.3335H16.6666C17.0577 13.341 17.4389 13.2107 17.7436 12.9654C18.0483 12.7201 18.257 12.3755 18.3333 11.9918L19.6666 5.00016H5.49992" stroke="#21034F" stroke-width="1.5" stroke-linecap="round" stroke-linejoin="round"/>
</g>
<defs>
<clipPath id="clip0_13874_3792">
<rect width="20" height="20" fill="white" transform="translate(0.5)"/>
</clipPath>
</defs>
</svg>
