<svg width="18" height="20" viewBox="0 0 18 20" fill="none" xmlns="http://www.w3.org/2000/svg">
<path d="M9.11268 19.5999L9.11268 19.1999H9.11267L9.11268 19.5999ZM1 15.2461L0.600045 15.2401L0.598178 15.364L0.666669 15.4672L1 15.2461ZM17.2254 15.2461L17.5587 15.4672L17.6272 15.364L17.6253 15.2401L17.2254 15.2461ZM9.11259 0.799902C11.1362 0.799902 12.7689 2.43265 12.7689 4.45624H13.5689C13.5689 1.99082 11.578 -9.76622e-05 9.11259 -9.76622e-05V0.799902ZM12.7689 4.45624C12.7689 6.47983 11.1362 8.11258 9.11259 8.11258V8.91258C11.578 8.91258 13.5689 6.92166 13.5689 4.45624H12.7689ZM9.11259 8.11258C7.08899 8.11258 5.45625 6.47983 5.45625 4.45624H4.65625C4.65625 6.92166 6.64717 8.91258 9.11259 8.91258V8.11258ZM5.45625 4.45624C5.45625 2.43265 7.08899 0.799902 9.11259 0.799902V-9.76622e-05C6.64717 -9.76622e-05 4.65625 1.99082 4.65625 4.45624H5.45625ZM9.11267 19.1999C5.98376 19.1999 3.06292 17.6324 1.33333 15.025L0.666669 15.4672C2.54448 18.2981 5.71563 19.9999 9.11268 19.9999L9.11267 19.1999ZM1.39995 15.2521C1.40793 14.7231 1.67592 14.2226 2.17796 13.7521C2.68169 13.2801 3.39378 12.866 4.21181 12.5239C5.84951 11.8389 7.81517 11.4816 9.11268 11.4816V10.6816C7.70595 10.6816 5.63556 11.0612 3.90312 11.7858C3.03608 12.1485 2.22958 12.6074 1.63092 13.1684C1.03056 13.731 0.612352 14.4237 0.600045 15.2401L1.39995 15.2521ZM9.11268 11.4816C10.4033 11.4816 12.369 11.8388 14.0086 12.5239C14.8276 12.8661 15.541 13.2802 16.0458 13.7524C16.5489 14.223 16.8174 14.7235 16.8254 15.2521L17.6253 15.2401C17.613 14.4234 17.1936 13.7306 16.5923 13.1681C15.9926 12.6072 15.1848 12.1484 14.317 11.7858C12.5831 11.0613 10.5128 10.6816 9.11268 10.6816V11.4816ZM16.892 15.025C15.1624 17.6324 12.2416 19.1999 9.11268 19.1999L9.11267 19.9999C12.5097 19.9999 15.6809 18.2981 17.5587 15.4672L16.892 15.025Z" fill="#BABABA"/>
</svg>
