<svg width="20" height="21" viewBox="0 0 20 21" fill="none" xmlns="http://www.w3.org/2000/svg">
<path d="M9.58317 18.2572C4.87484 18.2572 1.0415 14.4238 1.0415 9.7155C1.0415 5.00716 4.87484 1.17383 9.58317 1.17383C14.2915 1.17383 18.1248 5.00716 18.1248 9.7155C18.1248 14.4238 14.2915 18.2572 9.58317 18.2572ZM9.58317 2.42383C5.55817 2.42383 2.2915 5.69883 2.2915 9.7155C2.2915 13.7322 5.55817 17.0072 9.58317 17.0072C13.6082 17.0072 16.8748 13.7322 16.8748 9.7155C16.8748 5.69883 13.6082 2.42383 9.58317 2.42383Z" fill="#CAC9C9"/>
<path d="M18.3335 19.0904C18.1752 19.0904 18.0169 19.032 17.8919 18.907L16.2252 17.2404C15.9835 16.9987 15.9835 16.5987 16.2252 16.357C16.4669 16.1154 16.8669 16.1154 17.1085 16.357L18.7752 18.0237C19.0169 18.2654 19.0169 18.6654 18.7752 18.907C18.6502 19.032 18.4919 19.0904 18.3335 19.0904Z" fill="#CAC9C9"/>
</svg>
