<svg width="28" height="28" viewBox="0 0 28 28" fill="none" xmlns="http://www.w3.org/2000/svg">
<path d="M2.79834 5.04005H2.33167V5.50672H2.79834V5.04005ZM5.03834 5.04005L5.45998 4.84006L5.33349 4.57338H5.03834V5.04005ZM9.07034 13.5408L9.47906 13.7661L9.59439 13.5568L9.49198 13.3409L9.07034 13.5408ZM7.55834 16.2848L7.96357 16.5164L7.96706 16.5101L7.55834 16.2848ZM22.9583 19.6V20.0667H23.425V19.6H22.9583ZM22.9583 17.36H23.425V16.8934H22.9583V17.36ZM9.70874 17.08L9.25601 16.9669L9.24207 17.0226V17.08H9.70874ZM9.74234 16.9456L9.33381 16.7201L9.30438 16.7734L9.28961 16.8325L9.74234 16.9456ZM10.7503 15.12V14.6534H10.4749L10.3418 14.8945L10.7503 15.12ZM21.0543 13.9664L20.6457 13.741L20.6452 13.7421L21.0543 13.9664ZM25.0639 6.69765L25.4726 6.92306L25.4745 6.91958L25.0639 6.69765ZM24.0783 5.04005L24.0794 4.57338H24.0783V5.04005ZM7.51354 5.04005L7.0912 5.23855L7.21723 5.50672H7.51354V5.04005ZM6.46074 2.80005L6.88308 2.60155L6.75705 2.33338H6.46074V2.80005ZM9.51881 20.2534C8.02603 20.2534 6.82334 21.4734 6.82334 22.9601H7.75667C7.75667 21.9827 8.54758 21.1867 9.51881 21.1867V20.2534ZM6.82334 22.9601C6.82334 24.4467 8.02603 25.6667 9.51881 25.6667V24.7334C8.54758 24.7334 7.75667 23.9374 7.75667 22.9601H6.82334ZM9.51881 25.6667C11.0085 25.6667 12.2255 24.4498 12.2255 22.9601H11.2921C11.2921 23.9343 10.4931 24.7334 9.51881 24.7334V25.6667ZM12.2255 22.9601C12.2255 21.4703 11.0085 20.2534 9.51881 20.2534V21.1867C10.4931 21.1867 11.2921 21.9858 11.2921 22.9601H12.2255ZM2.33167 2.80005V5.04005H3.26501V2.80005H2.33167ZM2.79834 5.50672H5.03834V4.57338H2.79834V5.50672ZM4.6167 5.24004L8.6487 13.7408L9.49198 13.3409L5.45998 4.84006L4.6167 5.24004ZM8.66162 13.3156L7.14962 16.0596L7.96706 16.5101L9.47906 13.7661L8.66162 13.3156ZM7.15316 16.0533C6.93307 16.4385 6.81167 16.888 6.81167 17.36H7.74501C7.74501 17.0481 7.82521 16.7584 7.96352 16.5164L7.15316 16.0533ZM6.81167 17.36C6.81167 18.8498 8.02861 20.0667 9.51834 20.0667V19.1334C8.54407 19.1334 7.74501 18.3343 7.74501 17.36H6.81167ZM9.51834 20.0667H22.9583V19.1334H9.51834V20.0667ZM23.425 19.6V17.36H22.4917V19.6H23.425ZM22.9583 16.8934H9.98874V17.8267H22.9583V16.8934ZM9.98874 16.8934C10.0897 16.8934 10.1754 16.9791 10.1754 17.08H9.24207C9.24207 17.4946 9.57421 17.8267 9.98874 17.8267V16.8934ZM10.1615 17.1932L10.1951 17.0588L9.28961 16.8325L9.25601 16.9669L10.1615 17.1932ZM10.1509 17.1712L11.1589 15.3456L10.3418 14.8945L9.33381 16.7201L10.1509 17.1712ZM10.7503 15.5867H19.0943V14.6534H10.7503V15.5867ZM19.0943 15.5867C20.1076 15.5867 21.0022 15.0321 21.4635 14.1908L20.6452 13.7421C20.3449 14.2896 19.7611 14.6534 19.0943 14.6534V15.5867ZM21.463 14.1919L25.4726 6.92305L24.6553 6.47225L20.6457 13.741L21.463 14.1919ZM25.4745 6.91958C25.7405 6.42743 25.7284 5.83167 25.4424 5.35078L24.6402 5.82779C24.7583 6.02639 24.7633 6.27245 24.6534 6.47571L25.4745 6.91958ZM25.4424 5.35078C25.1565 4.8699 24.6389 4.57467 24.0794 4.57338L24.0773 5.50671C24.3083 5.50725 24.5221 5.62918 24.6402 5.82779L25.4424 5.35078ZM24.0783 4.57338H7.51354V5.50672H24.0783V4.57338ZM7.93588 4.84155L6.88308 2.60155L6.0384 2.99855L7.0912 5.23855L7.93588 4.84155ZM6.46074 2.33338H2.79834V3.26672H6.46074V2.33338ZM20.7188 20.2534C19.226 20.2534 18.0233 21.4734 18.0233 22.9601H18.9567C18.9567 21.9827 19.7476 21.1867 20.7188 21.1867V20.2534ZM18.0233 22.9601C18.0233 24.4467 19.226 25.6667 20.7188 25.6667V24.7334C19.7476 24.7334 18.9567 23.9374 18.9567 22.9601H18.0233ZM20.7188 25.6667C22.2085 25.6667 23.4255 24.4498 23.4255 22.9601H22.4921C22.4921 23.9343 21.6931 24.7334 20.7188 24.7334V25.6667ZM23.4255 22.9601C23.4255 21.4703 22.2085 20.2534 20.7188 20.2534V21.1867C21.6931 21.1867 22.4921 21.9858 22.4921 22.9601H23.4255Z" fill="#BABABA"/>
</svg>
