<svg width="42" height="42" viewBox="0 0 42 42" fill="none" xmlns="http://www.w3.org/2000/svg">
<g clip-path="url(#clip0_13909_4292)">
<path d="M14.8271 18.9513C15.256 17.6537 16.0837 16.5247 17.1922 15.7253C18.3007 14.926 19.6333 14.4971 20.9999 14.4999C22.5491 14.4999 23.9498 15.0499 25.0498 15.9501L28.2508 12.75C26.3001 11.0496 23.8003 10 20.9999 10C16.6641 10 12.9314 12.4732 11.1366 16.0958L14.8271 18.9513Z" fill="#EA4335"/>
<path d="M24.7033 26.512C23.7042 27.1564 22.4355 27.5002 21 27.5002C19.6388 27.503 18.3112 27.0775 17.2052 26.2841C16.0992 25.4907 15.2708 24.3694 14.8372 23.0791L11.1339 25.8905C12.0426 27.7296 13.4487 29.277 15.1927 30.357C16.9368 31.437 18.9487 32.0062 21 32.0001C23.6886 32.0001 26.2571 31.044 28.1812 29.2501L24.7042 26.512H24.7033Z" fill="#34A853"/>
<path d="M28.1812 29.2502C30.1932 27.3728 31.4995 24.5788 31.4995 21.0002C31.4995 20.3493 31.3996 19.6499 31.2502 19H21V23.2506H26.8997C26.6091 24.6797 25.8272 25.7861 24.7043 26.5121L28.1812 29.2502Z" fill="#4A90E2"/>
<path d="M14.8372 23.0789C14.613 22.4087 14.499 21.7066 14.4999 20.9999C14.4999 20.283 14.6145 19.5946 14.8272 18.9511L11.1367 16.0957C10.3817 17.6198 9.99247 19.299 9.99998 20.9999C9.99998 22.7599 10.4079 24.419 11.1339 25.8903L14.8372 23.0789Z" fill="#FBBC05"/>
</g>
<g clip-path="url(#clip1_13909_4292)">
<path d="M14.8271 18.9513C15.256 17.6537 16.0837 16.5247 17.1922 15.7253C18.3007 14.926 19.6333 14.4971 20.9999 14.4999C22.5491 14.4999 23.9498 15.0499 25.0498 15.9501L28.2508 12.75C26.3001 11.0496 23.8003 10 20.9999 10C16.6641 10 12.9314 12.4732 11.1366 16.0958L14.8271 18.9513Z" fill="#EA4335"/>
<path d="M24.7033 26.512C23.7042 27.1564 22.4355 27.5002 21 27.5002C19.6388 27.503 18.3112 27.0775 17.2052 26.2841C16.0992 25.4907 15.2708 24.3694 14.8372 23.0791L11.1339 25.8905C12.0426 27.7296 13.4487 29.277 15.1927 30.357C16.9368 31.437 18.9487 32.0062 21 32.0001C23.6886 32.0001 26.2571 31.044 28.1812 29.2501L24.7042 26.512H24.7033Z" fill="#34A853"/>
<path d="M28.1812 29.2502C30.1932 27.3728 31.4995 24.5788 31.4995 21.0002C31.4995 20.3493 31.3996 19.6499 31.2502 19H21V23.2506H26.8997C26.6091 24.6797 25.8272 25.7861 24.7043 26.5121L28.1812 29.2502Z" fill="#4A90E2"/>
<path d="M14.8372 23.0789C14.613 22.4087 14.499 21.7066 14.4999 20.9999C14.4999 20.283 14.6145 19.5946 14.8272 18.9511L11.1367 16.0957C10.3817 17.6198 9.99247 19.299 9.99998 20.9999C9.99998 22.7599 10.4079 24.419 11.1339 25.8903L14.8372 23.0789Z" fill="#FBBC05"/>
</g>
<rect opacity="0.14" x="0.5" y="0.5" width="41" height="41" rx="20.5" fill="white" stroke="#332218"/>
<defs>
<clipPath id="clip0_13909_4292">
<rect width="22" height="22" fill="white" transform="translate(10 10)"/>
</clipPath>
<clipPath id="clip1_13909_4292">
<rect width="22" height="22" fill="white" transform="translate(10 10)"/>
</clipPath>
</defs>
</svg>
